<?xml version="1.0" encoding="UTF-8"?>
<svg width="22px" height="30px" viewBox="0 0 22 30" version="1.1" xmlns="http://www.w3.org/2000/svg" xmlns:xlink="http://www.w3.org/1999/xlink">
    <title>attached-file@2x</title>
    <g id="Last-Update" stroke="none" stroke-width="1" fill="none" fill-rule="evenodd">
        <g id="New---2" transform="translate(-319.000000, -616.000000)">
            <g id="Group-4" transform="translate(16.000000, 45.000000)">
                <g id="Group-2" transform="translate(231.000000, 519.000000)">
                    <g id="Group-7" transform="translate(54.000000, 38.000000)">
                        <g id="attached-file" transform="translate(18.000000, 14.000000)">
                            <path d="M18.6828116,9.11399882 L17.8499705,9.11399882 L17.8499705,6.29060839 C17.8499705,4.91435322 16.7277023,3.79208506 15.3514471,3.79208506 L12.6580035,3.79208506 L12.6580035,3.75073833 C12.6580035,1.68340224 10.9746013,0 8.90726521,0 C6.83992912,0 5.15652688,1.68340224 5.15652688,3.75073833 L5.15652688,3.79208506 L2.49852333,3.79208506 C1.12226816,3.79208506 0,4.91435322 0,6.29060839 L0,23.8511518 C0,25.227407 1.12226816,26.3496751 2.49852333,26.3496751 L4.16420555,26.3496751 L4.16420555,27.5014767 C4.16420555,28.8777318 5.28647372,30 6.66272888,30 L15.2923804,30 C15.9598346,30 16.5859421,29.7401063 17.0584761,29.2675724 L20.4430006,25.8830478 C20.9155346,25.4105139 21.1754514,24.7844064 21.1754514,24.1169522 L21.1754514,11.6125222 C21.1813349,10.236267 20.0590667,9.11399882 18.6828116,9.11399882 L18.6828116,9.11399882 Z M15.3514471,5.45776728 C15.8121677,5.45776728 16.1842882,5.82988777 16.1842882,6.29060839 L16.1842882,9.11399882 L12.6580035,9.11399882 L12.6580035,5.45776728 L15.3514471,5.45776728 Z M6.8222091,3.75073833 C6.8222091,2.5989368 7.75546367,1.66568222 8.90726521,1.66568222 C10.0590667,1.66568222 10.9923213,2.5989368 10.9923213,3.75073833 L10.9923213,3.79208506 L6.8222091,3.79208506 L6.8222091,3.75073833 Z M2.49852333,24.6839929 C2.03780272,24.6839929 1.66568222,24.3118724 1.66568222,23.8511518 L1.66568222,6.29060839 C1.66568222,5.82988777 2.03780272,5.45776728 2.49852333,5.45776728 L10.9864146,5.45776728 L10.9864146,9.11399882 L9.32073243,9.11399882 L9.32073243,7.38924985 C9.32073243,6.92852924 8.94861193,6.55640874 8.48789132,6.55640874 C8.0271707,6.55640874 7.65505021,6.92852924 7.65505021,7.38924985 L7.65505021,9.11399882 L6.66863556,9.11399882 C5.29238039,9.11399882 4.17011223,10.236267 4.17011223,11.6125222 L4.17011223,24.6839929 L2.49852333,24.6839929 Z M9.32073243,10.779681 L10.9864146,10.779681 L10.9864146,11.2935617 C10.9864146,11.7542823 10.6142942,12.1264028 10.1535735,12.1264028 C9.69285292,12.1264028 9.32073243,11.7542823 9.32073243,11.2935617 L9.32073243,10.779681 Z M5.83579445,27.5073833 L5.83579445,11.6184288 C5.83579445,11.1577082 6.20791494,10.7855877 6.66863556,10.7855877 L7.65505021,10.7855877 L7.65505021,11.2994684 C7.65505021,12.6757236 8.77731837,13.7979917 10.1535735,13.7979917 C11.5298287,13.7979917 12.6520969,12.6757236 12.6520969,11.2994684 L12.6520969,10.7855877 L17.005316,10.7855877 L17.0112227,10.7855877 L17.0171294,10.7855877 L18.6828116,10.7855877 C19.1435322,10.7855877 19.5156527,11.1577082 19.5156527,11.6184288 L19.5156527,23.9810986 L15.9834613,23.9810986 C15.5227407,23.9810986 15.1506202,24.3532191 15.1506202,24.8139398 L15.1506202,28.3461311 L6.66863556,28.3461311 C6.20791494,28.3402245 5.83579445,27.9621973 5.83579445,27.5073833 Z M16.8222091,27.1588895 L16.8222091,25.6408742 L18.3402245,25.6408742 L16.8222091,27.1588895 Z" id="Shape" fill="#6A6D78" fill-rule="nonzero"></path>
                            <path d="M10.9864146,3.75073833 C10.9864146,2.5989368 10.0531601,1.66568222 8.90135854,1.66568222 C7.749557,1.66568222 6.8222091,2.5989368 6.8222091,3.75073833 L6.8222091,3.79208506 L10.9923213,3.79208506 L10.9923213,3.75073833 L10.9864146,3.75073833 Z" id="Path"></path>
                            <path d="M10.9864146,5.45776728 L10.9864146,9.11399882 L9.32073243,9.11399882 L9.32073243,7.38924985 C9.32073243,6.92852924 8.94861193,6.55640874 8.48789132,6.55640874 C8.0271707,6.55640874 7.65505021,6.92852924 7.65505021,7.38924985 L7.65505021,7.38924985 L7.65505021,9.11399882 L6.66272888,9.11399882 C5.28647372,9.11399882 4.16420555,10.236267 4.16420555,11.6125222 L4.16420555,11.6125222 L4.16420555,24.6839929 L2.49852333,24.6839929 C2.03780272,24.6839929 1.66568222,24.3118724 1.66568222,23.8511518 L1.66568222,23.8511518 L1.66568222,6.29060839 C1.66568222,5.82988777 2.03780272,5.45776728 2.49852333,5.45776728 L2.49852333,5.45776728 L10.9864146,5.45776728 Z M15.3455405,5.45776728 C15.8062611,5.45776728 16.1783816,5.82988777 16.1783816,6.29060839 L16.1783816,6.29060839 L16.1783816,9.11399882 L12.6520969,9.11399882 L12.6520969,5.45776728 Z" id="Combined-Shape" fill-rule="nonzero"></path>
                            <path d="M15.9834613,23.975192 L19.5156527,23.975192 L19.5156527,11.6125222 C19.5156527,11.1518015 19.1435322,10.779681 18.6828116,10.779681 L17.023036,10.779681 L17.0171294,10.779681 L17.0112227,10.779681 L12.6580035,10.779681 L12.6580035,11.2935617 C12.6580035,12.6698169 11.5357354,13.7920851 10.1594802,13.7920851 C8.78322504,13.7920851 7.66095688,12.6698169 7.66095688,11.2935617 L7.66095688,10.779681 L6.67454223,10.779681 C6.21382162,10.779681 5.84170112,11.1518015 5.84170112,11.6125222 L5.84170112,27.5014767 C5.84170112,27.9621973 6.21382162,28.3343178 6.67454223,28.3343178 L15.1624335,28.3343178 L15.1624335,24.8080331 C15.1506202,24.3473125 15.5286474,23.975192 15.9834613,23.975192 L15.9834613,23.975192 Z" id="Path" fill="#FFFFFF" fill-rule="nonzero"></path>
                            <path d="M10.1535735,12.1264028 C10.6142942,12.1264028 10.9864146,11.7542823 10.9864146,11.2935617 L10.9864146,10.779681 L9.32073243,10.779681 L9.32073243,11.2935617 C9.32073243,11.7542823 9.69285292,12.1264028 10.1535735,12.1264028 Z" id="Path" fill="#FFFFFF" fill-rule="nonzero"></path>
                            <polygon id="Path" fill="#FFFFFF" fill-rule="nonzero" points="16.8222091 27.1588895 18.3343178 25.6408742 16.8222091 25.6408742"></polygon>
                            <g id="Group" transform="translate(8.842292, 15.245127)" fill="#989898" fill-rule="nonzero">
                                <path d="M3.81571175,8.73006497 C4.27643237,8.73006497 4.64855286,9.10218547 4.64855286,9.56290608 C4.64855286,10.0236267 4.27643237,10.3957472 3.81571175,10.3957472 L0.83284111,10.3957472 C0.372120496,10.3957472 0,10.0236267 0,9.56290608 C0,9.10218547 0.372120496,8.73006497 0.83284111,8.73006497 L3.81571175,8.73006497 Z M6.82811577,4.36503249 C7.28883639,4.36503249 7.66095688,4.73715298 7.66095688,5.1978736 C7.66095688,5.65859421 7.28883639,6.03071471 6.82811577,6.03071471 L0.838747785,6.03071471 C0.378027171,6.03071471 0.00590667454,5.65859421 0.00590667454,5.1978736 C0.00590667454,4.73715298 0.378027171,4.36503249 0.838747785,4.36503249 L6.82811577,4.36503249 Z M6.82811577,0 C7.28883639,0 7.66095688,0.372120496 7.66095688,0.83284111 C7.66095688,1.29356172 7.28883639,1.66568222 6.82811577,1.66568222 L0.838747785,1.66568222 C0.378027171,1.66568222 0.00590667454,1.29356172 0.00590667454,0.83284111 C0.00590667454,0.372120496 0.378027171,0 0.838747785,0 L6.82811577,0 Z" id="Combined-Shape"></path>
                            </g>
                        </g>
                    </g>
                </g>
            </g>
        </g>
    </g>
</svg>