<?xml version="1.0" encoding="UTF-8"?>
<svg width="8px" height="12px" viewBox="0 0 8 12" version="1.1" xmlns="http://www.w3.org/2000/svg" xmlns:xlink="http://www.w3.org/1999/xlink">
    <title>attached@2x</title>
    <g id="Last-Update" stroke="none" stroke-width="1" fill="none" fill-rule="evenodd">
        <g id="New---8.1" transform="translate(-282.000000, -424.000000)" fill="#303C47" fill-rule="nonzero">
            <g id="Item" transform="translate(16.000000, 171.000000)">
                <g id="Group-2" transform="translate(16.000000, 177.000000)">
                    <g id="Group-4" transform="translate(172.000000, 67.000000)">
                        <g id="attached" transform="translate(78.000000, 9.000000)">
                            <path d="M3.74999678,0 C1.68235734,0 0,1.68238309 0,3.74999678 L0,9.37499195 C0,10.8222597 1.17774029,12 2.62500805,12 C4.07227581,12 5.2500161,10.8222597 5.2500161,9.37499195 L5.2500161,5.62499517 C5.2500161,4.38427756 4.24073049,3.37499195 3.00001288,3.37499195 L3.00001288,4.87498551 C3.4134738,4.87498551 3.75002254,5.21153425 3.75002254,5.62499517 L3.75002254,9.37499195 C3.75002254,9.99536363 3.24537973,10.4999807 2.62503381,10.4999807 C2.00468788,10.4999807 1.50004508,9.99533788 1.50004508,9.37499195 L1.50004508,3.74999678 C1.50004508,2.50927917 2.50933069,1.5 3.7500483,1.5 C4.9907659,1.5 6.00005152,2.50927917 6.00005152,3.74999678 L6.00005152,10.5 L7.50004508,10.5 L7.50004508,3.74999678 C7.50004508,1.68238309 5.81763623,0 3.74999678,0 Z" id="Path" transform="translate(3.750023, 6.000000) scale(1, -1) translate(-3.750023, -6.000000) "></path>
                        </g>
                    </g>
                </g>
            </g>
        </g>
    </g>
</svg>