<?xml version="1.0" encoding="UTF-8"?>
<svg width="390px" height="844px" viewBox="0 0 390 844" version="1.1" xmlns="http://www.w3.org/2000/svg" xmlns:xlink="http://www.w3.org/1999/xlink">
    <title>Combined Shape@2x</title>
    <defs>
        <linearGradient x1="100%" y1="1.93322072%" x2="0%" y2="98.0667793%" id="linearGradient-1">
            <stop stop-color="#F1743C" offset="0%"></stop>
            <stop stop-color="#F65626" offset="100%"></stop>
        </linearGradient>
    </defs>
    <g id="Shots" stroke="none" stroke-width="1" fill="none" fill-rule="evenodd" fill-opacity="0.06">
        <g id="Splash---4" fill="url(#linearGradient-1)">
            <path d="M127.002491,497 C86.6452184,516.559011 49.3373712,541.070296 15.8184283,571.412886 C10.7533656,575.996216 6.93972949,582.211322 0,584.576033 L0,800 C62.2349796,770.477012 99.2015287,720.184182 118.185621,655.321759 C132.527564,606.316521 134.090611,556.19702 130.108799,505.691243 C129.888686,502.908064 130.034603,499.837654 127.002491,497 M99.6906151,291.322242 C137.849339,259.792952 181.306786,247.20166 230.062958,255.476293 C283.986869,264.630199 329.255868,291.735725 373,327.125847 C314.143135,357.957697 255.904125,378.711533 190.74761,364.356714 C152.131674,355.850431 122.059437,333.584644 96.6853685,303.796463 C91.8771902,298.149406 94.3495832,295.592976 97.6929363,292.916913 L97.9944988,292.67686 C98.5510067,292.235864 99.1258339,291.789061 99.6906151,291.322242 Z M0,72 C57.8445587,160.039266 61.4828794,254.472173 1.82713302,334.576988 L0,337 L0,72 Z M19.622841,-23.4593594 L20.9842844,-23.3151563 L21.8929727,-23.2179541 C22.3472034,-23.1694672 22.8010689,-23.1213481 23.2536909,-23.0744813 L24.1570167,-22.9826796 C26.29307,-22.7702755 28.3880188,-22.5992674 30.3482942,-22.5638878 L31.0769019,-22.5571622 L246,-22.5571622 C241.661862,-18.053711 236.341463,-15.0739949 230.989409,-12.1377733 L229.593128,-11.3718158 C226.801629,-9.837981 224.024015,-8.28094771 221.395294,-6.49048699 C162.07226,33.9125487 131.434954,88.8124126 136.958661,162.032963 C137.494727,169.130861 135.879117,174.6614 131.47942,180.24916 C116.664719,199.059957 102.28974,218.224033 87.9419356,237 C85.1257342,236.480035 85.0318609,234.830576 85.1677302,233.173653 C91.5214757,156.248662 64.0042243,90.1732784 20.481562,29.3497921 C19.5432399,28.0378545 18.6320917,26.6955786 17.7245347,25.3453669 L17.0441718,24.3315701 C12.7348039,17.9058676 8.37344023,11.4274757 1.43267737,7.29729773 C1.43267737,4.70718478 1.17144726,1.85398908 0.872082453,-1.03761177 L0.776538771,-1.95176345 L0.686914203,-2.80153044 C0.642100294,-3.22641557 0.597440199,-3.65114579 0.553637054,-4.07501299 L0.467381704,-4.92138687 C0.439149678,-5.20298805 0.411506856,-5.48399585 0.384661575,-5.76420045 L0.306726688,-6.60219486 C-0.256715251,-12.8659338 -0.310931913,-18.616836 2.51716191,-21.4649865 C5.69816318,-24.6685473 12.5257031,-24.1997083 19.622841,-23.4593594 Z M331.610854,-2.53163455 C324.287746,35.590683 312.206352,71.695081 288.011378,102.727411 C263.402963,134.290251 230.909458,151.863999 191.283473,156.27417 C174.825048,158.106163 174.391802,157.558301 175.255819,141.417423 C176.691723,100.692138 193.419998,67.4435675 224.195371,41.1213691 C253.302125,16.2196472 287.550899,1.51412057 323.859451,-9.11094465 C330.053642,-10.9231058 333.145786,-10.5264631 331.610854,-2.53163455 Z M889.128321,462.988084 C895.253113,485.664159 904.891807,507.042477 922,524 L922,259 C887.474431,323.134953 869.450955,390.13785 889.128321,462.988084 M747,-22 L611,-22 C630.8832,-8.95487665 653.511127,-3.85109117 676.930327,-2.32519262 C702.535418,-0.656464246 726.765673,-5.14370102 747,-22 M530.466435,851.496627 C534.107,848.278032 536.40187,847.745669 538.746304,852.449019 C543.430217,861.841066 550.837739,869.777663 554,880 L554,880 L497,880 C508.179435,870.524924 519.487739,861.19637 530.466435,851.496627 Z M210,814.537521 C272.280814,777.369718 334.752849,748.725406 408.169161,760.801389 C445.56149,766.954058 475.76442,786.25469 501.668609,813.388259 C506.990503,818.960063 505.408587,821.632535 500.633038,826.092472 C453.356836,870.240613 398.35234,886.838858 334.844734,873.533836 C289.175283,863.965788 248.974245,842.857747 210,814.537521 Z M301.058709,479.668965 C303.324232,515.349508 309.883507,550.00071 326.019424,582.296303 C344.995362,620.273071 374.042511,647.538251 415.466358,659.608272 C450.285968,669.755699 445.592565,671.472918 447.99297,636.923166 C448.277721,606.280458 439.920015,579.59923 421.563536,554.84307 C392.726205,515.950783 352.503809,492.590171 308.644588,474.240178 C302.472475,471.656926 300.631582,472.943603 301.058709,479.668965 M780.143949,447.899364 C783.914483,444.649667 789.370724,442.438686 783.235241,435.531224 C759.583264,408.902998 731.672393,389.189652 696.443565,381.599606 C624.528266,366.105426 561.961212,391.962035 499,426.219877 C537.7118,455.786186 577.437503,478.247183 623.430076,488.330147 C682.48689,501.277 734.602551,487.145516 780.143949,447.899364 M475.783773,171.136761 C502.260431,203.651809 536.225911,221.355166 578.201885,222.84828 C598.828906,223.418152 598.702814,223.440548 595.278576,202.681285 C590.145926,171.547367 575.40563,145.918063 551.473045,125.785908 C518.901983,98.3847749 480.02884,85.8326621 439.078901,78.3322522 C431.065935,76.8665118 431.184609,80.370353 433.03889,86.4771897 C442.374576,117.232852 455.391628,146.094748 475.783773,171.136761 M906.864413,-3.00733729 C906.581735,-11.2850282 903.369039,-13.3370608 895.149256,-11.2303735 C871.989328,-5.2879256 851.307134,4.85795962 834.663548,22.4343891 C799.016629,60.071549 789.255637,107.337859 786.04294,156.98413 C785.519372,165.080467 789.867696,163.324066 794.498698,161.296877 C819.484971,150.3585 842.647357,136.463804 862.636375,117.637771 C891.533436,90.4172855 908.2311,57.4779387 907.997583,13.585309 C907.754234,10.1942381 907.090555,3.60090332 906.864413,-3.00733729 M759.390557,613.21375 C732.44962,637.08621 707.999312,663.248861 686.966497,692.489034 C646.685198,748.491022 621.035423,809.33336 625.503688,880 L789.067471,880 C792.366007,867.251681 796.517058,854.656866 798.826777,841.732759 C812.905653,762.846189 796.628579,687.779906 769.538947,614.095165 C766.267671,605.206746 763.036047,609.9852 759.390557,613.21375" id="Combined-Shape"></path>
        </g>
    </g>
</svg>