<svg width="23" height="22" viewBox="0 0 23 22" xmlns="http://www.w3.org/2000/svg" xmlns:xlink="http://www.w3.org/1999/xlink">
    <defs>
        <path id="a" d="M0 0h22.097v20.147H0z"/>
    </defs>
    <g fill="none" fill-rule="evenodd">
        <path d="M0 0h22v22H0z"/>
        <g transform="translate(0 1)">
            <mask id="b" fill="#fff">
                <use xlink:href="#a"/>
            </mask>
            <path d="m18.197 7.38 1.415 3.018h-2.83l1.415-3.018zm-7.149-.231a1.301 1.301 0 0 1 0-2.6 1.301 1.301 0 0 1 0 2.6zm-8.564 3.25L3.9 7.38l1.415 3.018h-2.83zm18.564 0-1.828-3.9h.927v-1.3h-6.591a2.596 2.596 0 0 0-1.208-1.588V1.3l-1.3-1.3-1.3 1.3v2.31c-.59.345-1.03.911-1.207 1.59H1.95v1.299h.927l-1.828 3.9H0l.65 3.899h6.499l.65-3.9h-1.05L4.923 6.5h3.62a2.596 2.596 0 0 0 1.207 1.588v9.46H9.1a1.3 1.3 0 0 0-1.3 1.3v1.3h6.5v-1.3a1.3 1.3 0 0 0-1.3-1.3h-.65v-9.46A2.594 2.594 0 0 0 13.556 6.5h3.62l-1.828 3.9h-1.05l.65 3.899h6.499l.65-3.9h-1.05z" fill="#212424" mask="url(#b)"/>
        </g>
    </g>
</svg>
