<svg width="18" height="20" viewBox="0 0 18 20" xmlns="http://www.w3.org/2000/svg">
    <g fill="none" fill-rule="evenodd">
        <path d="M0 18.125C0 19.16.84 20 1.875 20h13.75c1.035 0 1.875-.84 1.875-1.875V7.5H0v10.625z" fill-opacity=".1" fill="#212424" fill-rule="nonzero"/>
        <g transform="translate(10 9.333)">
            <circle fill-opacity=".35" fill="#212424" cx="2.667" cy="2.667" r="2.667"/>
            <circle fill="#FFF" cx="2.667" cy="2.667" r="1.333"/>
        </g>
        <path d="M15.625 2.5H13.75V.625A.627.627 0 0 0 13.125 0h-1.25a.627.627 0 0 0-.625.625V2.5h-5V.625A.627.627 0 0 0 5.625 0h-1.25a.627.627 0 0 0-.625.625V2.5H1.875C.84 2.5 0 3.34 0 4.375V6.25h17.5V4.375c0-1.035-.84-1.875-1.875-1.875z" fill-opacity=".25" fill="#212424" fill-rule="nonzero"/>
    </g>
</svg>
