<svg width="52" height="55" viewBox="0 0 52 55" xmlns="http://www.w3.org/2000/svg">
    <g fill-rule="nonzero" fill="none">
        <path d="M46.168 0H10.927a.553.553 0 0 0-.554.553v46.5l.147.107h7.49a1 1 0 0 1 1 1v2.312h.95a1 1 0 0 1 1 .999v3.422l.107.107h25.101a.553.553 0 0 0 .553-.553V.553A.553.553 0 0 0 46.168 0z" fill="#FFF3DE"/>
        <g fill="#FFE5C2">
            <path d="m14.002 15.894.1.003V.553c0-.305.247-.553.552-.553h-3.727a.553.553 0 0 0-.554.553v15.341h3.63zM14.002 42.511h-3.629v4.542h3.728v-4.544l-.099.002z"/>
        </g>
        <g fill="#883F2E">
            <path d="M15.022 27.31h5.338v3.785h-5.338zM23.677 27.31h7.531v3.785h-7.531z"/>
        </g>
        <g fill="#6D3326">
            <path d="M15.022 29.27h5.338v1.834h-5.338zM23.677 29.27h7.531v1.834h-7.531z"/>
        </g>
        <path d="M51.663 29.203a2.775 2.775 0 0 1-2.775 2.775H31.732a.63.63 0 0 1-.631-.63v-4.29a.63.63 0 0 1 .63-.63h17.157a2.775 2.775 0 0 1 2.775 2.775z" fill="#CA6E59"/>
        <path d="M34.873 29.603a.63.63 0 0 1-.631-.631v-2.544h-2.51a.63.63 0 0 0-.631.63v4.29c0 .348.282.63.63.63h17.157a2.775 2.775 0 0 0 2.746-2.375H34.873z" fill="#BB5D4C"/>
        <path d="M23.784 26.981v4.444a.553.553 0 0 1-.553.553h-2.425a.553.553 0 0 1-.554-.553V26.98c0-.306.248-.553.554-.553h2.425c.306 0 .553.247.553.553z" fill="#CA6E59"/>
        <path d="M21.857 31.425V26.98c0-.306.247-.553.553-.553h-1.604a.553.553 0 0 0-.554.553v4.444c0 .305.248.553.554.553h1.604a.553.553 0 0 1-.553-.553z" fill="#BB5D4C"/>
        <path d="M14.023 33.637h-6.98a.988.988 0 0 1-.168-.016v3.581c.063-.004.126-.007.19-.007h6.937c.064 0 .127.003.19.007v-3.58a.99.99 0 0 1-.169.015z" fill="#883F2E"/>
        <path d="M7.043 33.637a.988.988 0 0 1-.168-.016v3.581c.063-.004.126-.007.19-.007h2.597v-3.558H7.043z" fill="#6D3326"/>
        <path d="M7.043 24.77h6.98c.058 0 .114.005.169.014v-3.58a2.626 2.626 0 0 1-.19.007H7.064c-.063 0-.126-.003-.189-.007v3.58a1 1 0 0 1 .168-.015z" fill="#883F2E"/>
        <path d="M7.043 24.77h2.619V21.21H7.064c-.063 0-.126-.003-.189-.007v3.58c.055-.009.11-.015.168-.015z" fill="#6D3326"/>
        <path d="M15.13 25.768v6.87c0 .61-.496 1.106-1.107 1.106h-6.98a1.107 1.107 0 0 1-1.106-1.106v-6.87c0-.61.495-1.106 1.106-1.106h6.98c.611 0 1.107.495 1.107 1.106z" fill="#CA6E59"/>
        <path d="M9.675 32.638v-6.87c0-.61.495-1.106 1.106-1.106H7.043c-.61 0-1.106.495-1.106 1.106v6.87c0 .61.495 1.106 1.106 1.106h3.738a1.107 1.107 0 0 1-1.106-1.106z" fill="#BB5D4C"/>
        <path d="M19.117 50.472v-2.313c0-.61-.496-1.106-1.107-1.106H3.056c-.611 0-1.106.495-1.106 1.106v2.313h17.167z" fill="#CA6E59"/>
        <path d="M5.696 50.472a1.134 1.134 0 0 1-.005-.11v-2.203c0-.61.495-1.106 1.106-1.106h-3.74c-.612 0-1.107.495-1.107 1.106v2.313h3.746z" fill="#BB5D4C"/>
        <path d="M21.067 55H.553A.553.553 0 0 1 0 54.447V51.47c0-.611.495-1.107 1.107-1.107H19.96c.611 0 1.107.496 1.107 1.107V55z" fill="#883F2E"/>
        <path d="M3.699 54.447V51.47c0-.611.495-1.107 1.106-1.107H1.107C.495 50.364 0 50.86 0 51.471v2.976c0 .305.248.553.553.553h3.699a.553.553 0 0 1-.553-.553z" fill="#6D3326"/>
        <g>
            <path d="M16.715 39.8a2.712 2.712 0 0 1-2.713 2.711H7.064a2.712 2.712 0 0 1 0-5.424h6.938a2.712 2.712 0 0 1 2.713 2.712z" fill="#CA6E59"/>
            <path d="M8.047 39.8a2.712 2.712 0 0 1 2.712-2.713H7.064a2.712 2.712 0 0 0 0 5.424h3.695A2.712 2.712 0 0 1 8.047 39.8z" fill="#BB5D4C"/>
            <path d="M16.715 18.607a2.712 2.712 0 0 1-2.713 2.712H7.064a2.712 2.712 0 0 1 0-5.425h6.938a2.712 2.712 0 0 1 2.713 2.713z" fill="#CA6E59"/>
            <path d="M8.047 18.607a2.712 2.712 0 0 1 2.712-2.713H7.064a2.712 2.712 0 0 0 0 5.425h3.695a2.712 2.712 0 0 1-2.712-2.712z" fill="#BB5D4C"/>
        </g>
        <g transform="translate(19.976 4.352)">
            <circle fill="#4FC123" cx="8.571" cy="8.571" r="7.765"/>
            <path d="M4.527 8.57a7.767 7.767 0 0 1 5.905-7.538 7.765 7.765 0 1 0 0 15.078 7.767 7.767 0 0 1-5.905-7.54z" fill="#47A920"/>
            <path d="M8.57 17.142C3.846 17.142 0 13.297 0 8.57 0 3.845 3.845 0 8.57 0c4.727 0 8.572 3.845 8.572 8.57 0 4.727-3.845 8.572-8.571 8.572zm0-15.53A6.967 6.967 0 0 0 1.612 8.57a6.967 6.967 0 0 0 6.96 6.96 6.967 6.967 0 0 0 6.96-6.96 6.967 6.967 0 0 0-6.96-6.96z" fill="#68CA44"/>
            <path d="M8.17 11.606a.803.803 0 0 1-.57-.236L5.047 8.817a.806.806 0 1 1 1.139-1.14L8.169 9.66l3.388-3.387a.806.806 0 1 1 1.14 1.14l-3.958 3.956a.802.802 0 0 1-.57.237z" fill="#FFF"/>
        </g>
        <g fill="#F6A96C">
            <path d="M40.562 37H25.298a.806.806 0 1 1 0-1.61h15.264a.806.806 0 1 1 0 1.61zM40.562 41.037h-7.87a.806.806 0 1 1 0-1.611h7.87a.806.806 0 1 1 0 1.611zM29.815 41.037h-4.517a.806.806 0 1 1 0-1.611h4.517a.806.806 0 1 1 0 1.611zM40.562 45.074H25.298a.806.806 0 1 1 0-1.612h15.264a.806.806 0 1 1 0 1.612zM40.562 49.11h-3.996a.806.806 0 1 1 0-1.61h3.996a.806.806 0 1 1 0 1.61zM34.02 49.11h-8.722a.806.806 0 1 1 0-1.61h8.723a.806.806 0 1 1 0 1.61z"/>
        </g>
    </g>
</svg>
