<svg width="55" height="55" viewBox="0 0 55 55" xmlns="http://www.w3.org/2000/svg">
    <g fill-rule="nonzero" fill="none">
        <g transform="translate(2.83)">
            <path d="M10.673 5.272a.806.806 0 0 0-1.426 0L.81 21.302h1.82L9.96 7.378l7.33 13.926h1.82L10.673 5.272z" fill="#E8B800"/>
            <path fill="#FAC600" d="M9.154 3.796h1.611v17.507h-1.61z"/>
            <path d="M40.355 5.272a.806.806 0 0 0-1.426 0l-8.437 16.03h1.821l7.33-13.925 7.328 13.926h1.821L40.355 5.272z" fill="#E8B800"/>
            <path fill="#FAC600" d="M38.837 3.796h1.61v17.507h-1.61z"/>
            <path d="m.049 21.737 2.169 3.756c.064.112.183.18.312.18h14.86a.361.361 0 0 0 .312-.18l2.169-3.756a.361.361 0 0 0-.313-.542H.362c-.278 0-.452.301-.313.542z" fill="#CA6E59"/>
            <path d="m7.32 25.493-2.169-3.756a.361.361 0 0 1 .313-.542H.362a.361.361 0 0 0-.313.542l2.169 3.756c.064.112.183.18.312.18h5.103a.361.361 0 0 1-.313-.18z" fill="#BB5D4C"/>
            <path d="m29.731 21.737 2.169 3.756c.065.112.184.18.313.18h14.859a.361.361 0 0 0 .313-.18l2.168-3.756a.361.361 0 0 0-.313-.542H30.044c-.278 0-.452.301-.313.542z" fill="#CA6E59"/>
            <path d="m37.633 25.493-2.169-3.756a.361.361 0 0 1 .313-.542h-5.733a.361.361 0 0 0-.313.542l2.169 3.756c.065.112.184.18.313.18h5.733a.361.361 0 0 1-.313-.18z" fill="#BB5D4C"/>
            <path d="M23.995 5.978v4.711h1.612V5.978a2.981 2.981 0 0 1-1.612 0z" fill="#883F2E"/>
            <path d="M27.018 31.534V11.135a.553.553 0 0 0-.553-.553h-3.328a.553.553 0 0 0-.553.553v20.4h4.434z" fill="#BB5D4C"/>
            <path d="M24.462 31.534V11.135c0-.305.247-.553.553-.553h-1.878a.553.553 0 0 0-.553.553v20.4h1.878z" fill="#A44F3E"/>
            <g fill="#BB5D4C">
                <path d="M43.58 2.292h-15.9a2.981 2.981 0 0 1 0 1.612h15.9a.806.806 0 0 0 0-1.612zM21.81 3.098c0-.28.04-.55.112-.806H6.023a.806.806 0 0 0 0 1.612h15.899a2.978 2.978 0 0 1-.112-.806z"/>
            </g>
            <circle fill="#883F2E" cx="24.801" cy="3.098" r="3.098"/>
            <path d="M24.47 3.098c0-1.214.698-2.264 1.715-2.772a3.098 3.098 0 1 0 0 5.544 3.097 3.097 0 0 1-1.715-2.772z" fill="#6D3326"/>
        </g>
        <path d="M32.804 36.29v-2.65a2.213 2.213 0 0 0-2.213-2.213h-5.92a2.213 2.213 0 0 0-2.213 2.213v2.65h10.346z" fill="#883F2E"/>
        <path d="M26.192 36.29v-2.65c0-1.222.991-2.213 2.214-2.213H24.67c-1.222 0-2.213.99-2.213 2.213v2.65h3.734z" fill="#6D3326"/>
        <path d="M37.018 40.414V38.08c0-1.047-.849-1.897-1.896-1.897H20.14c-1.047 0-1.896.85-1.896 1.897v2.335h18.774z" fill="#BB5D4C"/>
        <path d="M22.91 40.414V38.08c0-1.047.85-1.897 1.897-1.897H20.14c-1.047 0-1.896.85-1.896 1.897v2.335h4.667z" fill="#A44F3E"/>
        <path d="M8.007 49.685v-5.617a2.852 2.852 0 0 1 2.849-2.848v-.108H6.57a5.764 5.764 0 0 0 0 11.529h4.286v-.108a2.852 2.852 0 0 1-2.849-2.848z" fill="#3675BB"/>
        <path d="M7.9 44.068v5.617a2.956 2.956 0 0 0 2.956 2.956h41.088V41.112H10.856A2.956 2.956 0 0 0 7.9 44.068z" fill="#FFF3DE"/>
        <path d="M13.655 49.873a2.956 2.956 0 0 1-2.956-2.956v-5.616c0-.062.003-.124.007-.185A2.956 2.956 0 0 0 7.9 44.068v5.617a2.956 2.956 0 0 0 2.956 2.955h41.088v-2.767H13.655z" fill="#FFE5C2"/>
        <g fill="#F6A96C">
            <path d="M51.944 44.002h-18.77a.806.806 0 0 0 0 1.611h18.77v-1.611zM51.944 48.14h-18.77a.806.806 0 0 0 0 1.611h18.77V48.14z"/>
        </g>
        <g fill="#2263AA">
            <path d="M6.653 41.918h47.541a.806.806 0 0 0 0-1.611H6.67c-3.606 0-6.614 2.863-6.67 6.467a6.577 6.577 0 0 0 6.57 6.672h5.591v-1.611H6.57a4.964 4.964 0 0 1-4.958-5.054c.052-2.715 2.326-4.863 5.041-4.863z"/>
            <path d="M17.99 51.835v1.611h36.204a.806.806 0 0 0 0-1.611H17.991z"/>
        </g>
        <path d="M12.054 45.506v9.161c0 .268.3.426.52.273l2.502-1.73 2.501 1.73c.22.153.52-.005.52-.273v-9.161h-6.043z" fill="#FB2B3A"/>
        <path d="M12.054 45.506v9.161c0 .268.3.426.52.273l2.262-1.565v-7.87h-2.782z" fill="#E41F2D"/>
        <path d="M25.931 45.613H10.856a.806.806 0 0 1 0-1.611h15.075a.806.806 0 0 1 0 1.611z" fill="#F6A96C"/>
    </g>
</svg>
