<?xml version="1.0" encoding="UTF-8"?>
<svg width="18px" height="20px" viewBox="0 0 18 20" version="1.1" xmlns="http://www.w3.org/2000/svg" xmlns:xlink="http://www.w3.org/1999/xlink">
    <title>copy-content@2x</title>
    <g id="Last-Update" stroke="none" stroke-width="1" fill="none" fill-rule="evenodd">
        <g id="New---2" transform="translate(-328.000000, -352.000000)" fill="#FFFFFF" fill-rule="nonzero">
            <g id="Group-4" transform="translate(16.000000, 45.000000)">
                <g id="Next-Copy-5" transform="translate(0.000000, 264.000000)">
                    <g id="Group-6" transform="translate(0.000000, 32.000000)">
                        <g id="copy-content" transform="translate(312.000000, 11.000000)">
                            <path d="M12.7272727,0 L1.81818182,0 C0.818181818,0 0,0.818181818 0,1.81818182 L0,14.5454545 L1.81818182,14.5454545 L1.81818182,1.81818182 L12.7272727,1.81818182 L12.7272727,0 Z M15.4545455,3.63636364 L5.45454545,3.63636364 C4.45454545,3.63636364 3.63636364,4.45454545 3.63636364,5.45454545 L3.63636364,18.1818182 C3.63636364,19.1818182 4.45454545,20 5.45454545,20 L15.4545455,20 C16.4545455,20 17.2727273,19.1818182 17.2727273,18.1818182 L17.2727273,5.45454545 C17.2727273,4.45454545 16.4545455,3.63636364 15.4545455,3.63636364 Z M15.4545455,18.1818182 L5.45454545,18.1818182 L5.45454545,5.45454545 L15.4545455,5.45454545 L15.4545455,18.1818182 Z" id="Shape"></path>
                        </g>
                    </g>
                </g>
            </g>
        </g>
    </g>
</svg>