<svg width="21" height="17" viewBox="0 0 21 17" xmlns="http://www.w3.org/2000/svg">
    <path d="M18.386 16.012A2.616 2.616 0 0 0 21 13.398V2.614A2.616 2.616 0 0 0 18.386 0H2.614A2.616 2.616 0 0 0 0 2.614v10.78a2.616 2.616 0 0 0 2.614 2.614h15.772v.004zM2.674 3.64a.64.64 0 0 1-.073-.906.64.64 0 0 1 .906-.073L10.5 8.594l6.997-5.937a.64.64 0 0 1 .906.073.64.64 0 0 1-.073.906l-4.993 4.241 5.019 4.722a.644.644 0 0 1-.885.936l-5.12-4.816-1.43 1.214a.643.643 0 0 1-.833 0L8.654 8.72l-5.121 4.82a.64.64 0 0 1-.91-.026.644.644 0 0 1 .026-.91l5.018-4.726L2.674 3.64z" fill="#212424" fill-rule="nonzero" fill-opacity=".7"/>
</svg>
