<?xml version="1.0" encoding="UTF-8"?>
<svg width="375px" height="375px" viewBox="0 0 375 375" version="1.1" xmlns="http://www.w3.org/2000/svg" xmlns:xlink="http://www.w3.org/1999/xlink">
    <title>Asset 1@2x</title>
    <defs>
        <linearGradient x1="50%" y1="90.0642899%" x2="50%" y2="-9.93388369%" id="linearGradient-1">
            <stop stop-color="#FEFEFD" offset="0%"></stop>
            <stop stop-color="#EBF3FF" offset="100%"></stop>
        </linearGradient>
        <linearGradient x1="49.9990819%" y1="95.0580086%" x2="49.9990819%" y2="14.9751583%" id="linearGradient-2">
            <stop stop-color="#FEFEFD" offset="0%"></stop>
            <stop stop-color="#EBF3FF" offset="84%"></stop>
        </linearGradient>
        <path d="M263.469828,341.282054 L269.853156,341.282054 L269.853156,280.126753 L272.962632,280.126753 L272.962632,304.290254 L277.756977,304.290254 L277.756977,280.126753 L280.859603,280.126753 L280.859603,307.392881 L272.948933,307.392881 L272.948933,341.302601 L279.325413,341.302601 C280.184071,341.302601 280.88015,341.998681 280.88015,342.857339 C280.88015,343.715996 280.184071,344.412076 279.325413,344.412076 L263.469828,344.412076 C262.61117,344.412076 261.91509,343.715996 261.91509,342.857339 C261.91509,341.998681 262.61117,341.302601 263.469828,341.302601 L263.469828,341.282054 Z" id="path-3"></path>
        <linearGradient x1="25.2805531%" y1="76.5094324%" x2="8.96219844%" y2="93.8108837%" id="linearGradient-4">
            <stop stop-color="#14336D" offset="0%"></stop>
            <stop stop-color="#0E2253" offset="97%"></stop>
        </linearGradient>
        <linearGradient x1="17.9668675%" y1="62.9271288%" x2="43.5843373%" y2="46.8452523%" id="linearGradient-5">
            <stop stop-color="#14336D" offset="0%"></stop>
            <stop stop-color="#0E2253" offset="97%"></stop>
        </linearGradient>
        <linearGradient x1="38.6938442%" y1="47.5009996%" x2="92.2276602%" y2="69.1423431%" id="linearGradient-6">
            <stop stop-color="#14336D" offset="0%"></stop>
            <stop stop-color="#0E2253" offset="97%"></stop>
        </linearGradient>
        <linearGradient x1="36.2395102%" y1="15.2557061%" x2="57.9150025%" y2="75.0866336%" id="linearGradient-7">
            <stop stop-color="#3162DF" offset="0%"></stop>
            <stop stop-color="#173DB8" offset="96%"></stop>
        </linearGradient>
        <linearGradient x1="-2891.65076%" y1="53.6059774%" x2="-2934.50588%" y2="132.321595%" id="linearGradient-8">
            <stop stop-color="#3162DF" offset="0%"></stop>
            <stop stop-color="#173DB8" offset="96%"></stop>
        </linearGradient>
        <linearGradient x1="39.3744776%" y1="44.1954864%" x2="50.6251799%" y2="57.2844844%" id="linearGradient-9">
            <stop stop-color="#14336D" offset="0%"></stop>
            <stop stop-color="#0E2253" offset="97%"></stop>
        </linearGradient>
    </defs>
    <g id="Last-Update" stroke="none" stroke-width="1" fill="none" fill-rule="evenodd">
        <g id="New---7" transform="translate(0.000000, -83.000000)" fill-rule="nonzero">
            <g id="Asset-1" transform="translate(0.000000, 83.000000)">
                <circle id="Oval" fill="url(#linearGradient-1)" cx="187.5" cy="187.5" r="187.5"></circle>
                <path d="M373.493206,211.341595 C352.829577,202.314527 325.933299,197.992767 309.111996,204.287058 C293.359147,210.197801 295.879603,221.9234 279.702111,226.765689 C253.593476,234.587321 235.505096,207.499269 196.6572,208.780045 C162.089969,209.923838 150.083559,232.238092 123.99547,226.765689 C107.708394,223.341156 104.619466,213.067559 93.0308482,205.787003 C73.6137493,193.609366 36.3000438,193.739498 0.472585476,200.677601 C3.61980216,246.143388 23.2742704,288.891674 55.7376899,320.878689 C91.1473553,327.433244 129.707591,330.926268 167.261013,329.535907 C233.299697,327.083942 300.132872,309.392808 345.596964,288.331933 C360.490798,265.055111 370.019723,238.756402 373.493206,211.341595 Z" id="Path" fill="url(#linearGradient-2)"></path>
                <path d="M303.762876,344.507963 C303.762876,345.727097 258.846709,346.706513 203.451472,346.706513 C148.056235,346.706513 103.140068,345.754493 103.140068,344.507963 C103.140068,343.261433 148.049386,342.309413 203.451472,342.309413 C258.853558,342.309413 303.762876,343.316226 303.762876,344.507963 Z" id="Path" fill="#D0DFF3"></path>
                <path d="M291.619484,106.619393 L246.285524,106.619393 C240.357027,106.619394 235.549971,101.815404 235.546188,95.8869082 L235.546188,95.8869082 C235.544372,93.0381027 236.67525,90.3054544 238.68966,88.2910443 C240.70407,86.2766342 243.436718,85.1457559 246.285524,85.1475723 L291.619484,85.1475723 C294.46829,85.1457559 297.200938,86.2766342 299.215348,88.2910443 C301.229758,90.3054544 302.360637,93.0381027 302.35882,95.8869082 L302.35882,95.8869082 C302.360637,98.7357138 301.229758,101.468362 299.215348,103.482772 C297.200938,105.497182 294.46829,106.628061 291.619484,106.626244 L291.619484,106.619393 Z" id="Path" fill="#D8E2F4"></path>
                <circle id="Oval" fill="#D8E2F4" transform="translate(265.031104, 88.605485) rotate(-76.600000) translate(-265.031104, -88.605485) " cx="265.031104" cy="88.6054855" r="16.2665291"></circle>
                <path d="M99.1607613,80.6203426 L32.6289451,80.6203426 C23.9288867,80.6203426 16.8760959,73.5675518 16.8760959,64.8674934 L16.8760959,64.8674934 C16.8760959,56.167435 23.9288867,49.1146442 32.6289451,49.1146442 L99.1607613,49.1146442 C107.86082,49.1146442 114.91361,56.167435 114.91361,64.8674934 L114.91361,64.8674934 C114.91361,73.5675518 107.86082,80.6203426 99.1607613,80.6203426 L99.1607613,80.6203426 Z" id="Path" fill="#FFFFFF"></path>
                <circle id="Oval" fill="#FFFFFF" cx="60.1621859" cy="54.1966504" r="23.8758402"></circle>
                <rect id="Rectangle" fill="#FFFFFF" x="122.105129" y="110.550756" width="116.112197" height="233.875018" rx="28.41"></rect>
                <path d="M218.765981,346.473645 L141.563322,346.473645 C129.686763,346.462318 120.061736,336.837291 120.050409,324.960732 L120.050409,130.0021 C120.06551,118.128217 129.689434,108.507357 141.563322,108.496037 L218.765981,108.496037 C230.639869,108.507357 240.263793,118.128217 240.278894,130.0021 L240.278894,324.960732 C240.267567,336.837291 230.64254,346.462318 218.765981,346.473645 L218.765981,346.473645 Z M141.563322,112.605476 C131.95745,112.613024 124.171177,120.396233 124.159848,130.0021 L124.159848,324.960732 C124.17117,334.567711 131.956342,342.352884 141.563322,342.364206 L218.765981,342.364206 C228.372961,342.352884 236.158133,334.567711 236.169455,324.960732 L236.169455,130.0021 C236.158126,120.396233 228.371853,112.613024 218.765981,112.605476 L141.563322,112.605476 Z" id="Shape" fill="#E0E9F3"></path>
                <path d="M217.800263,333.864516 L142.522191,333.864516 C141.387401,333.864516 140.467472,332.944587 140.467472,331.809797 C140.467472,330.675007 141.387401,329.755077 142.522191,329.755077 L217.800263,329.755077 C218.935053,329.755077 219.854982,330.675007 219.854982,331.809797 C219.854982,332.944587 218.935053,333.864516 217.800263,333.864516 L217.800263,333.864516 Z" id="Path" fill="#E0E9F3"></path>
                <path d="M142.2688,126.392643 C142.2688,127.933491 141.340221,129.322486 139.916398,129.911501 C138.492575,130.500516 136.854116,130.173455 135.765554,129.082931 C134.676991,127.992408 134.352881,126.353362 134.944458,124.930602 C135.536035,123.507842 136.9267,122.581792 138.467545,122.584557 C139.477441,122.582734 140.446402,122.983573 141.159865,123.698322 C141.873329,124.41307 142.272423,125.382751 142.2688,126.392643 Z" id="Path" fill="#E0E9F3"></path>
                <path d="M162.213252,193.917574 C166.729069,189.118662 172.92519,186.716924 180.801615,186.712358 C188.107284,186.712358 193.942687,188.767077 198.307824,192.876516 C202.672962,196.985955 204.864662,202.236905 204.882927,208.629365 C204.882927,212.505936 204.086152,215.649657 202.492603,218.060527 C200.899054,220.471398 197.643465,224.014648 192.725836,228.690276 C189.146059,232.087412 186.815094,234.96402 185.732941,237.320098 C184.650789,239.676176 184.109713,243.157784 184.109713,247.764922 L174.356645,247.764922 C174.356645,242.541368 174.977626,238.329193 176.21959,235.128397 C177.461554,231.927601 180.22401,228.274766 184.506959,224.169893 L188.979398,219.841284 C190.237637,218.696622 191.336458,217.388172 192.246402,215.951015 C193.708849,213.747193 194.496705,211.164644 194.513442,208.51978 C194.577762,205.122208 193.415467,201.815261 191.239589,199.205052 C189.061587,196.575011 185.45213,195.259991 180.411218,195.259991 C174.187701,195.259991 169.879639,197.524748 167.487032,202.054263 C166.144616,204.574719 165.379803,208.211572 165.192596,212.964823 L155.473773,212.964823 C155.473773,205.070134 157.720266,198.721051 162.213252,193.917574 Z M174.137474,256.839933 L185.041186,256.839933 L185.041186,268.236777 L174.137474,268.236777 L174.137474,256.839933 Z" id="Shape" fill="#CE3529"></path>
                <path d="M117.119009,344.507963 C117.119009,345.727097 110.468567,346.706513 102.256539,346.706513 C94.0445098,346.706513 87.4009169,345.727097 87.4009169,344.507963 C87.4009169,343.28883 94.0513589,342.309413 102.256539,342.309413 C110.461718,342.309413 117.119009,343.316226 117.119009,344.507963 Z" id="Path" fill="#D0DFF3"></path>
                <path d="M82.1887785,278.195317 C81.6750986,280.791113 84.7914231,281.311642 85.3119521,284.955344 C85.832481,288.599047 84.2708942,289.633255 84.7914231,291.715371 C85.3119521,293.797487 88.4351257,294.318016 88.9556546,299.516456 C89.4761835,304.714896 87.3940678,304.194367 87.9145967,307.317541 C88.4351257,310.440714 91.5514502,310.433865 92.0719791,313.03651 C92.592508,315.639155 92.592508,319.276008 93.6335659,322.399182 C94.6746238,325.522355 97.7909483,330.200267 99.3525351,330.200267 C100.914122,330.200267 105.071504,321.358124 104.037295,318.755479 C103.003087,316.152835 101.434651,315.639155 101.434651,313.557039 C101.434651,311.474923 103.48937,306.276483 102.996238,302.632781 C102.503105,298.989078 97.7909483,297.43434 97.2704193,294.831696 C96.7498904,292.229051 98.3114772,285.475873 94.6746238,282.352699 C91.0377703,279.229526 82.6750621,275.592672 82.1887785,278.195317 Z" id="Path" fill="#3FB790"></path>
                <path d="M99.0785725,329.303132 C99.0101838,329.304888 98.943953,329.279008 98.8949366,329.231281 C98.8459202,329.183555 98.818283,329.118037 98.818308,329.049624 C98.818308,328.981133 98.7772136,322.200559 96.7978339,320.241726 C94.8184541,318.282894 93.640415,312.08449 93.0787916,300.310948 C92.5719608,289.605859 84.9010082,280.791113 84.8256685,280.702075 C84.7767155,280.654375 84.7491062,280.588924 84.7491062,280.520575 C84.7491062,280.452225 84.7767155,280.386774 84.8256685,280.339074 C84.9290157,280.239923 85.0921707,280.239923 85.195518,280.339074 C85.2708577,280.428112 93.0582444,289.372991 93.5787734,300.263004 C94.1266986,311.742037 95.2567943,317.967837 97.1402871,319.85133 C99.2771954,321.981389 99.3182897,328.755114 99.3182897,329.022227 C99.3182897,329.165968 99.2017654,329.282492 99.0580253,329.282492 L99.0785725,329.303132 Z" id="Path" fill="#34916F"></path>
                <path d="M129.762383,286.064893 C131.597932,287.900442 125.598152,288.660688 125.077623,292.304391 C124.557094,295.948093 124.557094,297.502831 122.481827,299.584947 C120.40656,301.667062 117.276538,302.187591 117.797067,305.303916 C118.317596,308.42024 119.358654,311.543414 117.797067,313.105001 C116.23548,314.666588 112.598627,314.666588 111.557569,317.269232 C110.516511,319.871877 111.03704,322.988201 108.961773,325.590846 C106.886506,328.193491 103.756484,333.385082 101.160688,332.350873 C98.5648926,331.316664 100.11963,319.33765 101.160688,317.28293 C102.201746,315.228211 103.215408,313.639228 103.215408,312.077641 C103.215408,310.516054 102.694879,307.920259 103.735937,305.317614 C104.776994,302.714969 110.495964,301.680761 111.016493,300.119174 C111.537021,298.557587 112.05755,290.235973 115.180724,288.160706 C118.303898,286.08544 126.63921,282.941719 129.762383,286.064893 Z" id="Path" fill="#4FC7A0"></path>
                <path d="M101.962029,331.453646 C101.916227,331.455502 101.870959,331.443372 101.831897,331.4194 C101.709285,331.345399 101.669496,331.186243 101.742859,331.063249 C101.742859,331.029004 103.845522,327.542829 104.283862,325.78262 C104.400296,325.330582 104.537277,324.645675 104.694806,323.851184 C105.270127,320.960878 106.139958,316.598024 107.475526,315.262456 C109.413811,313.324171 112.516438,307.379182 114.687591,299.77672 C117.365576,290.400351 126.214568,287.660725 126.331002,287.633328 C126.470789,287.593316 126.616904,287.672462 126.659757,287.811404 C126.699394,287.949461 126.619697,288.093529 126.481681,288.13331 C126.392643,288.13331 117.810765,290.824993 115.214969,299.913702 C113.016419,307.605202 109.859001,313.611832 107.872772,315.632306 C106.646789,316.858288 105.76326,321.296482 105.229033,323.953919 C105.071504,324.75526 104.934523,325.447016 104.818089,325.912752 C104.359201,327.748301 102.304482,331.186532 102.215444,331.330362 C102.162452,331.417591 102.063366,331.465795 101.962029,331.453646 L101.962029,331.453646 Z" id="Path" fill="#3FB690"></path>
                <path d="M101.297669,292.01673 C95.0581714,292.537259 97.1402871,311.262602 97.1402871,311.262602 C98.7018739,327.378452 100.78399,334.665857 102.338727,335.179537 C103.893465,335.693217 107.023488,312.30366 107.023488,306.577842 C107.023488,306.577842 107.530319,291.496201 101.297669,292.01673 Z" id="Path" fill="#90DAD8"></path>
                <path d="M102.051067,332.583741 L102.051067,332.583741 C101.981779,332.575234 101.918814,332.53925 101.876314,332.483871 C101.833814,332.428492 101.815342,332.358361 101.825047,332.289231 C103.879767,315.358343 101.331915,294.085148 101.304519,293.872827 C101.282307,293.776513 101.316569,293.675929 101.392957,293.613201 C101.469344,293.550474 101.574672,293.53643 101.664826,293.576952 C101.75498,293.617474 101.814399,293.705567 101.818198,293.804336 C101.818198,294.023506 104.400296,315.358343 102.338727,332.350873 C102.331832,332.420057 102.297543,332.483605 102.243504,332.527351 C102.189465,332.571097 102.120169,332.591403 102.051067,332.583741 L102.051067,332.583741 Z" id="Path" fill="#FFFFFF"></path>
                <path d="M109.831604,344.418925 L94.0102645,344.418925 C93.528526,344.459421 93.0892998,344.142364 92.9760557,343.672377 L90.6747699,327.234622 C90.6360196,326.888201 90.7457329,326.541568 90.9767498,326.280531 C91.2077668,326.019495 91.5384925,325.868458 91.8870544,325.864809 L111.947965,325.864809 C112.297725,325.866529 112.630292,326.016733 112.862824,326.278005 C113.095357,326.539278 113.205966,326.887024 113.167099,327.234622 L110.865813,343.672377 C110.747555,344.138978 110.311708,344.453596 109.831604,344.418925 Z" id="Path" fill="#D0DAED"></path>
                <g id="Path">
                    <use fill="#CE3529" xlink:href="#path-3"></use>
                    <use fill-opacity="0.2" fill="#000000" xlink:href="#path-3"></use>
                </g>
                <path d="M274.969408,266.832718 C288.510009,266.832718 299.48906,269.38742 299.48906,272.53114 L299.48906,275.61322 C299.48906,278.763789 288.530556,281.311642 274.969408,281.311642 C261.408259,281.311642 250.449755,278.763789 250.449755,275.61322 L250.449755,272.53114 C250.449755,269.38742 261.428806,266.832718 274.969408,266.832718 Z" id="Path" fill="#CE3529"></path>
                <circle id="Oval" fill="#FFFFFF" opacity="0.1" transform="translate(229.199625, 183.766392) rotate(-62.150000) translate(-229.199625, -183.766392) " cx="229.199625" cy="183.766392" r="16.156944"></circle>
                <path d="M239.361119,178.808537 C238.7605,178.808238 238.23013,178.416708 238.052948,177.842819 C237.482578,176.017533 236.209989,174.49386 234.515513,173.607439 C232.821037,172.721019 230.843684,172.544571 229.019031,173.116964 C228.296548,173.34203 227.528407,172.938795 227.303341,172.216312 C227.078274,171.493829 227.481509,170.725688 228.203993,170.500621 C233.448134,168.866187 239.025405,171.786594 240.669291,177.02778 C240.800227,177.444131 240.724918,177.897958 240.466521,178.249702 C240.208124,178.601447 239.797574,178.809 239.361119,178.808537 L239.361119,178.808537 Z" id="Path" fill="#C0DAF0" opacity="0.747501192"></path>
                <path d="M223.430194,165.295332 C213.234954,168.48114 207.55223,179.32817 210.737014,189.52373 C213.921798,199.71929 224.768256,205.403104 234.964137,202.219345 C245.160017,199.035586 250.844921,188.189698 247.662186,177.993498 C246.133373,173.095798 242.721217,169.006213 238.176627,166.624735 C233.632037,164.243257 228.327433,163.765043 223.430194,165.295332 Z M234.018849,199.184505 C225.502342,201.844978 216.441479,197.098431 213.779864,188.582281 C211.118248,180.066131 215.86358,171.004632 224.379373,168.341874 C232.895166,165.679117 241.957302,170.423234 244.621201,178.938669 C247.282033,187.456968 242.535962,196.51988 234.018849,199.184505 Z" id="Shape" fill="#D0DAED"></path>
                <polygon id="Rectangle" fill="#D0DAED" transform="translate(237.065278, 208.925811) rotate(-17.350000) translate(-237.065278, -208.925811) " points="235.383833 201.261708 238.746724 201.261708 238.746724 216.589915 235.383833 216.589915"></polygon>
                <path d="M247.55945,242.525387 L247.55945,242.525387 C246.574023,242.835882 245.505489,242.740893 244.590285,242.261439 C243.675081,241.781986 242.988663,240.957596 242.682916,239.970686 L235.655775,217.471508 C235.491621,216.947459 235.544076,216.379505 235.801434,215.894386 C236.058791,215.409266 236.499634,215.047355 237.025588,214.88941 L240.511762,213.800409 C241.035811,213.636255 241.603765,213.68871 242.088884,213.946068 C242.574004,214.203425 242.935915,214.644268 243.09386,215.170222 L250.107302,237.662551 C250.741621,239.708508 249.60267,241.88231 247.55945,242.525387 Z" id="Path" fill="#CE3529"></path>
                <path d="M248.915565,232.642187 C248.915565,232.642187 241.676103,228.176596 239.491251,225.868461 C237.3064,223.560327 236.381776,222.51242 236.943399,222.019287 C237.505023,221.526154 243.614389,224.224686 244.210257,223.772648 C244.806126,223.320609 244.278748,222.190514 244.943107,221.676834 C245.607466,221.163154 249.552528,225.231498 250.49085,224.92329 C251.429172,224.615083 249.990868,231.923035 248.915565,232.642187 Z" id="Path" fill="#FFAA9D"></path>
                <polygon id="Path" fill="#FFAA9D" points="220.039907 315.782985 214.731882 320.919784 201.280319 308.475033 205.704814 301.276666"></polygon>
                <path d="M215.505826,320.166387 C215.505826,320.166387 211.807331,324.803204 211.108727,324.81691 C210.410122,324.8306 194.883292,308.022995 194.986028,307.481918 C195.088764,306.940842 201.835093,307.523013 201.835093,307.523013 L215.505826,320.166387 Z" id="Path" fill="url(#linearGradient-4)"></path>
                <path d="M204.882927,300.523269 C204.882927,300.523269 220.430304,316.7761 221.026173,316.7761 C221.622041,316.7761 295.838508,259.805578 295.838508,259.805578 L264.373904,245.881429 C264.373904,245.881429 224.437007,256.839933 204.882927,300.523269 Z" id="Path" fill="url(#linearGradient-5)"></path>
                <polygon id="Path" fill="#FFAA9D" points="275.325559 305.392954 277.9556 312.296811 261.216485 319.762292 256.339951 312.858434"></polygon>
                <path d="M261.935637,245.881429 C261.935637,245.881429 235.669473,251.360681 233.395584,260.264465 C231.121694,269.16825 233.190112,278.873374 240.422724,290.249671 C247.655337,301.625968 255.024931,313.995379 256.538574,314.399474 C256.538574,314.399474 275.989918,306.605238 276.400862,305.632671 C276.811806,304.660104 265.510849,277.893958 265.510849,277.893958 C265.510849,277.893958 288.599047,276.359768 293.982412,262.750676 L261.935637,245.881429 Z" id="Path" fill="url(#linearGradient-6)"></path>
                <path d="M260.093239,245.771844 C259.86037,247.319733 288.544254,265.28483 293.619411,264.421848 C298.694568,263.558865 305.262821,242.593878 303.447819,226.943765 C301.632817,211.293651 287.61963,199.547505 281.222604,200.102279 C274.825577,200.657054 271.414743,206.643136 270.544912,216.177035 C269.264136,230.12858 260.360352,244.04588 260.093239,245.771844 Z" id="Path" fill="url(#linearGradient-7)"></path>
                <path d="M284.092362,202.506301 C287.4758,202.21864 299.105512,209.040309 301.83144,229.169711 C304.557368,249.299112 293.434486,250.990831 284.092362,249.716905 C274.750237,248.442979 251.216851,236.881758 247.792318,232.758621 C247.792318,232.758621 247.04577,226.272556 249.545679,223.97812 C249.545679,223.97812 272.222932,226.286254 278.113128,228.053313 C284.003324,229.820372 271.270912,203.622699 284.092362,202.506301 Z" id="Path" fill="url(#linearGradient-8)"></path>
                <path d="M277.565203,311.283149 C277.565203,311.283149 280.37332,316.515835 280.106206,317.159647 C279.839093,317.803459 258.278236,325.467563 257.826198,325.159355 C257.37416,324.851147 260.565824,318.851366 260.565824,318.851366 L277.565203,311.283149 Z" id="Path" fill="url(#linearGradient-9)"></path>
                <path d="M265.093056,189.431436 L264.99032,196.629803 L266.065623,196.629803 C266.065623,196.629803 266.921756,202.581641 271.127082,201.643319 C272.339367,201.369356 273.866708,200.348846 274.318746,200.554318 C274.770785,200.75979 275.078993,202.424112 275.195427,202.896698 C275.654314,204.698002 281.962303,202.896698 280.941792,201.033752 C279.921281,199.170807 278.524072,196.883219 278.825431,196.239407 C279.893885,193.917574 280.195244,188.15751 274.400935,186.232923 C269.784665,184.64394 265.147848,186.979471 265.093056,189.431436 Z" id="Path" fill="#FFAA9D"></path>
                <path d="M280.941792,200.999507 C279.969225,199.246146 278.524072,196.848974 278.825431,196.205161 C278.825431,196.205161 276.394013,199.9516 274.14752,200.513223 L274.14752,200.513223 C274.208239,200.498141 274.271725,200.498141 274.332444,200.513223 C274.859822,200.752941 275.092691,202.383018 275.209125,202.855603 C275.654314,204.663757 281.962303,202.841905 280.941792,200.999507 Z" id="Path" fill="#FF9F91"></path>
                <path d="M274.825577,192.965554 C277.565203,192.499817 275.852937,198.533844 278.839129,198.335221 C281.825321,198.136598 283.907437,191.609439 281.715736,186.575376 C279.524036,181.541314 275.352955,181.822125 271.380498,182.507032 C267.40804,183.191938 262.545204,184.993242 262.545204,187.986284 C262.545204,195.212047 271.106535,189.150625 271.668158,191.321778 C272.106498,193.006648 272.777707,197.862635 271.038044,197.979069 C269.298382,198.095503 267.524474,196.650351 266.147812,197.0202 C265.35332,197.232521 263.175318,206.711627 268.887438,207.026684 C274.599558,207.341741 275.948824,202.362471 274.763936,198.300975 C273.620142,194.444952 273.503708,193.191573 274.825577,192.965554 Z" id="Path" fill="#14336A"></path>
            </g>
        </g>
    </g>
</svg>