<svg width="15" height="20" viewBox="0 0 15 20" xmlns="http://www.w3.org/2000/svg">
    <path d="M14.446 3.827 11.17.551A1.875 1.875 0 0 0 9.846 0H1.875A1.881 1.881 0 0 0 0 1.879v16.246C0 19.16.84 20 1.875 20h11.247c1.035 0 1.875-.84 1.875-1.875V5.155c0-.496-.2-.976-.55-1.328zM12.97 5.003H9.998V2.03l2.972 2.972zM1.875 18.125V1.88h6.248V5.94c0 .52.418.938.938.938h4.061v11.247H1.875zm1.25-1.874h8.748v-5l-.918-.917a.47.47 0 0 0-.664 0L6.874 13.75 5.33 12.21a.47.47 0 0 0-.664 0L3.124 13.75v2.5zm1.874-9.373A1.875 1.875 0 1 0 5 10.628a1.875 1.875 0 0 0-.001-3.75z" fill="#212424" fill-rule="nonzero" fill-opacity=".4"/>
</svg>
