<svg width="21" height="19" viewBox="0 0 21 19" xmlns="http://www.w3.org/2000/svg" xmlns:xlink="http://www.w3.org/1999/xlink">
    <defs>
        <path d="M13.78 0c.256 0 .478.146.586.36l.002.003 1.13 2.263h2.22c.33 0 .603.243.65.56l.007.096v1.969h.656c.33 0 .603.243.65.56l.006.096v3.281h.657c.33 0 .602.243.649.56l.007.097v3.937a.656.656 0 0 1-.656.657l-.657-.001v3.282a.656.656 0 0 1-.656.656H1.97a1.969 1.969 0 0 1-1.964-1.822L0 16.407V4.595a1.97 1.97 0 0 1 1.969-1.969h3.78L10.864.069a.656.656 0 0 1 .879.29l.232.466 1.512-.756A.647.647 0 0 1 13.781 0zM1.313 6.447v9.96c0 .33.243.603.56.65l.097.007h16.406v-2.626H15.75a2.625 2.625 0 0 1-.166-5.244l.166-.005 2.625-.001V6.563H1.969a2.044 2.044 0 0 1-.657-.116zm18.375 4.054H15.75a1.313 1.313 0 0 0-.134 2.618l.134.007h3.938v-2.625zm-2.625-6.562-.908-.001.657 1.313h.251V3.939zm-6.2-2.401L3.434 5.251h9.284l-1.856-3.713zm2.625 0-.925.461 1.626 3.252h1.155l-1.856-3.713zm-10.362 2.4H1.969a.656.656 0 0 0-.615.886l1.771-.886z" id="a"/>
    </defs>
    <g fill="none" fill-rule="evenodd">
        <use fill="#FFF" xlink:href="#a"/>
        <use fill-opacity=".6" fill="#212424" xlink:href="#a"/>
    </g>
</svg>
