<svg width="21" height="21" viewBox="0 0 21 21" xmlns="http://www.w3.org/2000/svg" xmlns:xlink="http://www.w3.org/1999/xlink">
    <defs>
        <path d="M10.5 0C4.76 0 0 4.76 0 10.5S4.76 21 10.5 21 21 16.24 21 10.5 16.24 0 10.5 0zM1.4 11.2h2.8c0 1.54.28 2.94.7 4.2H2.8c-.7-1.26-1.26-2.66-1.4-4.2zm9.8-7V1.54c.98.28 1.96 1.26 2.8 2.66h-2.8zm3.36 1.4c.42 1.26.7 2.66.84 4.2h-4.2V5.6h3.36zM9.8 1.54V4.2H7c.84-1.4 1.82-2.38 2.8-2.66zm0 4.06v4.2H5.6c0-1.54.28-2.94.84-4.2H9.8zM4.2 9.8H1.4c.14-1.54.56-2.94 1.4-4.2h2.1c-.42 1.26-.56 2.66-.7 4.2zm1.4 1.4h4.2v4.2H6.44c-.42-1.26-.7-2.66-.84-4.2zm4.2 5.6v2.66c-.98-.28-1.96-1.26-2.8-2.66h2.8zm1.4 2.66V16.8H14c-.84 1.4-1.82 2.38-2.8 2.66zm0-4.06v-4.2h4.2c0 1.54-.28 2.94-.84 4.2H11.2zm5.6-4.2h2.8c-.14 1.54-.56 2.94-1.4 4.2h-2.1c.42-1.26.56-2.66.7-4.2zm0-1.4c0-1.54-.28-2.94-.7-4.2h2.1c.84 1.26 1.26 2.66 1.4 4.2h-2.8zm.28-5.6h-1.54c-.28-.7-.7-1.4-1.12-1.96.98.56 1.82 1.12 2.66 1.96zM6.58 2.24c-.42.56-.84 1.26-1.12 1.96H3.92c.84-.84 1.68-1.4 2.66-1.96zM3.92 16.8h1.54c.28.7.7 1.4 1.12 1.96-.98-.56-1.82-1.12-2.66-1.96zm10.5 1.96c.42-.56.84-1.12 1.12-1.96h1.54c-.84.84-1.68 1.4-2.66 1.96z" id="a"/>
    </defs>
    <g fill="none" fill-rule="evenodd">
        <use fill="#FFF" xlink:href="#a"/>
        <use fill-opacity=".6" fill="#212424" xlink:href="#a"/>
    </g>
</svg>
