<svg width="375" height="284" viewBox="0 0 375 284" xmlns="http://www.w3.org/2000/svg">
    <defs>
        <linearGradient x1="26.792%" y1="81.136%" x2="76.017%" y2="13.437%" id="a">
            <stop stop-color="#BD905B" offset="0%"/>
            <stop stop-color="#D4AC8C" offset="100%"/>
        </linearGradient>
    </defs>
    <path d="M185.209 190.33c.057-.212.244-.39.501-.31 5.147 1.604 10.032 4.768 14.703 8.283.05-.017.1-.035.162-.038 25.577-1.044 51.416-.414 77.016-.253a.89.89 0 0 1 .88.622c.16.135.271.335.284.603.667 13.988 2.661 27.35 5.234 41.096.071.382-.207.632-.5.664a.77.77 0 0 1-.648.311h-.27a.962.962 0 0 1 .07.384c-.457 21.866-.264 43.84-1.276 65.684a.51.51 0 0 1-.502.508.742.742 0 0 1-.516.237c-13.384.784-27.057.318-40.432-.542-.06.745-.16 1.472-.33 2.168a.413.413 0 0 1-.18.253c.055.466-.212.975-.82.978-16.515.095-33.031-.145-49.544-.228-17.439-.086-35.065.527-52.478-.349a.37.37 0 0 1-.33-.222c-.374.155-.906-.029-.917-.558-.01-.565-.034-1.139-.056-1.71-13.317.35-26.925 1.054-40.204-.016-.385-.03-.505-.372-.413-.644a.497.497 0 0 1-.184-.376c-1.204-22.132.333-44.547.17-66.716a490.956 490.956 0 0 1-5.072-.18c-.632-.027-.724-.812-.287-1.073a.415.415 0 0 1-.036-.327c2.365-7.717 3.463-15.56 4.502-23.434l.346-2.626c.578-4.377 1.18-8.762 2.012-13.136.13-.693.893-.687 1.288-.293-.198-.301-.058-.797.421-.833 25.32-1.952 51.368-1.576 76.768-1.601a.8.8 0 0 1 .586.231c3.05-2.233 6.09-4.467 9.098-6.712.381-.284.744-.138.954.155zm53.206 110.019c-.014.424-.287.84-.831.835-12.23-.112-24.526.07-36.836.25l-6.156.087c-19.496.268-39.007.403-58.333-.78.288 1.923.315 3.912.319 5.885.254.27.256.744.005 1.03 0 .643 0 1.286.01 1.922 17.353-1.265 35.052-.62 52.448-.564 16.513.055 33.031-.02 49.543.226h.003c-.526-2.805-.122-6.038-.12-8.856 0-.012.006-.02.006-.032l-.058-.003zm-142.343-5.385c-.133 3.977-.307 7.951-.59 11.91 0 .016-.013.02-.015.034 13.197-.7 26.521-.172 39.745-.469-.075-2.07-.118-4.153.156-6.17.036-.263.318-.337.547-.27.05-.025.083-.065.148-.069.79-.048 1.58-.084 2.371-.129a14.488 14.488 0 0 1 .283-3.263c.052-.257.295-.302.492-.223.058-.14.16-.26.357-.267 2.425-.09 4.853-.162 7.284-.22-.02-.058-.041-.117-.042-.188-.004-.215-.013-.436-.017-.651-16.855.38-33.876.89-50.72-.025zm131.306-.233c.001.217-.002.433-.001.65 0 .064-.02.115-.033.17 1.248.054 2.499.106 3.74.166.31.015.494.204.562.43.247-.142.571-.124.709.195.442 1.022.415 2.089.056 3.118 1.724-.005 3.452.011 5.173-.004a.764.764 0 0 1 .74.47c.004 0 .006-.003.01-.003l.333-.02a.766.766 0 0 1 .987-.026c.153.04.213.183.181.326.014.059.036.112.035.18-.014 1.882.158 3.956.11 5.96 13.435.282 26.857.091 40.288.27-.194-3.848-.295-7.708-.359-11.571-17.462.09-35.085.44-52.53-.31zm-59.921 1.643a.435.435 0 0 1-.387.237c-9.148.295-18.352.416-27.504.301-.05 0-.073-.036-.114-.048a14.575 14.575 0 0 1-.302 2.898c9.57-.523 19.183-.72 28.814-.773l-.002-.003a13.813 13.813 0 0 1-.505-2.612zm38.781-.178c.038.987.07 1.939.006 2.938-.005.077-.05.118-.08.173 8.428.11 16.841.173 25.233.154.251-.885.176-1.706-.032-2.585a.636.636 0 0 1-.282.074c-8.174.228-16.709.178-24.845-.754zm-8.977-24.499a.66.66 0 0 1-.449.23c-6.233.577-12.503.799-18.737.133-.04 8.932-.336 17.937-1.322 26.815-.005.056-.042.084-.066.126 6.09.022 12.183.085 18.276.164a.53.53 0 0 1 .355-.18c.458-.044.921-.072 1.382-.106l-.06-.99c-.525-8.59-.829-17.605.56-26.097.008-.046.043-.06.06-.095zM167.609 237c-.076 1.026-.18 2.054-.494 3.038-.043.133-.175.212-.311.235a.564.564 0 0 1-.49.374c-.81.083-1.637.123-2.457.183.85 18.121-.048 36.416.282 54.566a.672.672 0 0 1-.052.277c.994.004 1.99-.006 2.983.001.157.002.27.064.346.156.039-.489.779-.56.914-.075.272.974.396 2.114.419 3.126 0 .045-.028.068-.04.106 1.294-.006 2.589-.001 3.882 0-.011-.04-.044-.058-.044-.105-.114-10.27.045-20.553.035-30.825 0-.474.387-.816.84-.839 9.11-.469 18.315-.683 27.423-.056.373.025.721.306.709.708-.32 10.25-.228 20.51-.135 30.764 0 .036-.015.06-.018.093 1.232.014 2.463.058 3.675.174a.523.523 0 0 1 .333.166c-.064-1.078-.025-2.1.017-3.179.002-.037.03-.051.038-.083-.044-.22.062-.458.369-.472.432-.02.871-.016 1.304-.032a.594.594 0 0 1-.166-.408c-.284-17.967-.478-36.36 1.41-54.25-.946-.098-1.882-.195-2.8-.285a.477.477 0 0 1-.27-.847 11.54 11.54 0 0 1-.146-2.058c-2.121-.034-4.24-.07-6.36-.106-.003.01-.003.02-.004.03h-1.19c.005-.017.007-.035.011-.05-2.848-.05-5.696-.101-8.539-.14a1716.47 1716.47 0 0 0-13.573-.133c.003.023.005.049.009.073h-.943c-.002-.027-.005-.053-.006-.08l-6.961-.047zm19.522 31.374c-2.95.018-7.454-.583-10.284.33-2.942.95-2.82 3.817-2.673 6.675l.022.44c.029.584.052 1.165.043 1.724-.11 7.045-.282 14.14-.827 21.165h.44c-.027.092-.032.19-.063.279.772 0 1.545.01 2.318.012-.018-.041-.05-.067-.05-.123.027-9.064.41-18.15.682-27.21.018-.595.647-.77 1.037-.543.015 0 .02-.014.035-.013 6.354.039 12.664.066 19.001-.489.587-.051.75.563.518.968.25-.255.8-.091.813.33.289 8.946-.267 17.907.034 26.87.57-.028 1.139-.056 1.711-.066-.004-.032-.019-.055-.019-.089-.157-7.494-.118-14.99.05-22.482.095-4.22 1.145-6.948-3.643-7.665-2.914-.435-6.199-.128-9.145-.113zm-40.308-27.816c2.245 17.988 1.07 36.973 1.21 55.083 0 .063-.02.114-.034.168 4.94-.11 9.883-.142 14.82-.136a.718.718 0 0 1-.063-.277c-.306-18.046-1.192-36.5.281-54.506a95.418 95.418 0 0 1-16.214-.332zm62.513.182c-.059 18.046-1.105 36.09-1.099 54.153 0 .164-.06.286-.143.384 5.978-.176 12.052-.025 18.055.222-.009-.04-.027-.072-.028-.117-.547-17.907-.527-36.077.835-53.952-5.692.5-11.859-.094-17.62-.69zm-66.37-.744a.686.686 0 0 1-.652.41c-15.25.031-30.598.243-45.864-.187-.433 17.847.207 35.87-.345 53.756 16.874-.384 33.766 0 50.649-.39-.41-16.977-1.801-34.622-.324-51.523-.12-.132-.13-.14-.22-.305-.057-.108.06-.224.167-.167.044.025.06.035.086.052.033-.37.05-.743.085-1.112a90.974 90.974 0 0 1-3.374-.43.339.339 0 0 1-.208-.104zm86.927.882a.502.502 0 0 1-.364.246c-.455.07-.923.115-1.386.17-.058 3.179-.122 6.356-.187 9.532l-.196 9.526c-.223 11.112-.41 22.22-.379 33.35 17.435-.774 35.048-.45 52.502-.382-.211-17.193.616-34.5.818-51.627a.974.974 0 0 1 .083-.387c-16.86-.055-33.886.597-50.702-.38a.59.59 0 0 1-.189-.048zM249.813 274a.464.464 0 0 1 .27.067c.17.026.333.095.421.244.594.996.526 2.625.44 3.75a.635.635 0 0 1-1.064.447c-.024.008-.04.03-.066.034-.434.047-.899.07-1.35.106a.61.61 0 0 1 .293.245l.077.128c.257.419-.172 1.014-.646.853.775.263.444 4.116.446 4.81.006 1.678-.022 3.353-.192 5.022-.028.28-.476.399-.525.072-.34-2.196-.45-4.419-.525-6.637-.039-1.143-.669-3.543.38-4.377.04-.032.087-.048.132-.072-2.99.202-6.25.17-9.262-.224.237 3.83.423 7.844.093 11.672 2.8-.545 5.8-.427 8.635-.46.617-.009.603.92 0 .96-2.88.193-5.919.572-8.793.204a.352.352 0 0 1-.185-.095c-.128.01-.251-.043-.273-.212-.536-3.974-.509-8.188-.425-12.196a29.845 29.845 0 0 1-1.634-.307c-.087-.02-.133-.089-.16-.167-.13-.014-.26-.075-.303-.218-.246-.809-.627-1.712-.595-2.568.012-.323.399-.52.647-.365a.262.262 0 0 1 .238-.175c4.638-.293 9.285-.278 13.925-.541zm-112 0a.463.463 0 0 1 .27.067c.17.026.332.095.421.244.594.996.526 2.625.44 3.75a.635.635 0 0 1-1.064.447c-.025.008-.04.03-.066.034-.434.047-.899.07-1.35.106a.608.608 0 0 1 .293.245l.077.128c.257.419-.172 1.014-.646.853.774.263.444 4.116.447 4.81.005 1.678-.023 3.353-.193 5.022-.028.28-.476.399-.526.072-.34-2.196-.45-4.419-.524-6.637-.04-1.143-.67-3.543.38-4.377.04-.032.088-.048.131-.072-2.99.202-6.25.17-9.26-.224.236 3.83.42 7.844.092 11.672 2.8-.545 5.8-.427 8.635-.46.617-.009.604.92 0 .96-2.88.193-5.92.572-8.793.204a.355.355 0 0 1-.186-.095c-.127.01-.25-.043-.273-.212-.535-3.974-.508-8.188-.424-12.196a29.845 29.845 0 0 1-1.634-.307c-.087-.02-.133-.089-.16-.167-.13-.014-.26-.075-.303-.218-.246-.809-.627-1.712-.595-2.568.012-.323.398-.52.647-.365.038-.09.106-.166.238-.175 4.638-.293 9.285-.278 13.925-.541zm-23 0a.463.463 0 0 1 .27.067c.17.026.332.095.421.244.594.996.526 2.625.44 3.75a.635.635 0 0 1-1.064.447c-.024.008-.04.03-.066.034-.434.047-.899.07-1.35.106a.608.608 0 0 1 .293.245l.077.128c.257.419-.172 1.014-.646.853.774.263.444 4.116.447 4.81.005 1.678-.023 3.353-.193 5.022-.028.28-.476.399-.526.072-.339-2.196-.45-4.419-.524-6.637-.039-1.143-.67-3.543.38-4.377.04-.032.088-.048.131-.072-2.99.202-6.25.17-9.26-.224.236 3.83.42 7.844.092 11.672 2.8-.545 5.8-.427 8.635-.46.617-.009.604.92 0 .96-2.88.193-5.92.572-8.793.204a.355.355 0 0 1-.186-.095c-.127.01-.25-.043-.273-.212-.535-3.974-.508-8.188-.424-12.196a29.845 29.845 0 0 1-1.634-.307c-.087-.02-.133-.089-.16-.167-.13-.014-.26-.075-.303-.218-.246-.809-.627-1.712-.595-2.568.012-.323.398-.52.647-.365.039-.09.106-.166.238-.175 4.638-.293 9.285-.278 13.925-.541zm158 0a.464.464 0 0 1 .27.067c.17.026.333.095.421.244.594.996.526 2.625.44 3.75a.635.635 0 0 1-1.064.447c-.024.008-.04.03-.066.034-.434.047-.899.07-1.35.106a.61.61 0 0 1 .293.245l.077.128c.257.419-.172 1.014-.646.853.775.263.444 4.116.447 4.81.005 1.678-.022 3.353-.193 5.022-.029.28-.476.399-.525.072-.34-2.196-.45-4.419-.525-6.637-.039-1.143-.669-3.543.38-4.377.04-.032.087-.048.132-.072-2.99.202-6.25.17-9.262-.224.237 3.83.423 7.844.092 11.672 2.8-.545 5.8-.427 8.636-.46.617-.009.603.92 0 .96-2.88.193-5.919.572-8.793.204a.349.349 0 0 1-.185-.095c-.128.01-.251-.043-.273-.212-.536-3.974-.509-8.188-.425-12.196a29.845 29.845 0 0 1-1.634-.307c-.087-.02-.133-.089-.16-.167-.13-.014-.26-.075-.303-.218-.246-.809-.627-1.712-.595-2.568.012-.323.399-.52.647-.365a.262.262 0 0 1 .238-.175c4.638-.293 9.285-.278 13.925-.541zm-135.37 1.087c-4.525.28-9.032.475-13.555.039.26.736.292 1.588.361 2.359 4.185-.66 9.22-.445 13.412.199-.025-.503-.045-1.007-.099-1.506-.04-.38-.101-.732-.12-1.091zm135 0c-4.525.28-9.032.475-13.554.039.26.736.29 1.588.36 2.359 4.186-.66 9.22-.445 13.412.199-.025-.503-.046-1.007-.099-1.506-.04-.38-.101-.732-.119-1.091zm-23 0c-4.525.28-9.032.475-13.554.039.26.736.29 1.588.36 2.359 4.186-.66 9.22-.445 13.412.199-.025-.503-.045-1.007-.099-1.506-.04-.38-.101-.732-.119-1.091zm-135 0c-4.525.28-9.032.475-13.555.039.26.736.292 1.588.361 2.359 4.185-.66 9.22-.445 13.412.199-.025-.503-.045-1.007-.099-1.506-.04-.38-.101-.732-.12-1.091zm72.525-27.898c.154-.178.405-.268.635-.103 6.356 4.539 12.58 10.223 17.276 16.394.334.44-.083.916-.541.974-.044.283-.248.532-.636.516-3.717-.155-7.502-.127-11.302-.072l-2.852.043c-6.181.094-12.369.154-18.338-.494-.22-.024-.31-.352-.056-.404 10-2.036 21.767-1.037 31.982-.426-5.224-5.224-10.357-10.417-15.826-15.423-.032.06-.057.12-.11.177-2.607 2.79-5.345 5.469-7.994 8.221-2.24 2.328-4.53 5.66-7.495 7.095-.161.078-.412-.054-.336-.25 1.143-2.9 4.139-5.247 6.291-7.497 2.778-2.903 5.534-5.846 8.451-8.617a.713.713 0 0 1 .851-.134zm-49.156.81a.463.463 0 0 1 .271.068c.17.026.332.095.421.244.594.995.526 2.625.44 3.75a.635.635 0 0 1-1.064.447c-.025.008-.04.03-.066.034-.434.047-.899.07-1.35.106a.608.608 0 0 1 .293.245l.077.128c.257.419-.172 1.014-.646.853.774.264.444 4.116.447 4.81.005 1.678-.023 3.353-.193 5.022-.028.28-.476.399-.526.072-.34-2.196-.45-4.419-.524-6.637-.04-1.143-.67-3.543.38-4.377.04-.032.088-.048.131-.072-2.99.202-6.25.17-9.26-.224.236 3.83.42 7.844.092 11.672 2.8-.545 5.8-.427 8.635-.46.617-.009.604.92 0 .96-2.88.193-5.92.572-8.793.204a.355.355 0 0 1-.186-.095c-.127.01-.25-.043-.273-.212-.535-3.974-.508-8.188-.424-12.196a29.845 29.845 0 0 1-1.634-.307c-.087-.02-.133-.089-.16-.167-.13-.014-.26-.075-.303-.218-.246-.809-.627-1.712-.595-2.568.012-.323.398-.52.647-.365.038-.09.106-.167.238-.175 4.638-.293 9.285-.278 13.925-.541zm135 0a.464.464 0 0 1 .272.068c.168.026.332.095.42.244.594.995.526 2.625.44 3.75a.635.635 0 0 1-1.064.447c-.024.008-.04.03-.066.034-.434.047-.899.07-1.35.106a.61.61 0 0 1 .293.245l.077.128c.257.419-.172 1.014-.646.853.775.264.444 4.116.447 4.81.005 1.678-.022 3.353-.193 5.022-.029.28-.476.399-.525.072-.34-2.196-.45-4.419-.525-6.637-.039-1.143-.669-3.543.38-4.377.04-.032.087-.048.132-.072-2.99.202-6.25.17-9.262-.224.237 3.83.423 7.844.092 11.672 2.8-.545 5.8-.427 8.636-.46.617-.009.603.92 0 .96-2.88.193-5.919.572-8.793.204a.349.349 0 0 1-.185-.095c-.128.01-.251-.043-.273-.212-.536-3.974-.509-8.188-.425-12.196a29.845 29.845 0 0 1-1.634-.307c-.087-.02-.133-.089-.16-.167-.13-.014-.26-.075-.303-.218-.246-.809-.627-1.712-.595-2.568.012-.323.399-.52.647-.365.038-.09.106-.167.238-.175 4.638-.293 9.285-.278 13.925-.541zm-158 0a.463.463 0 0 1 .271.068c.17.026.332.095.421.244.594.995.526 2.625.44 3.75a.635.635 0 0 1-1.064.447c-.024.008-.04.03-.066.034-.434.047-.899.07-1.35.106a.608.608 0 0 1 .293.245l.077.128c.257.419-.172 1.014-.646.853.774.264.444 4.116.447 4.81.005 1.678-.023 3.353-.193 5.022-.028.28-.476.399-.526.072-.339-2.196-.45-4.419-.524-6.637-.039-1.143-.67-3.543.38-4.377.04-.032.088-.048.131-.072-2.99.202-6.25.17-9.26-.224.236 3.83.42 7.844.092 11.672 2.8-.545 5.8-.427 8.635-.46.617-.009.604.92 0 .96-2.88.193-5.92.572-8.793.204a.355.355 0 0 1-.186-.095c-.127.01-.25-.043-.273-.212-.535-3.974-.508-8.188-.424-12.196a29.845 29.845 0 0 1-1.634-.307c-.087-.02-.133-.089-.16-.167-.13-.014-.26-.075-.303-.218-.246-.809-.627-1.712-.595-2.568.012-.323.398-.52.647-.365.039-.09.106-.167.238-.175 4.638-.293 9.285-.278 13.925-.541zm135 0a.464.464 0 0 1 .272.068c.168.026.332.095.42.244.594.995.526 2.625.44 3.75a.635.635 0 0 1-1.064.447c-.024.008-.04.03-.066.034-.434.047-.899.07-1.35.106a.61.61 0 0 1 .293.245l.077.128c.257.419-.172 1.014-.646.853.775.264.444 4.116.446 4.81.006 1.678-.022 3.353-.192 5.022-.028.28-.476.399-.525.072-.34-2.196-.45-4.419-.525-6.637-.039-1.143-.669-3.543.38-4.377.04-.032.087-.048.132-.072-2.99.202-6.25.17-9.262-.224.237 3.83.423 7.844.093 11.672 2.8-.545 5.8-.427 8.635-.46.617-.009.603.92 0 .96-2.88.193-5.919.572-8.793.204a.352.352 0 0 1-.185-.095c-.128.01-.251-.043-.273-.212-.536-3.974-.509-8.188-.425-12.196a29.845 29.845 0 0 1-1.634-.307c-.087-.02-.133-.089-.16-.167-.13-.014-.26-.075-.303-.218-.246-.809-.627-1.712-.595-2.568.012-.323.399-.52.647-.365.038-.09.106-.167.238-.175 4.638-.293 9.285-.278 13.925-.541zm-63.004 4.204c.166-.19.427-.286.66-.116 3.352 2.443 6.412 5.226 9.33 8.194.374.38.176.882-.173 1.101.032.312-.141.637-.536.616-6.234-.337-12.442-.365-18.683-.341-.48.002-.52-.584-.193-.797-.07-.162-.069-.357.067-.501 2.72-2.883 5.712-5.523 8.652-8.168.292-.262.646-.191.876.012zm.094.836c-.02.028-.032.058-.06.084-2.803 2.592-5.616 5.218-8.599 7.597 5.686-.38 11.412-.295 17.097.07-2.641-2.775-5.49-5.319-8.438-7.751zm85.541-3.952c-4.525.28-9.032.475-13.554.039.26.736.29 1.588.36 2.358 4.186-.658 9.22-.444 13.412.2-.025-.503-.046-1.007-.099-1.506-.04-.38-.101-.732-.119-1.091zm-158 0c-4.525.28-9.032.475-13.555.039.26.736.292 1.588.361 2.358 4.185-.658 9.22-.444 13.412.2-.025-.503-.045-1.007-.099-1.506-.04-.38-.101-.732-.12-1.091zm23 0c-4.525.28-9.032.475-13.555.039.26.736.292 1.588.361 2.358 4.185-.658 9.22-.444 13.412.2-.025-.503-.045-1.007-.099-1.506-.04-.38-.101-.732-.12-1.091zm112 0c-4.525.28-9.032.475-13.554.039.26.736.29 1.588.36 2.358 4.186-.658 9.22-.444 13.412.2-.025-.503-.045-1.007-.099-1.506-.04-.38-.101-.732-.119-1.091zm-20.504-11.628c-7.596.152-15.206.118-22.81.005.145.642.24 1.305.265 1.946 2.596.017 5.226.18 7.865.346l1.98.124c4.29.26 8.586.441 12.768-.06a27.412 27.412 0 0 1-.068-2.36zm-27.129-38.094c3.862 2.98 7.58 6.123 11.177 8.727 10.439 7.558 20.914 15.078 31.26 22.76a.734.734 0 0 1 .302.59c.058.121.084.256.085.391.295.033.554.232.524.614-.097 1.245-.001 2.839-.57 3.977-.17.34-.654.226-.77-.087l-.001.001-.035.097a.772.772 0 0 1-.57.467l-.129.017c-4.278.268-8.567.414-12.859.514.023.81-.024 1.632-.071 2.443 10.782-.604 21.65-.538 32.505-.42l5.009.056c5.007.055 10.008.101 14.994.078-3.618-12.697-5.3-26.464-5.562-39.639-25.028.04-50.284.506-75.289-.586zm-58.292 37.292c.076.76.099 1.523.106 2.289a.529.529 0 0 1-.063.259c7.602.22 15.147.329 22.753.344.034 0 .058.012.09.017a14.373 14.373 0 0 1 .006-2.575c-7.633-.054-15.267-.13-22.892-.334zm-114.48-22.476c7.5-1.178 12.316 3.498 13.867 9.882 2.164-2.34 6.876-3.003 9.457-1.863 2.42 1.071 4.165 3.876 3.784 6.382 2.041-.583 4.38-.121 6.043 1.297.985.839 1.967 2.132 1.79 3.492-.208 1.605-2.027 2.179-2.407 3.647-.083.317-.342.483-.622.52a.948.948 0 0 1-.661.34c-15.827 1.492-32.33 1.544-48.14-.145a.685.685 0 0 1-.374-.165c-2.897-.526-3.402-4.545-2.087-6.99 1.401-2.607 4.878-4.125 7.397-2.536-1.41-7.321 4.576-12.7 11.953-13.86zm144.008-15.748c-24.9.813-50.383 1.98-75.243.886a.533.533 0 0 1-.319-.12.783.783 0 0 1 .126.6c-2.36 12.913-2.168 26.789-7.44 39.004 17.336-.549 34.803-.121 52.144.073.074.001.13.025.194.041.008-.764.03-1.527.106-2.285a556.72 556.72 0 0 1-10.052-.36c-.31-.014-.469-.25-.472-.489a.596.596 0 0 1-.42-.583c-.02-.943-.023-1.905.103-2.844-.189-.038-.255-.221-.189-.37-.376-.015-.688-.567-.348-.873 11.545-10.383 24.21-19.797 36.862-29.061l3.3-2.414zm-142.08 17.442-.336.005c-3.333.089-6.844 1.77-9.333 3.928-2.92 2.532-3.17 5.665-3.09 9.292 0 .016-.011.022-.012.036.066.309-.223.618-.57.438-2.116-1.099-4.372-1.082-5.967.855-1.474 1.788-1.973 5.625 1.233 5.754.222.01.394.124.517.277 15.66.205 31.16.17 46.823-.409.124-.362.31-.687.587-1.038.842-1.063 1.89-1.515.928-3.049-1.484-2.368-4.203-2.384-6.446-1.41a4.72 4.72 0 0 1-.763.798c-.656.535-1.785-.157-1.254-.956 1.8-2.707.925-5.906-2.435-6.847-2.79-.781-5.92.541-7.54 2.825.03.263.069.523.089.789.074.988-1.566 1.2-1.746.234-1.138-6.138-3.665-11.714-11.021-11.517zm101.892 16.53c.12.925.118 1.868.098 2.795 0 .033-.013.056-.018.087 36.685-.752 73.447.404 110.145.02.263-.002.458.092.586.238-.089-.938.077-1.977.158-2.88-36.926.692-74.048.738-110.969-.26zm253.73-17.362c4.489-.464 8.897 2.834 9.394 7.196 2.556-2.051 6.214-2.023 9.077-.296 3.643 2.198 3.385 6.133 1.985 9.616.107.397-.067.9-.54 1.051.005.01.01.019.013.029-.07.009-.14.015-.208.026l-.011.002-.027.002c-6.31.927-12.73 1.26-19.105 1.264-3.215.002-7.351.553-10-1.563a.576.576 0 0 1-.256-.064c-3.737-2.054-1.47-8.207 2.34-7.842-.804-4.565 2.595-8.93 7.338-9.421zm7.975 8.892c-.496-4.031-3.034-7.46-7.54-7.164-4.388.289-6.55 4.125-6.55 8.043.144.15.064.445-.144.498-.015.003-.03.01-.043.013a.605.605 0 0 1-.426.133c-1.202.37-2.383.985-2.917 2.158-.64 1.405-.016 2.679.762 3.856 3.634 1.909 10.23.724 13.972.571 4.631-.188 9.237-.622 13.857-.945l.122-.4.06-.202.117-.405c.7-2.497 1.028-5.061-1.606-6.744-2.755-1.759-5.824-1.427-8.246.604a.71.71 0 0 1-1.418-.016zm-209.186-33.141a.827.827 0 0 1-.318.753c-17.372 13.38-34.902 26.586-52.424 39.768.007.016.024.024.029.042.037.144.057.292.085.438 36.318-1.161 72.837-1.309 109.175-.828-5.585-4.009-11.112-8.22-16.652-12.455l-2.771-2.118c-12.017-9.18-24.15-18.324-37.12-25.595zm.813 2.64c.015-.3.292-.568.633-.363 16.542 9.985 32.134 22.336 47.137 34.512.046.037.065.08.099.12l.228-.01c.954-.05.947 1.438 0 1.489-30.91 1.676-61.916.176-92.853.643-.584.008-.573-.87 0-.905.195-.012.393-.02.589-.032-.076-.146-.09-.324.051-.458 13.345-12.65 28.894-23.466 43.278-34.902a.783.783 0 0 1 .838-.093zm.486.639c.014.183-.056.373-.255.531-14.314 11.415-28.29 24.077-43.52 34.238 29.59-1.68 59.287.284 88.899-1.04-14.82-11.564-30.256-22.26-45.124-33.729zm-.544 5.18a.508.508 0 0 1 .673-.197c13.023 6.211 24.119 16.863 34.967 26.212.36.311.25.722-.03.96.032.384-.19.785-.682.77-22.85-.682-45.715-.327-68.562-.92-.667-.02-.661-1.008 0-1.04l.88-.033a.453.453 0 0 1 .154-.282c10.337-8.807 21.113-17.137 31.851-25.442.25-.193.522-.162.75-.028zm.465.864a.626.626 0 0 1-.234.442c-10.319 8.23-20.632 16.522-31.235 24.38 21.556-.883 43.23-.145 64.78.576-10.81-9-21.398-17.864-33.31-25.398zm103.116-56.04c-3.631-11.428 8.498-22.179 19.564-20.987 9.555 1.026 15.41 9.082 15.302 17.953a12.881 12.881 0 0 1 1.657-1.536c2.404-1.893 5.601-2.774 8.635-2.593 7.06.424 9.707 7.049 7.617 13.045 5.467-1.78 12.518-1.706 15.5 4.145 2.109 4.134.88 8.926-3.3 10.985-3.4 1.677-8.638 1.134-12.204 1.259l-17.973.626c-12.887.45-26.074 1.67-38.942.592-.104-.01-.173-.079-.222-.161-6.32-.929-11.604-4.842-11.337-12.028.324-8.717 7.78-13.183 15.818-11.085a.756.756 0 0 1-.115-.215zm20.317-18.656c-10.388-1.95-20.721 7.82-18.997 18.29a.71.71 0 0 1-.486.817c.134.148.06.419-.178.43-7.58.325-14.145 2.138-14.442 11.056-.248 7.407 6.3 9.617 12.405 10.348.173.022.305.1.405.201 11.311-1.435 22.915-1.302 34.276-1.721l19.47-.72c2.813-.104 6.925.445 9.634-.561 6.875-4.129 6.365-8.337-1.526-12.626-2.81-.454-5.532-.247-8.168.62a.697.697 0 0 1-.625-.115c-.67.673-2.158-.065-1.759-1.075 6.602-16.688-16.446-11.204-15.42-6.063.07.354-.195.649-.489.72-.025.115-.036.23-.064.344-.31 1.335-2.356.767-2.046-.566 2.077-8.915-2.783-17.65-11.99-19.38zM-4.287 104.078C-7.918 92.65 4.21 81.9 15.277 83.09c9.555 1.028 15.411 9.083 15.302 17.954a12.877 12.877 0 0 1 1.657-1.536c2.404-1.893 5.602-2.774 8.635-2.593 7.06.424 9.708 7.049 7.618 13.045 5.466-1.78 12.517-1.705 15.5 4.145 2.108 4.135.88 8.925-3.3 10.986-3.4 1.676-8.64 1.133-12.205 1.258l-17.973.626c-12.887.45-26.074 1.67-38.942.592-.104-.009-.173-.079-.22-.161-6.322-.929-11.606-4.842-11.34-12.028.326-8.716 7.78-13.183 15.819-11.085a.756.756 0 0 1-.115-.215zM16.031 85.42c-10.389-1.95-20.721 7.82-18.998 18.292a.708.708 0 0 1-.485.816c.133.148.06.419-.179.43-7.58.325-14.144 2.138-14.441 11.056-.248 7.407 6.298 9.617 12.404 10.348a.66.66 0 0 1 .405.201c11.311-1.435 22.915-1.302 34.276-1.721l19.471-.72c2.813-.104 6.924.444 9.633-.561 6.875-4.129 6.366-8.337-1.526-12.626-2.81-.454-5.532-.248-8.168.62a.697.697 0 0 1-.625-.116c-.67.674-2.158-.063-1.758-1.074 6.602-16.688-16.447-11.204-15.422-6.063.07.354-.195.649-.488.72-.025.115-.036.23-.063.344-.312 1.335-2.357.767-2.047-.566 2.077-8.915-2.783-17.65-11.99-19.38zm354.007-25.239c7.5-1.178 12.317 3.497 13.867 9.882 2.165-2.34 6.876-3.004 9.457-1.863 2.42 1.072 4.165 3.877 3.785 6.382 2.041-.583 4.38-.122 6.042 1.296.985.84 1.967 2.133 1.79 3.493-.208 1.605-2.027 2.178-2.407 3.647-.083.318-.342.483-.621.521a.952.952 0 0 1-.662.339c-15.826 1.492-32.33 1.545-48.14-.144a.68.68 0 0 1-.373-.167c-2.899-.525-3.403-4.545-2.089-6.989 1.403-2.607 4.88-4.124 7.397-2.536-1.409-7.321 4.577-12.701 11.954-13.86zm1.928 1.694-.336.005c-3.333.089-6.845 1.769-9.333 3.927-2.92 2.532-3.17 5.665-3.09 9.294.001.015-.012.021-.013.035.068.309-.222.618-.569.438-2.116-1.099-4.372-1.081-5.967.855-1.474 1.788-1.973 5.624 1.234 5.754a.69.69 0 0 1 .515.277c15.66.205 31.16.17 46.824-.41.124-.36.31-.685.587-1.037.842-1.063 1.891-1.515.93-3.05-1.486-2.367-4.205-2.383-6.447-1.41-.215.28-.46.551-.763.8-.657.534-1.786-.159-1.255-.958 1.801-2.706.926-5.906-2.435-6.845-2.79-.782-5.92.54-7.54 2.825.03.262.07.522.09.788.073.987-1.568 1.2-1.747.234-1.138-6.139-3.664-11.714-11.021-11.517zM253.587 27.044c4.49-.465 8.898 2.834 9.395 7.195 2.555-2.05 6.213-2.022 9.077-.294 3.643 2.198 3.385 6.132 1.985 9.614.108.398-.068.901-.539 1.052l.012.028c-.069.01-.139.016-.209.026l-.01.003-.027.002c-6.31.926-12.729 1.26-19.105 1.264-3.215.002-7.351.552-10-1.563a.553.553 0 0 1-.255-.064c-3.739-2.055-1.472-8.207 2.34-7.842-.804-4.565 2.595-8.93 7.336-9.421zm7.977 8.893c-.497-4.033-3.035-7.462-7.541-7.164-4.388.288-6.549 4.123-6.55 8.041.145.15.065.445-.144.498-.015.004-.03.01-.044.013a.609.609 0 0 1-.425.135c-1.202.369-2.383.984-2.918 2.156-.638 1.405-.015 2.68.764 3.857 3.634 1.908 10.23.724 13.971.572 4.632-.19 9.237-.623 13.857-.946.858-2.795 1.684-5.842-1.307-7.751-2.755-1.76-5.823-1.427-8.246.603a.71.71 0 0 1-1.417-.014zM108.037-34.818c7.5-1.178 12.318 3.497 13.868 9.882 2.164-2.34 6.876-3.004 9.457-1.863 2.42 1.072 4.165 3.877 3.785 6.382 2.04-.583 4.38-.121 6.043 1.296.985.84 1.966 2.133 1.79 3.493-.209 1.605-2.027 2.178-2.408 3.647-.082.318-.34.483-.621.521a.952.952 0 0 1-.662.339c-15.827 1.492-32.33 1.545-48.14-.144a.682.682 0 0 1-.373-.167c-2.898-.525-3.403-4.545-2.088-6.989 1.401-2.607 4.879-4.124 7.397-2.536-1.41-7.321 4.575-12.701 11.952-13.86zm1.93 1.694-.337.005c-3.334.089-6.844 1.769-9.333 3.927-2.92 2.533-3.17 5.665-3.09 9.294 0 .015-.012.021-.013.035.067.309-.222.618-.57.438-2.115-1.099-4.37-1.081-5.966.855-1.474 1.788-1.973 5.624 1.233 5.754.222.01.394.123.516.277 15.66.205 31.16.17 46.824-.41.125-.36.31-.685.588-1.037.842-1.063 1.89-1.515.928-3.05-1.484-2.366-4.203-2.383-6.446-1.41-.215.28-.46.551-.763.8-.656.534-1.785-.159-1.255-.958 1.801-2.706.925-5.906-2.434-6.845-2.792-.782-5.92.54-7.54 2.825.03.262.068.522.088.788.074.987-1.566 1.2-1.745.234-1.139-6.139-3.665-11.714-11.022-11.517zM-8.414-54.956c4.49-.465 8.898 2.834 9.396 7.195 2.554-2.05 6.214-2.022 9.077-.294 3.641 2.197 3.384 6.132 1.985 9.615.107.397-.068.9-.54 1.051l.012.028c-.069.01-.14.016-.209.027l-.01.001-.027.003c-6.31.927-12.73 1.26-19.105 1.264-3.214.002-7.351.553-10-1.564a.55.55 0 0 1-.255-.063c-3.739-2.055-1.472-8.207 2.34-7.842-.804-4.564 2.595-8.93 7.337-9.421zm7.977 8.893c-.496-4.032-3.035-7.462-7.541-7.165-4.388.289-6.549 4.125-6.55 8.042.145.15.065.445-.144.499-.015.003-.03.009-.044.013a.607.607 0 0 1-.424.133c-1.203.37-2.383.984-2.918 2.158-.64 1.404-.016 2.679.763 3.856 3.634 1.908 10.228.723 13.971.571 4.631-.188 9.238-.622 13.858-.945l.122-.4c.804-2.682 1.419-5.532-1.43-7.352-2.755-1.759-5.823-1.426-8.246.605a.71.71 0 0 1-1.417-.015z" style="mix-blend-mode:luminosity" transform="translate(0 -27)" fill="url(#a)" fill-rule="evenodd" fill-opacity=".15"/>
</svg>
