<?xml version="1.0" encoding="UTF-8"?>
<svg width="18px" height="17px" viewBox="0 0 18 17" version="1.1" xmlns="http://www.w3.org/2000/svg" xmlns:xlink="http://www.w3.org/1999/xlink">
    <title>link@2x</title>
    <g id="Last-Update" stroke="none" stroke-width="1" fill="none" fill-rule="evenodd">
        <g id="New---8.1" transform="translate(-42.000000, -302.000000)" fill="#0E72ED" fill-rule="nonzero">
            <g id="Item" transform="translate(16.000000, 171.000000)">
                <g id="zoom-link" transform="translate(16.000000, 118.000000)">
                    <g id="link" transform="translate(10.992188, 13.000000)">
                        <path d="M8.0078125,0 C3.59226562,0 0,3.59230469 0,8.0078125 C0,12.4233203 3.59226562,16.015625 8.0078125,16.015625 C12.4233594,16.015625 16.015625,12.4233203 16.015625,8.0078125 C16.015625,3.59230469 12.4233594,0 8.0078125,0 Z M7.8696875,11.1842578 L7.31726562,11.7366797 C6.47769531,12.5762891 5.11863281,12.5764453 4.27890625,11.7366797 C3.44125,10.8990234 3.44125,9.53601562 4.27890625,8.69835937 L5.93621094,7.04105469 C6.77390625,6.20347656 8.13683594,6.20347656 8.97453125,7.04101562 C9.20335938,7.26984375 9.20335938,7.64082031 8.97453125,7.8696875 C8.74574219,8.09847656 8.37472656,8.09851562 8.14589844,7.86972656 C7.76511719,7.48890625 7.14554687,7.48902344 6.76484375,7.8696875 L5.10753906,9.52699219 C4.72679688,9.90773438 4.72679688,10.5273047 5.10753906,10.9080469 C5.48832031,11.2888281 6.10785156,11.2887891 6.48859375,10.9080469 L7.04101562,10.355625 C7.26984375,10.1267969 7.64085937,10.1267969 7.86964844,10.355625 C8.0984375,10.5844531 8.09851562,10.9554687 7.8696875,11.1842578 Z M11.7367187,7.31726562 L10.0794141,8.97457031 C9.24171875,9.81222656 7.87882812,9.8121875 7.04109375,8.97460937 C6.81226562,8.74578125 6.81226562,8.37480469 7.04109375,8.1459375 C7.26988281,7.91714844 7.64089844,7.91710937 7.86972656,8.14589844 C8.25046875,8.52667969 8.87003906,8.52664062 9.25078125,8.1459375 L10.9080859,6.48863281 C11.2888281,6.10789062 11.2888281,5.48832031 10.9080859,5.10757812 C10.5273437,4.72683594 9.9078125,4.72691406 9.52703125,5.10757812 L8.97460937,5.66 C8.74578125,5.88882812 8.37480469,5.88882812 8.14597656,5.66 C7.9171875,5.43117187 7.9171875,5.06019531 8.14597656,4.83136719 L8.69839844,4.27894531 C9.53796875,3.43933594 10.8970312,3.43917969 11.7367578,4.27894531 C12.5743359,5.11660156 12.5743359,6.47960937 11.7367187,7.31726562 Z" id="Combined-Shape"></path>
                    </g>
                </g>
            </g>
        </g>
    </g>
</svg>