<svg width="114" height="118" viewBox="0 0 114 118" xmlns="http://www.w3.org/2000/svg">
    <defs>
        <linearGradient x1="28.463%" y1="92.578%" x2="74.144%" y2="0%" id="a">
            <stop stop-color="#E5AB66" offset="0%"/>
            <stop stop-color="#EAB68D" offset="100%"/>
        </linearGradient>
    </defs>
    <g fill="none" fill-rule="evenodd">
        <path d="M70.115 105.63c.679 1.53.594 3.4-.255 4.932-.424.765-.934 1.36-1.528 1.785a7.24 7.24 0 0 1 2.122 1.106c1.358 1.105 2.122 2.806 2.122 4.421-1.612.34-3.395-.085-4.753-1.19-1.189-1.02-1.953-2.381-2.122-3.827-.34-1.36-.255-2.89.509-4.251.849-1.616 2.292-2.636 3.905-2.976zm-26.57 0c1.614.34 3.057 1.36 3.905 2.976.764 1.36.85 2.89.51 4.251-.17 1.446-.934 2.806-2.122 3.827-1.359 1.105-3.141 1.53-4.754 1.19 0-1.615.764-3.316 2.122-4.421a7.24 7.24 0 0 1 2.122-1.106c-.594-.425-1.188-1.02-1.528-1.785-.848-1.531-.933-3.402-.254-4.932zm-5.262-1.956c1.528.595 2.801 1.87 3.31 3.486.51 1.446.34 2.891-.254 4.167-.34 1.36-1.273 2.55-2.547 3.316-1.528.85-3.225.935-4.753.34a5.39 5.39 0 0 1 2.716-3.826 5.275 5.275 0 0 1 2.207-.766 5.048 5.048 0 0 1-1.188-1.955c-.51-1.616-.255-3.317.509-4.762zm37.01 0c.849 1.445 1.103 3.146.594 4.762a5.048 5.048 0 0 1-1.189 1.955c.764.085 1.528.34 2.207.766 1.443.85 2.462 2.296 2.717 3.826-1.528.595-3.226.51-4.754-.34-1.273-.765-2.207-1.956-2.546-3.316-.68-1.276-.764-2.721-.255-4.167.51-1.615 1.783-2.89 3.226-3.486zm5.347-2.21c.85 1.274 1.274 2.89.85 4.59-.17.681-.51 1.361-.935 1.956.68 0 1.444.17 2.123.51 1.528.766 2.546 2.042 2.97 3.572-1.442.68-3.14.68-4.583 0-1.358-.595-2.292-1.7-2.801-2.976a5.622 5.622 0 0 1-.595-4.082 5.466 5.466 0 0 1 2.971-3.57zm-47.62 0a5.467 5.467 0 0 1 2.971 3.57 5.622 5.622 0 0 1-.594 4.082c-.51 1.275-1.443 2.38-2.801 2.976-1.528.68-3.141.68-4.584 0 .424-1.53 1.443-2.806 2.97-3.571a4.859 4.859 0 0 1 2.123-.51c-.425-.596-.764-1.276-.934-1.956-.424-1.7-.085-3.317.85-4.592zm22.07-3.858c.594 0 1.188.51 1.188 1.19v9.014c0 .68-.594 1.19-1.188 1.19-.679 0-1.188-.51-1.188-1.19v-9.014c0-.638.447-1.126 1.063-1.184l.125-.006zm3.48 0c.68 0 1.189.51 1.189 1.19v9.014c0 .68-.51 1.19-1.189 1.19-.594 0-1.188-.51-1.188-1.19v-9.014c0-.638.522-1.126 1.077-1.184l.111-.006zm-30.303.88c1.273.851 2.206 2.212 2.376 3.827.17 1.36-.254 2.721-1.018 3.742-.68 1.19-1.698 2.126-3.056 2.55-1.528.51-3.14.17-4.414-.595.51-1.36 1.698-2.55 3.226-3.06.763-.17 1.443-.256 2.207-.17-.425-.596-.595-1.361-.68-2.042-.254-1.615.34-3.146 1.359-4.251zm57.042 0c1.104 1.106 1.613 2.637 1.443 4.252a5.795 5.795 0 0 1-.68 2.041c.68-.085 1.444 0 2.123.17 1.613.51 2.716 1.7 3.31 3.061-1.273.766-2.885 1.106-4.413.596-1.359-.425-2.377-1.36-3.056-2.551-.764-1.02-1.189-2.381-1.019-3.742.17-1.615 1.104-2.976 2.292-3.826zm-23.174-1.56c.595 0 1.189.595 1.189 1.19v9.098c0 .68-.594 1.19-1.189 1.19-.679 0-1.188-.51-1.188-1.19v-9.098c0-.558.448-1.116 1.063-1.184l.125-.007zm-10.61 0c.679 0 1.188.595 1.188 1.19v9.098c0 .68-.509 1.19-1.188 1.19-.68 0-1.189-.51-1.189-1.19v-9.098c0-.558.448-1.116 1.064-1.184l.125-.007zM23.937 95c1.104.935 1.868 2.38 1.868 3.911 0 1.36-.594 2.636-1.443 3.571-.68 1.02-1.868 1.786-3.14 2.126-1.614.255-3.057-.17-4.245-1.105.679-1.276 1.952-2.211 3.48-2.551a8.846 8.846 0 0 1 2.122 0c-.34-.595-.424-1.276-.424-2.04-.085-1.532.679-2.977 1.782-3.912zm65.786 0c1.103.935 1.783 2.38 1.783 3.911 0 .765-.17 1.446-.425 2.04a8.846 8.846 0 0 1 2.122 0c1.528.34 2.717 1.276 3.48 2.552a5.413 5.413 0 0 1-4.244 1.105c-1.358-.34-2.461-1.105-3.14-2.126-.934-.935-1.443-2.21-1.443-3.57 0-1.532.764-2.977 1.867-3.912zm-69.52-3.827c1.018 1.02 1.527 2.466 1.358 3.997-.17 1.275-.85 2.466-1.868 3.23-.764.851-1.952 1.532-3.31 1.616-1.443.085-2.886-.51-3.82-1.53.764-1.19 2.122-1.956 3.65-2.04.679-.086 1.358.084 1.952.254a4.968 4.968 0 0 1-.17-1.956 4.866 4.866 0 0 1 2.207-3.57zm73.17 0c1.188.765 2.037 2.041 2.292 3.571.085.68 0 1.361-.17 1.956.594-.17 1.273-.34 1.952-.255 1.528.085 2.802.85 3.65 2.04-.933 1.021-2.376 1.616-3.904 1.531-1.273-.084-2.462-.765-3.31-1.615-.934-.765-1.613-1.956-1.783-3.231-.17-1.531.34-2.976 1.273-3.997zm-76.311-4.081c.849 1.105 1.103 2.55.764 3.911-.34 1.276-1.104 2.296-2.122 2.891-.85.765-2.038 1.19-3.31 1.106a4.801 4.801 0 0 1-3.566-1.871 4.694 4.694 0 0 1 3.735-1.53c.679.084 1.358.254 1.867.51a5.134 5.134 0 0 1 .085-1.956c.34-1.36 1.358-2.466 2.547-3.061zm79.537 0c1.188.595 2.122 1.7 2.546 3.06.17.681.17 1.361.085 1.956.51-.255 1.188-.425 1.868-.51a4.694 4.694 0 0 1 3.734 1.53 4.801 4.801 0 0 1-3.565 1.872 4.823 4.823 0 0 1-3.395-1.106c-.934-.595-1.783-1.615-2.037-2.891-.425-1.36-.085-2.806.764-3.911zM14.345 82.84c.595 1.19.764 2.55.255 3.911-.424 1.106-1.273 2.041-2.292 2.466-.933.68-2.122.936-3.395.766-1.358-.255-2.462-1.106-3.14-2.296 1.018-.85 2.376-1.19 3.734-1.02a5.18 5.18 0 0 1 1.698.765c0-.68.085-1.276.34-1.87.509-1.362 1.527-2.297 2.8-2.722zm84.97 0c1.188.425 2.292 1.36 2.801 2.721.255.595.34 1.19.255 1.87a5.657 5.657 0 0 1 1.782-.765c1.358-.17 2.717.17 3.735 1.02-.679 1.191-1.782 2.042-3.14 2.297-1.274.17-2.462-.085-3.396-.766-1.018-.425-1.867-1.36-2.292-2.466-.509-1.36-.424-2.72.255-3.911zm-87.431-4.592c.594 1.19.679 2.466.17 3.742a4.213 4.213 0 0 1-2.292 2.38c-.934.596-2.038.85-3.226.596-1.358-.255-2.377-1.02-2.97-2.126.933-.85 2.291-1.19 3.564-.935.594.085 1.189.34 1.698.68 0-.595.085-1.19.34-1.786.509-1.275 1.527-2.126 2.716-2.55zm89.893 0c1.188.425 2.207 1.276 2.716 2.551.255.595.34 1.19.34 1.786.509-.34 1.018-.595 1.697-.68 1.273-.256 2.632.085 3.565.935-.594 1.105-1.697 1.87-2.97 2.126-1.189.255-2.293 0-3.226-.595a4.213 4.213 0 0 1-2.292-2.381c-.51-1.276-.425-2.636.17-3.742zm-91.421-4.421c.34 1.19.17 2.465-.51 3.57C9.253 78.42 8.32 79.015 7.3 79.27c-1.019.425-2.122.425-3.226 0a4.43 4.43 0 0 1-2.461-2.636c1.103-.596 2.376-.68 3.65-.17.51.17 1.018.51 1.443.935.085-.595.255-1.106.594-1.616.68-1.105 1.868-1.785 3.056-1.955zm92.949 0c1.188.17 2.376.85 3.055 1.955.34.51.51 1.02.595 1.616.424-.425.933-.765 1.443-.935 1.188-.51 2.546-.426 3.565.17-.34 1.19-1.189 2.125-2.462 2.636-1.019.425-2.122.34-3.14 0-1.02-.256-1.953-.85-2.547-1.871-.764-1.106-.849-2.381-.51-3.571zM9.337 69.066c.17 1.19-.085 2.38-.933 3.401-.68.85-1.613 1.276-2.632 1.445-1.019.256-2.037.17-3.056-.425-1.103-.595-1.782-1.615-2.037-2.72 1.103-.426 2.377-.426 3.48.17.51.255.934.68 1.274 1.105.17-.51.424-1.02.764-1.446.764-1.02 1.952-1.53 3.14-1.53zm94.986 0c1.188 0 2.292.51 3.14 1.53.34.425.595.936.765 1.446.34-.425.764-.85 1.273-1.106a3.983 3.983 0 0 1 3.395-.17c-.17 1.106-.933 2.126-2.037 2.721-.934.596-2.037.68-2.97.425-1.02-.17-1.953-.595-2.717-1.445-.764-1.02-1.019-2.21-.849-3.401zm-96.09-4.932A3.89 3.89 0 0 1 7.3 67.28c-.764.765-1.698 1.19-2.631 1.276-1.019.17-2.038 0-2.887-.51A4.076 4.076 0 0 1 0 65.238a3.675 3.675 0 0 1 3.226.425c.509.256.848.68 1.188 1.106.17-.51.424-.935.764-1.36.849-.936 1.952-1.361 3.056-1.276zm100.165 1.275c.424.426.679.85.848 1.36.255-.424.68-.85 1.189-1.105a3.675 3.675 0 0 1 3.225-.425 4.075 4.075 0 0 1-1.782 2.806c-.934.51-1.953.68-2.886.51-.934-.084-1.868-.51-2.632-1.275-.764-.85-1.103-2.04-1.018-3.146 1.103-.085 2.292.34 3.056 1.275zM8.064 59.287c0 1.105-.424 2.126-1.273 2.891-.764.68-1.698 1.02-2.632.935-.933.086-1.867-.17-2.716-.765a3.59 3.59 0 0 1-1.358-2.806c1.019-.255 2.122 0 3.056.68.424.34.764.766.933 1.19.255-.424.51-.85.934-1.19.85-.765 1.953-1.105 3.056-.935zm100.588.935c.34.34.68.766.934 1.19.17-.424.51-.85.934-1.19.933-.68 2.037-.935 3.056-.68 0 1.106-.51 2.126-1.444 2.806a3.704 3.704 0 0 1-2.63.765c-.935.086-1.868-.255-2.632-.935-.85-.765-1.274-1.786-1.274-2.891 1.019-.17 2.207.17 3.056.935zm4.584-5.697c0 1.02-.424 2.041-1.188 2.806-.764.596-1.613.936-2.547.85-.849.086-1.783-.084-2.546-.68-.85-.68-1.359-1.615-1.359-2.636 1.019-.255 2.038-.085 2.971.596.34.34.68.68.934 1.105.17-.425.424-.85.849-1.19.764-.68 1.867-1.02 2.886-.85zm-109.926.85c.34.34.68.766.85 1.191.254-.425.593-.765.933-1.105.934-.68 1.952-.85 2.971-.596-.085 1.02-.51 1.956-1.443 2.636-.68.596-1.613.766-2.547.68-.848.086-1.782-.254-2.461-.85-.85-.765-1.189-1.785-1.189-2.806 1.019-.17 2.038.17 2.886.85zm108.653-6.122c.17.936 0 1.956-.68 2.721-.594.766-1.358 1.19-2.206 1.276-.85.255-1.698.17-2.547-.255-.849-.51-1.443-1.36-1.698-2.296.934-.34 1.953-.34 2.886.17.425.17.764.51 1.02.85.169-.425.339-.85.678-1.275.594-.766 1.613-1.19 2.547-1.19zm-110.265 0c.933 0 1.867.425 2.546 1.19.34.426.51.85.68 1.276.254-.34.593-.68 1.018-.85.934-.51 1.952-.51 2.886-.17-.255.935-.849 1.785-1.783 2.296-.764.425-1.697.51-2.461.255-.85-.085-1.613-.51-2.207-1.276-.68-.765-.85-1.785-.68-2.72zm108.991-4.506c.255.85.085 1.87-.424 2.636-.51.765-1.273 1.19-2.037 1.36-.764.255-1.613.255-2.377-.085a3.239 3.239 0 0 1-1.783-2.04c.764-.426 1.783-.426 2.717-.086.424.17.764.51 1.018.765.085-.425.255-.85.51-1.19.594-.85 1.443-1.275 2.376-1.36zm-107.718 0c.934.085 1.782.51 2.377 1.36.254.34.424.765.51 1.19.254-.255.593-.595 1.018-.765.933-.34 1.867-.34 2.716.085a3.239 3.239 0 0 1-1.783 2.041c-.764.34-1.612.34-2.376.085-.764-.17-1.528-.595-2.038-1.36-.509-.766-.679-1.786-.424-2.636zm105.936-4.592c.34.765.255 1.7-.17 2.55a3.67 3.67 0 0 1-1.782 1.446c-.68.255-1.528.34-2.292.085-.85-.34-1.528-.935-1.868-1.785.764-.425 1.698-.596 2.547-.255.424.085.764.34 1.103.595 0-.425.17-.765.34-1.19a3.345 3.345 0 0 1 2.122-1.446zm-104.154 0c.85.17 1.613.68 2.038 1.445.254.426.34.766.424 1.19.255-.254.68-.51 1.019-.594a2.916 2.916 0 0 1 2.546.255c-.254.85-.933 1.445-1.782 1.785-.764.255-1.613.17-2.292-.085a3.669 3.669 0 0 1-1.783-1.445c-.424-.85-.509-1.786-.17-2.551zm102.117-4.422c.34.765.424 1.7 0 2.466-.34.68-.934 1.19-1.528 1.446a3.1 3.1 0 0 1-2.122.255c-.85-.17-1.528-.766-1.868-1.53a2.627 2.627 0 0 1 2.377-.426c.34.085.679.255 1.019.51 0-.425.084-.765.254-1.105a3.145 3.145 0 0 1 1.868-1.616zm-100.08 0a3.145 3.145 0 0 1 1.868 1.616c.17.34.255.68.255 1.105.255-.255.679-.425 1.018-.51a2.627 2.627 0 0 1 2.377.425c-.34.765-1.018 1.36-1.867 1.53-.764.17-1.443.086-2.122-.254-.68-.255-1.189-.766-1.528-1.446-.425-.765-.34-1.7 0-2.466zm97.703-3.741c.424.68.51 1.53.255 2.296-.255.68-.764 1.19-1.359 1.53-.509.425-1.188.595-1.867.51-.849-.085-1.528-.595-1.952-1.275a2.88 2.88 0 0 1 2.207-.68c.34.085.679.17 1.018.425-.085-.425 0-.766.085-1.106.255-.765.849-1.36 1.613-1.7zm-95.325 0c.679.34 1.273.935 1.612 1.7.085.34.085.68.085 1.106.34-.255.68-.34 1.019-.425a2.881 2.881 0 0 1 2.207.68c-.425.68-1.104 1.19-1.953 1.275a2.731 2.731 0 0 1-1.952-.51c-.594-.34-1.018-.85-1.273-1.53a2.728 2.728 0 0 1 .255-2.296zm2.376-3.317c.594.256 1.104.85 1.358 1.616.085.34.085.68.085 1.02.255-.17.595-.255.934-.255.764-.085 1.528.255 2.037.766-.424.51-1.103.935-1.867 1.02a2.19 2.19 0 0 1-1.783-.595c-.594-.34-1.018-.85-1.188-1.446-.17-.765 0-1.53.424-2.126zm90.572 0c.425.596.594 1.361.425 2.126a3.323 3.323 0 0 1-1.189 1.446c-.51.425-1.103.68-1.782.595-.764-.085-1.443-.51-1.868-1.02.51-.51 1.273-.85 2.037-.766.34 0 .68.085.934.255 0-.34 0-.68.085-1.02.17-.765.764-1.36 1.358-1.616zM99.57 25.7c.424.51.679 1.19.509 1.956-.085.595-.425 1.105-.934 1.446-.34.425-.934.68-1.613.765-.679 0-1.358-.34-1.782-.85.424-.51 1.018-.85 1.782-.85.34 0 .68 0 .934.17-.085-.34-.085-.68 0-.936.085-.765.51-1.36 1.104-1.7zm-85.48 0c.595.34 1.02.936 1.104 1.701.085.255.085.595 0 .935.255-.17.595-.17.934-.17.68 0 1.358.34 1.783.85a2.43 2.43 0 0 1-1.868.85c-.594-.084-1.188-.34-1.613-.764-.424-.34-.764-.85-.848-1.446-.17-.765.084-1.445.509-1.956zM46.093 4.981l.356.006c4.624.141 8.964 3.021 12.324 7l.435.53c.287.355.566.719.836 1.09l.373-.357c.503-.47 1.031-.916 1.58-1.32l.287-.204c1.637-1.137 3.45-1.906 5.338-1.906h11.171l-.845 1.297-.12.171a2.934 2.934 0 0 1-2.411 1.203H67.62l-.274.008c-1.283.079-2.579.7-3.777 1.579l-.428.327c-.563.449-1.099.947-1.6 1.466l.27.46c2.138 3.695 3.487 7.764 3.65 11.292h-2.66l-.03-.43c-.243-2.878-1.344-6.136-3.046-9.167l-.228.316c-.147.208-.287.413-.418.615l-.24.373c-.16.253-.32.516-.475.787l.245.495c.32.665.615 1.351.874 2.047l.25-.498c.168-.327.341-.646.517-.952l.243.592c.39.991.712 1.997.948 3.001l-.079.194-.076.193-.131.359c-.254.716-.446 1.422-.537 2.075h-2.675l.005-.061-.044-.42c-.14-1.125-.457-2.307-.884-3.468l-.081-.215-.083-.216-.084.216-.081.215-.155.436c-.398 1.165-.678 2.342-.773 3.448l.006.065h-2.677l-.054-.33c-.123-.67-.34-1.386-.614-2.104l-.075-.193-.077-.194.152-.602a23.09 23.09 0 0 1 1.037-2.987l.262.465c.173.317.342.646.504.981l.202-.52c.277-.69.586-1.368.917-2.022l-.234-.4a21.777 21.777 0 0 0-.48-.76l-.203-.305a18.97 18.97 0 0 0-.443-.622l-.25.456c-1.64 3.049-2.67 6.297-2.823 9.137H48.25l.026-.444c.261-3.57 1.692-7.646 3.895-11.308l-.382-.385a15.436 15.436 0 0 0-1.646-1.408l-.258-.185c-1.214-.84-2.514-1.402-3.794-1.402h-7.795l-.208-.007c-.963-.06-1.786-.544-2.322-1.367L34.92 9.82h11.171l.332.008c1.879.089 3.68.923 5.293 2.103l.408.31c.539.423 1.057.885 1.546 1.366l.377-.504.385-.496.424.419c.415.422.806.854 1.17 1.286l.117.139.116.139-.389.517-.378.526.3.381c.392.507.746 1.007 1.06 1.48l.004.009.004-.009.242-.36c.333-.485.708-.993 1.117-1.505l-.355-.494c-.36-.49-.735-.965-1.125-1.428l-.257-.3c-2.937-3.37-6.61-5.755-10.391-5.755H33.365l-.194-.006a3.29 3.29 0 0 1-.556-.082l4.647 10.373.04.094a.7.7 0 0 1-.016.503l-.117.263a6.186 6.186 0 0 1-2.166 2.509l-.232.147a6.195 6.195 0 0 1-3.196.888l-.286-.007a6.194 6.194 0 0 1-3.14-1.028l-.24-.168a6.194 6.194 0 0 1-2.007-2.515l-.031-.074-.029-.076-.022-.098a.708.708 0 0 1 .054-.401L30.93 6.685l.04-.077.049-.072-.095-.124-.09-.134-.846-1.297h16.104zm51.016 18.082c.424.425.594 1.106.51 1.701-.086.595-.425 1.105-.85 1.446-.34.34-.933.595-1.443.595-.679.085-1.273-.255-1.697-.68.34-.51.933-.85 1.612-.85.34 0 .595.084.85.17a1.748 1.748 0 0 1 0-.936c.084-.595.509-1.19 1.018-1.446zm-80.556 0c.51.255.934.85 1.019 1.446.085.34 0 .595 0 .935.255-.085.51-.17.849-.17.679 0 1.273.34 1.613.85-.425.426-1.019.766-1.698.68a2.046 2.046 0 0 1-1.443-.594c-.424-.34-.764-.85-.849-1.446-.085-.595.085-1.276.51-1.7zm77.925-2.296c.424.426.679.936.594 1.531 0 .595-.255 1.02-.594 1.36-.34.426-.764.68-1.359.766-.594.085-1.188-.17-1.612-.51.34-.51.848-.85 1.443-.936.254 0 .594 0 .848.085-.084-.255-.17-.51-.17-.85.086-.595.425-1.105.85-1.446zm-75.293 0c.424.34.764.85.764 1.446.085.34 0 .595-.085.85.255-.085.51-.085.849-.085.594.085 1.103.425 1.358.936-.34.34-.934.595-1.528.51-.594-.085-1.019-.34-1.358-.765-.34-.34-.594-.766-.594-1.361-.085-.595.17-1.105.594-1.53zM59.917 0l.312.008a5.852 5.852 0 0 1 2.652.768l.202.112c.402.207.802.322 1.266.373l.175.023c.913.14 1.464.637 2.032 1.707l-.267-.04c-1.409-.196-2.566-.052-3.754.831l-.153.121c-.831.7-1.022 1.613-1.054 3.119.161-.094 3.335-1.964 6.817-1.964h15.996l-.838 1.28-.089.128-.093.123.054.07.042.08 5.006 11.104.04.093a.685.685 0 0 1-.016.496l-.116.26a6.142 6.142 0 0 1-2.15 2.475l-.252.157a6.186 6.186 0 0 1-3.156.865l-.308-.008a6.189 6.189 0 0 1-3.096-1.014l-.244-.17a6.157 6.157 0 0 1-1.901-2.29l-.045-.094a1.438 1.438 0 0 1-.115-.304l-.014-.107a.702.702 0 0 1 .06-.323l4.632-10.277-.182.04a3.131 3.131 0 0 1-.572.052H68.145l-.333.006c-2.774.102-5.478 1.468-7.862 3.544l-.432-.49c-.44-.486-.901-.962-1.383-1.418l-.433-.404a21.218 21.218 0 0 0-3.815-2.793l.076-.356c.355-1.54 1.031-3.005 2.059-4.172C56.977.526 58.442 0 59.917 0zm31.589 19.832c.509.425.848 1.106.848 1.786-.679.17-1.443 0-1.952-.51-.594-.426-.849-1.106-.849-1.786.68-.17 1.358 0 1.953.51zm-67.399-.51c0 .68-.254 1.36-.849 1.786-.594.51-1.273.68-1.952.51 0-.68.34-1.36.849-1.786.594-.51 1.273-.68 1.952-.51zm51.063-4.379-.875 1.262-.122.166c-.594.75-1.474 1.167-2.487 1.167h-3.87l-.099.008c-.378.06-.957.446-1.573.956l-.315.266a16.6 16.6 0 0 0-1.185 1.157l-.289-.645a29.87 29.87 0 0 0-.959-1.891l.31-.294c.207-.192.42-.378.631-.553l.226-.18c1.06-.828 2.196-1.419 3.252-1.419h7.355zm-28.873 0 .228.01c1.068.082 2.203.73 3.25 1.59l.318.27c.21.184.42.377.624.576l-.334.622a30.04 30.04 0 0 0-.914 1.914l-.281-.295a14.99 14.99 0 0 0-1.218-1.128l-.168-.136c-.61-.486-1.164-.828-1.505-.828h-3.87l-.216-.007c-.993-.059-1.842-.528-2.396-1.326l-.872-1.262h7.354zm35.67-5.886-4.033 9.016-.032.09a.51.51 0 0 0 .042.358l.051.083c.076.101.18.168.308.194.723.152 2.012.22 3.343.22h.307c1.434-.012 2.87-.1 3.656-.249l.094-.024a.497.497 0 0 0 .274-.248l.037-.088a.51.51 0 0 0-.023-.368l-4.023-8.984zm-50.263 0-4.034 9.016-.032.09a.5.5 0 0 0 .043.358l.05.083c.075.101.18.168.308.194.723.152 2.012.22 3.343.22h.307c1.433-.012 2.87-.1 3.656-.249l.094-.024a.5.5 0 0 0 .273-.248l.037-.088a.506.506 0 0 0-.023-.368l-4.022-8.984zM59.12 1.359l-.167.002c-.388.02-.748.143-.99.342.238.073.453.108.646.108l.12-.004c.077-.007.15-.02.22-.038l.234-.037c.383-.05.731-.037 1.044.037l-.1-.087c-.249-.192-.613-.312-1.007-.323z" fill="url(#a)"/>
        <path d="M36.088 65.948a63.03 63.03 0 0 0 2.68 1.632c.347.2.405.383.216.74a85.389 85.389 0 0 0-1.688 3.359c-.194.41-.373.38-.702.173-1.041-.653-2.099-1.28-3.15-1.917-.157-.095-.316-.184-.455-.265-.292-.058-.312.181-.388.323-.295.553-.595 1.104-.848 1.676-.176.396-.359.405-.7.183a68.934 68.934 0 0 0-2.729-1.703c-.36-.213-.371-.409-.186-.75a69.156 69.156 0 0 0 1.662-3.194c.228-.475.438-.454.827-.21.997.625 2.043 1.176 3.017 1.834.585.395.836.252 1.07-.335.182-.459.46-.879.665-1.33.165-.363.339-.455.709-.216zm15.698-24.594c1.069 2.257 1.436 4.696 1.573 7.143.08 1.434-.718 2.717-1.407 3.942-1.747 3.103-1.025 2.598-4.079 1.57-1.586-.533-3.138-1.178-4.574-2.055-.315-.192-.519-.232-.763.129-.423.627-1.038 1.09-1.619 1.642.842.394 1.643.727 2.289 1.32.89.82 1.302 1.692.883 2.982-1.077 3.328-2.8 6.11-5.968 7.834-.476.259-.862.31-1.35-.032-.913-.64-1.265-.529-2.087.297-.376.377-.513 1.14-1.056 1.129-.45-.01-.888-.499-1.334-.772-.245-.15-.493-.296-.744-.438-1.501-.846-1.853-.805-2.818.63-.41.61-.77.672-1.401.402-2.877-1.23-4.216-3.745-3.735-7.18.436-3.116 1.672-5.963 3.036-8.766.189-.389.387-.31.678-.168.3.147.541.237.357.678-.626 1.493-1.187 3.014-1.564 4.59-.86 3.591.13 5.21 3.785 5.624 3.047.346 6.13.27 9.108-.687.445-.143.869-.358 1.292-.561.555-.267.53-.573.035-.892-1.26-.814-2.66-1.206-4.136-1.349-.625-.06-1.256-.06-1.884-.097-.428-.025-.54-.23-.368-.628.621-1.437 1.24-2.876 1.835-4.324.138-.334.402-.378.68-.437.537-.115 1.084-.192 1.614-.335 1.996-.537 3.532-1.669 4.483-3.529.868-1.697 1.715-3.404 2.6-5.092a9.69 9.69 0 0 1 3.161-3.532c1.557-1.062 2.67-.746 3.478.962zm7.171-9.338c.289.083.159.405.176.619.372 4.636.723 9.273 1.106 13.908.105 1.275.307 2.542.734 3.757.67 1.906 2.113 2.994 4.136 3.029.372.006.745.016 1.117.028l1.118.038c2.423.083 4.846.13 7.232-.525.323-.089.648-.17.972-.254-2.538-.994-5.139-1.681-7.812-2.286 1.48-2.88 3.366-5.23 6.538-6.26 1.12-.364 2.224-.772 3.34-1.145.309-.103.486-.149.285-.566-.225-.467-.026-.977.19-1.433.572-1.216 1.376-2.282 2.212-3.322.33-.411.794-.583 1.338-.46 1.627.37 3.12 1.066 4.525 1.935.732.453.932 1.158.551 2.083-1.093 2.657-2.77 4.658-5.893 4.965-1.877.185-3.747.442-5.63.669-.019.3.266.27.424.339 4.173 1.84 8.482 3.16 13.077 3.413 1.342.074 1.34.121.667 1.233-.662 1.097-1.368 2.17-1.973 3.297-.351.655-.802.843-1.512.814-3.07-.126-6.128-.08-9.157.572-2.387.513-4.657 1.42-7.033 1.96-2.144.487-4.314.563-6.487.287-2.151-.273-3.625-1.492-4.575-3.411-.782-1.582-.99-3.3-1.205-5.004-.564-4.457-1.057-8.923-1.591-13.383-.06-.497.044-.9.347-1.307.764-1.028 1.483-2.09 2.233-3.13.141-.196.22-.555.55-.46zm-13.37 14.32c1.408.758 2.749 1.402 4.31 1.916-.42-1.205-.502-2.49-1.777-2.905-.975-.318-1.801.22-2.532.989zm28.191-12.723c.106.868-.134 1.698-.412 2.499-.148.426-.126.68.245.972.442.348.311 1.529-.16 1.764-.286.144-.424-.16-.596-.298-.427-.34-.713-.376-1.093.146-1.343 1.846-3.342 2.77-5.242 3.824-.224.125-.371.116-.527-.123-.155-.238-.09-.391.076-.57.52-.565.966-1.186 1.156-1.95.117-.47.302-1.02-.128-1.395-.461-.402-.973-.134-1.415.125-.601.353-1.185.741-1.67 1.264-.119.128-.229.34-.455.149-.175-.148-.202-.31-.062-.498.847-1.133 1.641-2.332 3.013-2.869 1.274-.499 2.101.13 2.081 1.535-.01.722-.333 1.369-.477 2.152a13.224 13.224 0 0 0 2.973-2.307c.277-.285.174-.417-.08-.634-1.739-1.483-1.731-2.475.019-4.004.284-.248.583-.482.896-.69.969-.64 1.714-.281 1.858.908zm-2.004.568c-.388.027-.727.185-.908.502-.177.31.153.49.347.652.356.297.75.553 1.207.885.313-.579.158-1.083.041-1.572-.074-.315-.322-.493-.687-.467z" fill="#951A1D"/>
        <path d="M28.187 91v-5.488L30.063 91h2.296l1.862-5.446V91h2.744v-9.87h-3.304l-2.422 6.412-2.478-6.412h-3.318V91h2.744zm15.278.098c.924 0 1.773-.217 2.548-.651a4.8 4.8 0 0 0 1.834-1.806c.448-.77.672-1.64.672-2.611 0-.97-.224-1.841-.672-2.611a4.764 4.764 0 0 0-1.827-1.799 5.157 5.157 0 0 0-2.555-.644c-.924 0-1.773.215-2.548.644a4.8 4.8 0 0 0-1.841 1.799c-.453.77-.679 1.64-.679 2.611 0 .97.226 1.841.679 2.611a4.851 4.851 0 0 0 1.841 1.806 5.125 5.125 0 0 0 2.548.651zm0-2.548c-.71 0-1.265-.226-1.666-.679-.401-.453-.602-1.066-.602-1.841 0-.784.2-1.402.602-1.855.401-.453.957-.679 1.666-.679.7 0 1.253.226 1.659.679.406.453.609 1.071.609 1.855 0 .765-.203 1.377-.609 1.834-.406.457-.959.686-1.659.686zm9.23 2.45v-3.962h3.346V91h2.744v-9.87h-2.744v3.71h-3.346v-3.71h-2.744V91h2.744zm10.07 0 .532-1.61h3.5l.532 1.61h2.898l-3.584-9.87h-3.164L59.881 91h2.884zm3.346-3.71h-2.114l1.05-3.192 1.064 3.192zM74.067 91v-5.488L75.943 91h2.296l1.862-5.446V91h2.744v-9.87h-3.304l-2.422 6.412-2.478-6.412h-3.318V91h2.744zm13.29 0v-9.87h-2.744V91h2.744z" fill="#951A1D" fill-rule="nonzero"/>
    </g>
</svg>
