<svg width="86" height="86" viewBox="0 0 86 86" xmlns="http://www.w3.org/2000/svg">
    <defs>
        <linearGradient x1="28.463%" y1="92.578%" x2="74.144%" y2="0%" id="a">
            <stop stop-color="#E5AB66" offset="0%"/>
            <stop stop-color="#EAB68D" offset="100%"/>
        </linearGradient>
    </defs>
    <g fill="none" fill-rule="evenodd">
        <circle fill="#951A1D" cx="43" cy="43" r="43"/>
        <path d="M40.714 61.337c.394.888.345 1.975-.148 2.864-.246.444-.542.79-.887 1.036.444.149.838.346 1.232.642a3.378 3.378 0 0 1 1.232 2.568c-.936.197-1.971-.05-2.76-.691-.69-.593-1.134-1.383-1.232-2.222-.197-.79-.148-1.68.296-2.47a3.316 3.316 0 0 1 2.267-1.727zm-15.428 0c.937.197 1.775.79 2.267 1.728.444.79.493 1.679.296 2.469-.098.84-.542 1.63-1.232 2.222-.789.642-1.824.888-2.76.69 0-.937.443-1.925 1.232-2.567a4.205 4.205 0 0 1 1.232-.642c-.345-.246-.69-.592-.887-1.036-.493-.89-.542-1.976-.148-2.864zM22.23 60.2c.887.346 1.627 1.086 1.922 2.024.296.84.197 1.68-.148 2.42-.197.79-.739 1.481-1.478 1.926a3.205 3.205 0 0 1-2.76.197 3.13 3.13 0 0 1 1.577-2.222 3.063 3.063 0 0 1 1.281-.444 2.932 2.932 0 0 1-.69-1.136c-.295-.938-.148-1.926.296-2.765zm21.49 0c.494.84.641 1.827.346 2.765-.148.444-.395.84-.69 1.136.443.05.887.197 1.281.444.838.494 1.43 1.333 1.577 2.222a3.205 3.205 0 0 1-2.76-.197c-.74-.445-1.281-1.136-1.478-1.926-.395-.74-.444-1.58-.148-2.42.295-.938 1.035-1.678 1.873-2.024zm3.106-1.284c.493.74.74 1.679.493 2.667a3.44 3.44 0 0 1-.542 1.135c.394 0 .838.099 1.232.297a3.267 3.267 0 0 1 1.725 2.073 3.137 3.137 0 0 1-2.662 0c-.788-.345-1.33-.987-1.626-1.728a3.265 3.265 0 0 1-.345-2.37 3.174 3.174 0 0 1 1.725-2.074zm-27.652 0a3.174 3.174 0 0 1 1.725 2.074c.197.84.05 1.679-.345 2.37-.296.74-.838 1.383-1.626 1.728-.888.395-1.824.395-2.662 0a3.267 3.267 0 0 1 1.725-2.073 2.821 2.821 0 0 1 1.232-.297 3.44 3.44 0 0 1-.542-1.135c-.246-.988-.05-1.926.493-2.667zm12.816-2.24c.345 0 .69.297.69.692v5.234a.706.706 0 0 1-.69.69.674.674 0 0 1-.69-.69v-5.234c0-.362.248-.641.593-.685l.097-.007zm2.02 0c.395 0 .69.297.69.692v5.234a.674.674 0 0 1-.69.69.706.706 0 0 1-.69-.69v-5.234c0-.362.29-.641.604-.685l.086-.007zm-17.596.512c.74.494 1.281 1.284 1.38 2.222.098.79-.148 1.58-.592 2.173-.394.69-.985 1.234-1.774 1.48-.887.297-1.824.1-2.563-.345.296-.79.986-1.481 1.873-1.777.443-.1.838-.148 1.281-.1-.246-.345-.345-.79-.394-1.184-.148-.938.197-1.827.789-2.469zm33.123 0c.64.642.937 1.53.838 2.469-.05.395-.197.84-.394 1.185.394-.05.838 0 1.232.099.936.296 1.577.987 1.922 1.777-.74.445-1.676.642-2.563.346-.789-.247-1.38-.79-1.774-1.481a3.046 3.046 0 0 1-.592-2.173c.099-.938.64-1.728 1.331-2.222zm-13.456-.907c.345 0 .69.346.69.692v5.283a.706.706 0 0 1-.69.691.674.674 0 0 1-.69-.691v-5.283a.71.71 0 0 1 .593-.685l.097-.007zm-6.162 0c.395 0 .69.346.69.692v5.283a.674.674 0 0 1-.69.691.674.674 0 0 1-.69-.691v-5.283a.71.71 0 0 1 .594-.685l.096-.007zM13.9 55.165c.64.543 1.084 1.382 1.084 2.271 0 .79-.345 1.53-.838 2.074-.394.592-1.084 1.037-1.823 1.234a3.093 3.093 0 0 1-2.465-.642c.394-.74 1.134-1.284 2.021-1.48.444-.05.838-.05 1.232 0-.197-.347-.246-.742-.246-1.186-.05-.889.394-1.728 1.035-2.271zm38.2 0a2.995 2.995 0 0 1 .789 3.456c.394-.05.788-.05 1.232 0 .887.197 1.577.74 2.021 1.481-.69.543-1.577.79-2.465.642-.788-.197-1.429-.642-1.823-1.234a2.913 2.913 0 0 1-.838-2.074c0-.889.443-1.728 1.084-2.271zm-40.369-2.222c.592.592.887 1.432.789 2.32a2.83 2.83 0 0 1-1.085 1.877 2.868 2.868 0 0 1-1.922.938 2.828 2.828 0 0 1-2.218-.889c.444-.691 1.232-1.136 2.12-1.185.394-.05.788.05 1.133.148-.098-.345-.148-.74-.098-1.135a2.826 2.826 0 0 1 1.281-2.074zm42.489 0c.69.444 1.183 1.185 1.33 2.074.05.395 0 .79-.098 1.135.345-.099.74-.197 1.134-.148.887.05 1.626.494 2.119 1.185-.542.593-1.38.938-2.267.889-.74-.05-1.43-.444-1.923-.938a2.98 2.98 0 0 1-1.035-1.877 2.952 2.952 0 0 1 .74-2.32zm-44.313-2.37c.493.642.641 1.481.444 2.271-.197.74-.64 1.333-1.232 1.679a2.606 2.606 0 0 1-1.923.642 2.788 2.788 0 0 1-2.07-1.087 2.726 2.726 0 0 1 2.169-.888c.394.049.789.148 1.084.296-.049-.346-.049-.74.05-1.136.197-.79.788-1.432 1.478-1.777zm46.186 0c.69.345 1.232.987 1.478 1.777.099.395.099.79.05 1.136.295-.148.69-.247 1.084-.296a2.726 2.726 0 0 1 2.169.888 2.788 2.788 0 0 1-2.07 1.087 2.8 2.8 0 0 1-1.972-.642c-.542-.346-1.035-.938-1.183-1.679-.246-.79-.05-1.63.444-2.271zM8.33 48.103c.345.692.444 1.482.148 2.272-.246.642-.74 1.185-1.33 1.432-.543.395-1.233.543-1.973.445-.788-.149-1.429-.642-1.823-1.334.591-.493 1.38-.69 2.168-.592.395.099.69.247.986.444 0-.395.05-.74.197-1.086a2.584 2.584 0 0 1 1.627-1.58zm49.34 0c.69.248 1.33.79 1.627 1.581.147.346.197.691.147 1.086.296-.197.641-.345 1.036-.444.788-.099 1.577.099 2.168.592-.394.692-1.035 1.185-1.823 1.334-.74.098-1.43-.05-1.972-.445-.592-.247-1.085-.79-1.331-1.432-.296-.79-.246-1.58.148-2.271zM6.9 45.439c.346.69.395 1.431.1 2.172a2.446 2.446 0 0 1-1.332 1.383c-.542.345-1.183.493-1.873.345-.788-.148-1.38-.592-1.725-1.234.542-.494 1.331-.691 2.07-.543.345.05.69.197.986.395 0-.346.05-.692.197-1.037.296-.74.888-1.235 1.578-1.481zm52.2 0c.69.246 1.28.74 1.577 1.48.148.346.197.692.197 1.038.296-.198.591-.346.986-.395.739-.148 1.528.05 2.07.543-.345.642-.986 1.086-1.725 1.234-.69.148-1.331 0-1.873-.345A2.447 2.447 0 0 1 59 47.61c-.296-.74-.247-1.53.098-2.172zM6.012 42.87a2.58 2.58 0 0 1-.295 2.074c-.345.592-.888.938-1.48 1.086-.59.247-1.231.247-1.872 0a2.573 2.573 0 0 1-1.43-1.53c.641-.346 1.38-.396 2.12-.1.296.1.592.297.838.544.05-.346.148-.642.345-.938.394-.642 1.084-1.037 1.774-1.136zm53.974 0c.69.099 1.38.494 1.774 1.136.197.296.296.592.345.938.247-.247.542-.445.838-.543.69-.297 1.479-.247 2.07.098-.197.692-.69 1.235-1.43 1.531-.59.247-1.231.198-1.823 0-.591-.148-1.134-.494-1.479-1.086-.443-.642-.493-1.383-.295-2.074zM5.422 40.105c.098.691-.05 1.382-.542 1.975-.395.494-.937.74-1.528.84a2.277 2.277 0 0 1-1.775-.248 2.376 2.376 0 0 1-1.183-1.58c.641-.246 1.38-.246 2.021.1.296.147.542.394.74.641.098-.296.246-.592.443-.84.444-.592 1.134-.888 1.824-.888zm55.156 0c.69 0 1.33.296 1.824.889.197.247.345.543.443.84.198-.248.444-.495.74-.643a2.313 2.313 0 0 1 1.971-.099c-.098.642-.542 1.235-1.183 1.58a2.16 2.16 0 0 1-1.725.247c-.591-.098-1.133-.345-1.577-.839a2.614 2.614 0 0 1-.493-1.975zM4.781 37.24a2.26 2.26 0 0 1-.542 1.827 2.484 2.484 0 0 1-1.528.74c-.592.1-1.183 0-1.676-.296A2.367 2.367 0 0 1 0 37.882a2.134 2.134 0 0 1 1.873.248c.296.148.493.395.69.642.099-.297.247-.543.444-.79.493-.543 1.133-.79 1.774-.74zm58.163.74c.246.248.394.494.493.79.148-.246.394-.493.69-.641A2.134 2.134 0 0 1 66 37.883a2.367 2.367 0 0 1-1.035 1.63 2.553 2.553 0 0 1-1.676.296 2.484 2.484 0 0 1-1.528-.741c-.444-.494-.64-1.185-.591-1.827.64-.05 1.33.198 1.774.74zM4.683 34.428c0 .642-.247 1.234-.74 1.678-.443.395-.986.593-1.528.544-.542.049-1.084-.1-1.577-.445a2.085 2.085 0 0 1-.789-1.63c.592-.147 1.233 0 1.775.396.246.197.443.444.542.691.148-.247.296-.494.542-.691a2.146 2.146 0 0 1 1.775-.543zm58.409.543c.197.197.394.444.542.691.099-.247.296-.494.542-.691.542-.395 1.183-.543 1.775-.395 0 .642-.296 1.234-.838 1.63a2.15 2.15 0 0 1-1.528.444c-.542.049-1.085-.149-1.528-.544a2.213 2.213 0 0 1-.74-1.678c.592-.1 1.282.098 1.775.543zm2.662-3.308c0 .592-.247 1.185-.69 1.629-.444.346-.937.543-1.48.494-.492.05-1.034-.05-1.478-.395-.493-.395-.789-.938-.789-1.53.592-.149 1.183-.05 1.726.345.197.197.394.395.542.642.098-.247.246-.494.493-.692a2.07 2.07 0 0 1 1.676-.493zm-63.832.493c.197.198.395.445.493.692.148-.247.345-.445.542-.642.543-.395 1.134-.494 1.726-.346-.05.593-.296 1.136-.838 1.53-.395.346-.937.445-1.48.396-.492.05-1.034-.148-1.428-.494-.493-.444-.69-1.037-.69-1.63.59-.098 1.182.1 1.675.494zM65.014 28.6c.099.543 0 1.136-.394 1.58-.345.445-.789.692-1.282.74-.493.15-.985.1-1.478-.147a2.24 2.24 0 0 1-.986-1.333c.542-.198 1.133-.198 1.676.098.246.1.443.297.591.494.099-.247.197-.494.394-.74.346-.445.937-.692 1.48-.692zm-64.028 0c.542 0 1.084.247 1.479.692.197.246.295.493.394.74.148-.197.345-.395.591-.494.543-.296 1.134-.296 1.676-.098a2.138 2.138 0 0 1-1.035 1.333 1.825 1.825 0 0 1-1.43.148c-.492-.05-.936-.296-1.28-.74-.395-.445-.494-1.038-.395-1.58zm63.289-2.617c.148.494.05 1.087-.247 1.531-.295.444-.739.691-1.183.79a1.905 1.905 0 0 1-1.38-.05 1.88 1.88 0 0 1-1.035-1.184c.444-.247 1.035-.247 1.577-.05.247.099.444.296.592.445.05-.247.148-.494.296-.692.345-.493.838-.74 1.38-.79zm-62.55 0c.542.05 1.035.297 1.38.79.148.198.247.445.296.692.148-.149.345-.346.592-.445.542-.197 1.084-.197 1.577.05a1.88 1.88 0 0 1-1.035 1.185 1.905 1.905 0 0 1-1.38.049 1.892 1.892 0 0 1-1.183-.79c-.296-.444-.395-1.037-.247-1.53zm61.515-2.666c.197.444.148.987-.099 1.481a2.13 2.13 0 0 1-1.035.84c-.394.148-.887.197-1.33.05-.494-.198-.888-.544-1.085-1.038.443-.247.986-.346 1.479-.148.246.05.443.198.64.346 0-.247.099-.445.197-.692.296-.444.74-.74 1.233-.839zm-60.48 0c.493.099.937.395 1.183.84.148.246.197.444.247.69.148-.147.394-.296.591-.345a1.693 1.693 0 0 1 1.479.148c-.148.494-.542.84-1.035 1.037-.444.148-.937.099-1.331-.05a2.13 2.13 0 0 1-1.035-.839c-.247-.494-.296-1.037-.099-1.481zm59.297-2.568c.197.445.246.988 0 1.432a1.82 1.82 0 0 1-.887.84 1.8 1.8 0 0 1-1.233.148 1.526 1.526 0 0 1-1.084-.889 1.526 1.526 0 0 1 1.38-.247c.197.05.394.148.592.296 0-.246.049-.444.147-.641.247-.494.641-.79 1.085-.939zm-58.114 0c.444.149.838.445 1.085.939.098.197.147.395.147.641.148-.148.395-.246.592-.296.493-.148.986-.05 1.38.247-.197.444-.591.79-1.084.889-.444.099-.838.05-1.233-.148-.394-.148-.69-.445-.887-.84-.246-.444-.197-.987 0-1.432zm56.734-2.172c.246.395.295.889.148 1.333-.148.395-.444.691-.79.889a1.41 1.41 0 0 1-1.084.296c-.492-.05-.887-.346-1.133-.74a1.673 1.673 0 0 1 1.281-.396c.198.05.395.1.592.247-.05-.247 0-.444.05-.642.147-.444.492-.79.936-.987zm-55.354 0c.395.197.74.543.937.987.05.198.05.395.05.642.196-.148.393-.197.59-.247.494-.049.937.1 1.282.395-.246.395-.64.692-1.133.741-.395.05-.79-.05-1.134-.296a1.655 1.655 0 0 1-.74-.889 1.584 1.584 0 0 1 .148-1.333zm53.974-1.926c.246.346.345.79.246 1.235a1.93 1.93 0 0 1-.69.839c-.296.247-.64.395-1.035.346a1.692 1.692 0 0 1-1.085-.593c.296-.296.74-.494 1.183-.444.198 0 .395.05.543.148 0-.198 0-.395.049-.593.098-.444.443-.79.789-.938zm-52.594 0c.346.148.641.494.79.938.048.198.048.395.048.593a.992.992 0 0 1 .543-.148c.443-.05.887.148 1.183.444-.247.296-.641.543-1.085.593a1.271 1.271 0 0 1-1.035-.346c-.345-.197-.591-.494-.69-.84-.099-.444 0-.888.246-1.234zm51.115-1.728c.246.296.394.691.296 1.136-.05.345-.247.642-.543.839-.197.247-.542.395-.936.444-.395 0-.789-.197-1.035-.493a1.31 1.31 0 0 1 1.035-.494c.197 0 .394 0 .542.099a1.013 1.013 0 0 1 0-.543c.05-.445.296-.79.64-.988zm-49.636 0c.345.198.592.543.641.988.05.148.05.345 0 .543.148-.1.345-.1.542-.1.395 0 .789.198 1.035.495-.246.296-.64.493-1.084.493a1.664 1.664 0 0 1-.937-.444 1.334 1.334 0 0 1-.493-.84c-.098-.444.05-.839.296-1.135zm18.583-12.03.295.006c2.652.116 5.138 1.776 7.068 4.062l.252.307c.167.207.329.418.486.633l.27-.258c.276-.254.565-.496.864-.715l.23-.163c.935-.636 1.965-1.063 3.036-1.063h6.487l-.491.753-.096.134a1.702 1.702 0 0 1-1.374.664h-4.526l-.217.01c-.726.06-1.458.414-2.136.912l-.309.239c-.305.247-.595.52-.868.802l.23.393c1.199 2.112 1.954 4.423 2.046 6.43h-1.545l-.026-.349c-.157-1.646-.79-3.498-1.76-5.223l-.132.184c-.085.12-.166.24-.243.357l-.14.217c-.092.147-.184.299-.275.456l.177.36c.172.364.332.738.473 1.117l.145-.29c.098-.19.198-.375.3-.552l.168.413c.215.553.392 1.114.524 1.673l-.046.112-.044.113-.105.291a6.148 6.148 0 0 0-.283 1.122h-1.553l.003-.035-.035-.314a9.338 9.338 0 0 0-.504-1.944l-.047-.125-.048-.125-.05.125-.046.125-.115.326a8.46 8.46 0 0 0-.424 1.93l.003.037H30.83l-.046-.27a7.3 7.3 0 0 0-.342-1.143l-.044-.113-.044-.112.107-.42c.154-.56.352-1.118.583-1.664l.152.27c.1.184.199.375.293.57l.147-.377c.153-.375.322-.743.503-1.1l-.136-.232c-.092-.152-.185-.3-.278-.441l-.119-.177c-.08-.12-.167-.24-.257-.361l-.202.37c-.92 1.74-1.495 3.584-1.583 5.2h-1.546l.025-.38c.175-2.044.998-4.36 2.252-6.444l-.279-.279a8.87 8.87 0 0 0-.898-.762l-.206-.145c-.688-.468-1.423-.777-2.147-.777h-4.527l-.164-.007a1.703 1.703 0 0 1-1.305-.79l-.491-.754h6.487l.266.009c1.065.07 2.084.548 3 1.217l.295.226c.292.233.573.486.84.747l.218-.293.224-.287.326.325c.211.218.412.441.6.665l.068.08.067.08-.226.301-.22.306.217.276c.211.276.402.547.573.804l.003.005.002-.005.177-.261c.184-.266.39-.543.612-.822l-.276-.38a16.057 16.057 0 0 0-.583-.735l-.202-.234c-1.697-1.926-3.808-3.282-5.981-3.282h-7.39l-.15-.007a1.919 1.919 0 0 1-.286-.045l2.698 6.024.027.065c.028.09.026.19-.013.281l-.1.22a3.592 3.592 0 0 1-1.225 1.39l-.197.121a3.597 3.597 0 0 1-1.794.48l-.24-.008a3.597 3.597 0 0 1-1.75-.593l-.184-.132c-.48-.365-.87-.85-1.12-1.426l-.018-.043-.017-.044-.015-.071a.411.411 0 0 1 .033-.219l2.936-6.555.023-.045.029-.042-.055-.072-.052-.077-.491-.754h9.35zm29.623 10.5c.247.246.345.641.296.987-.05.346-.246.642-.493.84a1.285 1.285 0 0 1-.838.345c-.394.05-.74-.148-.986-.395.198-.296.543-.494.937-.494.197 0 .345.05.493.099a1.015 1.015 0 0 1 0-.543c.05-.346.296-.692.591-.84zm-46.776 0c.295.147.542.493.591.839.05.197 0 .345 0 .543.148-.05.296-.099.493-.099.394 0 .74.198.937.494-.247.247-.592.444-.986.395-.345 0-.641-.148-.838-.346a1.334 1.334 0 0 1-.493-.84c-.05-.345.05-.74.296-.987zm1.528-1.334c.246.198.443.494.443.84.05.197 0 .345-.049.493.148-.049.296-.049.493-.049.345.05.64.247.789.543a1.088 1.088 0 0 1-.888.296 1.161 1.161 0 0 1-.788-.444c-.197-.198-.345-.444-.345-.79-.05-.346.098-.642.345-.889zm43.72 0c.247.247.395.543.345.889 0 .346-.147.592-.345.79a1.161 1.161 0 0 1-.788.444c-.345.05-.69-.098-.937-.296a1.21 1.21 0 0 1 .838-.543c.148 0 .345 0 .493.05-.05-.149-.099-.297-.099-.494.05-.346.247-.642.493-.84zM34.792 0l.227.007a3.39 3.39 0 0 1 1.495.444l.163.088c.218.106.437.166.689.194l.143.02c.506.09.817.379 1.139.984l-.203-.03c-.796-.104-1.456-.014-2.132.49l-.113.09c-.462.404-.57.93-.588 1.79.129-.075 1.956-1.14 3.959-1.14h9.288l-.487.743-.051.075-.054.071.031.041.024.047 2.907 6.447.027.065a.397.397 0 0 1-.013.277l-.1.216a3.568 3.568 0 0 1-1.216 1.372l-.196.12a3.592 3.592 0 0 1-1.783.473l-.238-.007a3.594 3.594 0 0 1-1.739-.586l-.193-.138a3.575 3.575 0 0 1-1.052-1.29l-.035-.074a.762.762 0 0 1-.058-.158l-.009-.082c0-.056.012-.113.036-.167l2.69-5.967-.142.029a1.823 1.823 0 0 1-.296.024H39.57l-.296.008c-1.575.088-3.108.873-4.463 2.053l-.337-.378c-.23-.25-.469-.494-.717-.73l-.324-.3a12.26 12.26 0 0 0-2.143-1.556l.064-.29c.21-.864.597-1.683 1.176-2.34C33.085.306 33.936 0 34.792 0zm18.343 11.516c.296.247.493.642.493 1.037a1.2 1.2 0 0 1-1.134-.296c-.345-.247-.492-.642-.492-1.037.394-.099.788 0 1.133.296zm-39.137-.296c0 .395-.147.79-.492 1.037-.345.296-.74.395-1.134.296 0-.395.197-.79.493-1.037.345-.296.74-.395 1.133-.296zM43.65 8.677l-.507.733-.099.13c-.344.414-.843.644-1.417.644H39.38l-.077.008c-.22.045-.547.264-.894.552l-.228.194c-.226.201-.443.418-.643.632l-.225-.498c-.156-.33-.323-.656-.5-.975l.18-.17c.121-.112.244-.22.367-.321l.18-.142c.601-.461 1.242-.787 1.84-.787h4.27zm-16.765 0 .18.01c.607.063 1.247.433 1.84.919l.184.157c.122.107.244.219.362.334l-.257.483c-.166.325-.322.656-.467.99l-.206-.214a8.579 8.579 0 0 0-.665-.612l-.13-.105c-.341-.268-.65-.455-.841-.455h-2.248l-.17-.007a1.78 1.78 0 0 1-1.346-.767l-.506-.733h4.27zM47.597 5.26l-2.343 5.236-.02.065a.296.296 0 0 0 .026.195l.038.059c.043.053.101.087.171.101.42.089 1.168.129 1.941.129l.268-.002c.802-.01 1.593-.06 2.033-.143l.067-.02a.29.29 0 0 0 .147-.138l.025-.064a.297.297 0 0 0-.017-.201l-2.336-5.217zm-29.187 0-2.343 5.236-.021.065a.291.291 0 0 0 .028.195l.037.059c.043.053.1.087.17.101.42.089 1.169.129 1.942.129l.267-.002c.802-.01 1.593-.06 2.034-.143l.067-.02a.292.292 0 0 0 .146-.138l.026-.064a.294.294 0 0 0-.018-.201L18.41 5.259zM34.33.789l-.13.003a.982.982 0 0 0-.543.197c.138.042.263.063.375.063l.103-.006.094-.02.163-.024a1.68 1.68 0 0 1 .58.025L34.893.96a1.038 1.038 0 0 0-.564-.172z" fill="url(#a)" transform="translate(10 7)"/>
        <path d="M30.955 44.036c.51.33 1.03.645 1.557.948.201.116.235.222.125.43-.34.644-.67 1.292-.98 1.95-.113.239-.216.22-.408.101-.604-.38-1.218-.744-1.829-1.113-.09-.055-.183-.107-.264-.154-.17-.034-.181.105-.225.188-.172.32-.346.64-.493.973-.102.23-.208.235-.406.106a40.028 40.028 0 0 0-1.585-.99c-.209-.123-.216-.237-.108-.434.333-.613.664-1.227.965-1.855.132-.276.254-.264.48-.122.58.363 1.187.683 1.752 1.065.34.23.486.146.621-.195.106-.266.268-.51.387-.772.096-.21.196-.264.411-.126zm9.116-14.28c.62 1.31.834 2.726.913 4.147.047.833-.416 1.578-.817 2.289-1.014 1.802-.595 1.509-2.368.912-.921-.31-1.822-.684-2.656-1.194-.183-.111-.302-.134-.443.075-.246.364-.603.633-.94.954.488.229.954.422 1.329.767.516.475.756.982.513 1.731-.626 1.932-1.626 3.548-3.466 4.549-.276.15-.5.18-.784-.019-.53-.37-.734-.307-1.212.173-.218.22-.297.662-.613.655-.261-.006-.516-.29-.774-.448a14.034 14.034 0 0 0-.433-.254c-.871-.492-1.076-.467-1.636.366-.238.354-.447.39-.814.233-1.67-.714-2.448-2.174-2.168-4.169.253-1.81.97-3.463 1.762-5.09.11-.226.225-.18.394-.098.174.085.315.138.207.394-.363.867-.689 1.75-.908 2.665-.499 2.085.076 3.025 2.198 3.266 1.77.2 3.56.156 5.29-.399.258-.083.504-.208.75-.326.322-.155.307-.333.02-.518-.732-.472-1.544-.7-2.402-.783-.363-.035-.73-.036-1.094-.057-.249-.014-.313-.133-.213-.364.36-.835.72-1.67 1.065-2.511.08-.194.233-.22.394-.254.313-.067.63-.111.938-.194 1.16-.312 2.05-.97 2.603-2.05.504-.985.996-1.976 1.51-2.956a5.626 5.626 0 0 1 1.836-2.052c.903-.616 1.55-.432 2.02.56zm4.164-5.423c.105.03.115.114.11.204l-.008.106v.05c.216 2.691.42 5.384.642 8.076.062.74.179 1.476.427 2.181.388 1.107 1.226 1.738 2.401 1.759 1.838.031 3.685.23 5.498-.267.187-.051.376-.098.564-.147-1.473-.577-2.984-.976-4.536-1.327.859-1.673 1.954-3.037 3.796-3.636.65-.211 1.292-.448 1.94-.665.179-.06.282-.086.165-.328-.13-.271-.015-.567.11-.832.333-.706.8-1.325 1.285-1.93a.736.736 0 0 1 .777-.266c.945.215 1.812.619 2.628 1.123.424.263.54.673.32 1.21-.635 1.543-1.609 2.704-3.423 2.883-1.09.107-2.175.257-3.269.388-.01.175.155.157.246.197 2.424 1.069 4.926 1.835 7.594 1.982.78.043.778.07.387.716-.384.637-.794 1.26-1.145 1.914-.204.38-.466.49-.878.473-1.783-.073-3.559-.046-5.317.332-1.386.298-2.705.825-4.084 1.139a10.776 10.776 0 0 1-3.767.166c-1.25-.158-2.106-.866-2.657-1.98-.454-.919-.575-1.917-.7-2.906l-.316-2.59-.608-5.182a.99.99 0 0 1 .202-.759c.444-.597.861-1.213 1.296-1.817l.03-.046.057-.103c.05-.084.114-.153.233-.118zm-7.763 8.315c.817.44 1.595.814 2.502 1.113-.243-.7-.292-1.446-1.032-1.687-.566-.185-1.046.128-1.47.574zm16.37-7.388c.06.505-.079.986-.24 1.451-.086.248-.073.395.142.565.257.202.18.887-.092 1.024-.167.084-.247-.093-.347-.173-.248-.197-.414-.218-.634.085-.78 1.072-1.941 1.608-3.044 2.22-.13.073-.216.068-.306-.07-.09-.14-.053-.228.044-.332.301-.328.56-.689.671-1.132.068-.273.176-.592-.075-.81-.267-.234-.564-.078-.82.072-.35.205-.689.43-.971.734-.069.074-.132.198-.264.087-.102-.086-.117-.18-.036-.29.492-.657.953-1.354 1.75-1.665.74-.29 1.22.075 1.208.89-.006.42-.194.796-.277 1.25a7.68 7.68 0 0 0 1.727-1.34c.16-.164.1-.241-.047-.367-1.01-.861-1.005-1.438.01-2.325.166-.144.34-.28.521-.4.563-.373.996-.164 1.08.526zm-1.165.33c-.225.016-.421.108-.526.292-.104.18.088.284.201.378.207.173.435.322.7.514.182-.336.092-.629.025-.913-.044-.183-.187-.286-.4-.271z" fill="#FFF"/>
        <path d="M26.368 61.003v-3.187l1.089 3.187h1.333l1.081-3.162v3.162h1.594v-5.731h-1.919l-1.406 3.723-1.44-3.723h-1.926v5.731h1.594zm8.871.057c.537 0 1.03-.126 1.48-.378.45-.252.805-.602 1.065-1.049.26-.447.39-.952.39-1.516 0-.564-.13-1.069-.39-1.516a2.766 2.766 0 0 0-1.061-1.045 2.995 2.995 0 0 0-1.484-.374c-.536 0-1.03.125-1.48.374-.45.25-.806.598-1.068 1.045a2.935 2.935 0 0 0-.395 1.516c0 .564.132 1.069.395 1.516.262.447.619.797 1.069 1.049.45.252.943.378 1.48.378zm0-1.48c-.412 0-.734-.131-.967-.394-.233-.263-.35-.62-.35-1.069 0-.455.117-.814.35-1.077.233-.263.555-.394.967-.394.407 0 .728.131.963.394.236.263.354.622.354 1.077 0 .444-.118.8-.354 1.065-.235.266-.556.398-.963.398zm5.36 1.423v-2.3h1.943v2.3h1.593v-5.731h-1.593v2.154h-1.943v-2.154h-1.594v5.731H40.6zm5.847 0 .31-.935h2.032l.308.935h1.683l-2.08-5.731H46.86l-2.09 5.731h1.675zm1.943-2.154h-1.227l.61-1.854.617 1.854zm4.62 2.154v-3.187l1.09 3.187h1.333l1.08-3.162v3.162h1.594v-5.731h-1.918l-1.407 3.723-1.439-3.723h-1.926v5.731h1.593zm7.717 0v-5.731h-1.593v5.731h1.593z" fill="#FFF" fill-rule="nonzero"/>
    </g>
</svg>
