<?xml version="1.0" encoding="UTF-8"?>
<svg width="14px" height="16px" viewBox="0 0 14 16" version="1.1" xmlns="http://www.w3.org/2000/svg" xmlns:xlink="http://www.w3.org/1999/xlink">
    <title>map-marker@2x</title>
    <g id="Last-Update" stroke="none" stroke-width="1" fill="none" fill-rule="evenodd">
        <g id="New---4" transform="translate(-345.000000, -537.000000)" fill="#CE3529" fill-rule="nonzero">
            <g id="Group-4" transform="translate(16.000000, 45.000000)">
                <g id="Next-Copy-5" transform="translate(0.000000, 264.000000)">
                    <g id="Group" transform="translate(106.000000, 224.000000)">
                        <g id="map-marker" transform="translate(223.000000, 4.000000)">
                            <path d="M6.58398583,0 C10.220248,0 13.1679717,2.94775287 13.1679717,6.58398583 C13.1679717,10.6014608 9.63793107,14.030547 7.74744928,15.5789541 C7.0619832,16.1403486 6.10598846,16.1403486 5.42052238,15.5789541 C3.53001863,14.030547 0,10.6014608 0,6.58398583 C0,2.94775287 2.94775287,0 6.58398583,0 Z M6.58398583,1.46310796 C3.75580545,1.46310796 1.46310796,3.75580545 1.46310796,6.58398583 C1.46310796,8.16641024 2.16370989,9.7297411 3.18844876,11.1521747 C4.20546974,12.5638544 5.45600274,13.7168566 6.34762073,14.4470938 C6.49385838,14.5668492 6.67411328,14.5668492 6.82035092,14.4470938 C7.71196891,13.7168566 8.96248728,12.5638544 9.97949363,11.1521747 C11.0042544,9.7297411 11.7048637,8.16641024 11.7048637,6.58398583 C11.7048637,3.75580545 9.41217352,1.46310796 6.58398583,1.46310796 Z M6.58398583,3.6577699 C8.20006172,3.6577699 9.51020175,4.96788067 9.51020175,6.58398583 C9.51020175,8.20006172 8.20006172,9.51020175 6.58398583,9.51020175 C4.96788067,9.51020175 3.6577699,8.20006172 3.6577699,6.58398583 C3.6577699,4.96788067 4.96788067,3.6577699 6.58398583,3.6577699 Z M6.58398583,5.12087786 C5.7759113,5.12087786 5.12087786,5.77593325 5.12087786,6.58398583 C5.12087786,7.39206035 5.7759113,8.04709379 6.58398583,8.04709379 C7.39206035,8.04709379 8.04709379,7.39206035 8.04709379,6.58398583 C8.04709379,5.77593325 7.39206035,5.12087786 6.58398583,5.12087786 Z" id="Combined-Shape"></path>
                        </g>
                    </g>
                </g>
            </g>
        </g>
    </g>
</svg>