<svg width="12" height="12" viewBox="0 0 12 12" xmlns="http://www.w3.org/2000/svg">
    <path d="M10.5 0h-9C.673 0 0 .673 0 1.5v6.75c0 .827.673 1.5 1.5 1.5h2.25v1.969a.28.28 0 0 0 .448.225L7.125 9.75H10.5c.827 0 1.5-.673 1.5-1.5V1.5c0-.827-.673-1.5-1.5-1.5zm.375 8.25a.376.376 0 0 1-.375.375H6.75l-.3.225-1.575 1.181V8.625H1.5a.376.376 0 0 1-.375-.375V1.5c0-.206.169-.375.375-.375h9c.206 0 .375.169.375.375v6.75zm-2.25-5.063h-5.25A.376.376 0 0 0 3 3.563v.374c0 .207.169.376.375.376h5.25A.376.376 0 0 0 9 3.938v-.376a.376.376 0 0 0-.375-.374zm-2.25 2.25h-3A.376.376 0 0 0 3 5.813v.375c0 .207.169.375.375.375h3a.376.376 0 0 0 .375-.375v-.375a.376.376 0 0 0-.375-.375z" fill="#212424" fill-rule="nonzero" fill-opacity=".6"/>
</svg>
