<svg width="18" height="21" viewBox="0 0 18 21" xmlns="http://www.w3.org/2000/svg" xmlns:xlink="http://www.w3.org/1999/xlink">
    <defs>
        <path d="M12.17 18.795a.842.842 0 0 1 .857.612c.077.312.075.634.01.946a.827.827 0 0 1-.878.644.834.834 0 0 1-.773-.791c-.007-.108-.001-.217-.001-.325.005-.117-.006-.234.006-.349a.839.839 0 0 1 .778-.737zM6.54 9.662l1.756.005c2.125.011 3.916 1.334 4.565 3.36.162.507-.047.975-.509 1.138-.456.16-.894-.065-1.078-.574-.204-.562-.475-1.079-.936-1.474-.549-.47-1.183-.74-1.909-.75-1.34-.018-2.683-.072-4.021.022-1.448.102-2.642 1.376-2.687 2.832-.03.968-.006 1.938-.006 2.907-.009.969-.005 1.938-.01 2.907-.002.472-.19.768-.553.907a.833.833 0 0 1-1.094-.544 1.698 1.698 0 0 1-.056-.483c0-1.775-.005-3.55.001-5.326.009-2.21 1.214-3.941 3.25-4.676a4.535 4.535 0 0 1 1.531-.246c1.171-.005 2.342-.007 3.512 0zm7.211 4.396c.369-.375.851-.38 1.236 0 .64.633 1.277 1.268 1.908 1.91.396.402.395.87-.003 1.273-.631.641-1.268 1.277-1.908 1.909-.37.366-.875.363-1.223.008-.33-.337-.31-.839.049-1.204.151-.155.307-.305.473-.47-.099-.07-.192-.042-.277-.043l-7.398-.002c-.52 0-.886-.332-.901-.802-.015-.468.305-.827.784-.874.1-.01.201-.007.302-.007l7.189-.001c.09 0 .183.02.288-.027-.166-.17-.318-.324-.468-.48-.347-.363-.368-.868-.05-1.19zM6.575 0c2.282.056 4.089 1.904 4.04 4.135-.05 2.235-1.902 4.06-4.086 4.023-2.284-.04-4.124-1.912-4.066-4.139.06-2.253 1.92-4.072 4.112-4.019zM6.552 1.7a2.382 2.382 0 0 0-2.4 2.384 2.387 2.387 0 0 0 4.775-.001A2.375 2.375 0 0 0 6.552 1.7z" id="a"/>
    </defs>
    <g fill="none" fill-rule="evenodd">
        <g>
            <use fill="#FFF" xlink:href="#a"/>
            <use fill-opacity=".6" fill="#212424" xlink:href="#a"/>
        </g>
    </g>
</svg>
