<svg width="15" height="16" viewBox="0 0 15 16" xmlns="http://www.w3.org/2000/svg">
    <path d="M1.36 14.64a4.637 4.637 0 0 1 0-6.561L8.39 1.046a3.582 3.582 0 0 1 5.06 0 3.577 3.577 0 0 1 0 5.061l-5.92 5.922a2.517 2.517 0 1 1-3.56-3.56l5.014-5.016a.375.375 0 0 1 .53 0l.53.53a.375.375 0 0 1 0 .53L5.031 9.53a1.017 1.017 0 1 0 1.439 1.439l5.92-5.922a2.077 2.077 0 1 0-2.938-2.939L2.42 9.14a3.138 3.138 0 0 0 0 4.439 3.139 3.139 0 0 0 4.443-.001l6.121-6.125a.375.375 0 0 1 .53 0l.53.53a.375.375 0 0 1 0 .53l-6.12 6.125a4.638 4.638 0 0 1-6.564.002z" fill="#212424" fill-rule="nonzero" fill-opacity=".6"/>
</svg>
