<svg width="11" height="11" viewBox="0 0 11 11" xmlns="http://www.w3.org/2000/svg">
    <path d="M1.554 2.78c.302-.298.683-.298.988-.002.188.184.373.372.56.558l.541.542c.319.319.319.69.002 1.008-.227.228-.452.457-.684.68-.06.06-.066.108-.035.181.154.364.373.687.62.989.497.608 1.058 1.148 1.728 1.568.144.089.303.154.453.236.076.042.128.029.19-.035.227-.232.458-.46.69-.69.303-.3.683-.3.988 0 .371.369.742.736 1.11 1.106.31.31.308.689-.003 1.002-.21.211-.433.413-.631.633-.29.323-.65.428-1.066.405-.604-.033-1.16-.233-1.696-.492a9.237 9.237 0 0 1-3.06-2.386c-.631-.747-1.152-1.562-1.494-2.48C.588 5.162.47 4.707.507 4.225a1.12 1.12 0 0 1 .353-.757c.237-.224.46-.458.694-.687zm4.834-.422a3.19 3.19 0 0 1 1.825.907c.42.42.712.936.85 1.507l.045.216-.716.122A2.46 2.46 0 0 0 7.7 3.778a2.47 2.47 0 0 0-1.215-.666l-.2-.036.102-.718zM6.483.5a5.29 5.29 0 0 1 3.03 1.506 5.3 5.3 0 0 1 1.433 2.588l.054.27-.717.122A4.557 4.557 0 0 0 9 2.518 4.586 4.586 0 0 0 6.63 1.26l-.248-.041.1-.718z" fill="#951A1D" fill-rule="evenodd"/>
</svg>
