<?xml version="1.0" encoding="UTF-8"?>
<svg width="17px" height="17px" viewBox="0 0 17 17" version="1.1" xmlns="http://www.w3.org/2000/svg" xmlns:xlink="http://www.w3.org/1999/xlink">
    <title>placeholder@2x</title>
    <g id="Last-Update" stroke="none" stroke-width="1" fill="none" fill-rule="evenodd" fill-opacity="0.6">
        <g id="New---4" transform="translate(-27.000000, -482.000000)" fill="#6A6D78" fill-rule="nonzero">
            <g id="Group-4" transform="translate(16.000000, 45.000000)">
                <g id="Next-Copy-5" transform="translate(0.000000, 264.000000)">
                    <g id="Group-6" transform="translate(0.000000, 160.000000)">
                        <g id="placeholder" transform="translate(11.000000, 13.000000)">
                            <path d="M8.01,0 C12.4337728,0 16.02,3.58622719 16.02,8.01 C16.02,12.4337728 12.4337728,16.02 8.01,16.02 C3.58622719,16.02 0,12.4337728 0,8.01 C0,3.58622719 3.58622719,0 8.01,0 Z M8.01,2.503125 C5.69335781,2.503125 4.19799094,4.05130781 4.19799094,6.44704875 C4.19799094,8.44404187 7.20048938,12.4525462 7.54366781,12.9011062 L7.54366781,12.9011062 L8.01,13.516875 L8.47908562,12.9011062 C8.81926031,12.4495425 11.8220091,8.44103812 11.8220091,6.44704875 C11.8220091,4.05130781 10.3266422,2.503125 8.01,2.503125 Z M8.01,3.504375 C9.76994719,3.504375 10.8207591,4.60449844 10.8207591,6.44704875 C10.8207591,7.51913719 9.41800781,9.91162406 8.00949938,11.8522969 C6.59248031,9.91813219 5.19924094,7.49560781 5.19924094,6.44704875 C5.19924094,4.60449844 6.25005281,3.504375 8.01,3.504375 Z M8.00699625,5.23879031 C7.325145,5.23879031 6.772455,5.79148031 6.772455,6.47333156 C6.772455,7.15518281 7.325145,7.70787281 8.00699625,7.70787281 C8.6888475,7.70787281 9.2415375,7.15518281 9.2415375,6.47333156 C9.2415375,5.79148031 8.6888475,5.23879031 8.00699625,5.23879031 Z" id="Combined-Shape"></path>
                        </g>
                    </g>
                </g>
            </g>
        </g>
    </g>
</svg>