<svg width="55" height="55" viewBox="0 0 55 55" xmlns="http://www.w3.org/2000/svg">
    <g fill-rule="nonzero" fill="none">
        <path d="m42.838 32.913-1.51-.036-.434.691a.982.982 0 0 1-.826.47.937.937 0 0 1-.684-.274L21.236 15.617a.967.967 0 0 1 .012-1.366 1.03 1.03 0 0 1 .187-.147l.688-.431.35-1.18-5.909-10.618-1.323-.571-.278.14a9.566 9.566 0 0 0-2.148 1.613c-2.888 2.888-3.613 7.25-1.805 10.855 2.594 5.173 8.707 12.585 13.137 16.928 4.352 4.44 11.768 10.556 16.941 13.15 3.605 1.808 7.967 1.083 10.855-1.805a9.565 9.565 0 0 0 1.613-2.148l.14-.278-.421-1.039-10.437-5.807z" fill="#CA6E59"/>
        <g fill="#6D3326">
            <path d="M23.804 12.618c.239-.15.46-.326.66-.525 1.162-1.163 1.424-2.966.634-4.385l-3.261-5.862C20.89.146 18.773-.488 17.015.403l-1.774.9 6.882 12.37 1.68-1.055zM47.292 29.902c-1.419-.79-3.222-.528-4.385.635-.199.198-.375.42-.525.66l-1.055 1.68 12.37 6.882.9-1.774c.891-1.758.258-3.876-1.443-4.822l-5.862-3.261z"/>
        </g>
        <g fill="#FFCBBE">
            <path d="m33.953 36.326.151-.147 4.024-4.024.035-.039-4.21 4.21zM32.812 37.197c-.031.086-.067.17-.11.252.067-.054.131-.11.197-.165l-.087-.087z"/>
        </g>
        <path fill="#FFDDCE" d="m32.229 22.968-.217.216z"/>
        <path d="m33.407 34.018-.914-.913a2.01 2.01 0 0 0-1.377-.59.397.397 0 0 1-.27-.117.408.408 0 0 1-.045-.517 2.02 2.02 0 0 0-.25-2.55l-.914-.914a2.007 2.007 0 0 0-1.081-.56.662.662 0 0 1-.358-.182l-.064-.064a.65.65 0 0 1-.152-.678 2.017 2.017 0 0 0-.475-2.101l-.914-.914a2.007 2.007 0 0 0-1.272-.584.619.619 0 0 1-.394-.175l-.032-.032a.596.596 0 0 1-.147-.586 2.017 2.017 0 0 0-.514-1.98l-.914-.913a2.02 2.02 0 0 0-2.858 0l4.722-4.721-6.856 6.853c-.315.315-.674.44-1.041.425l-4.275 4.273c-.31.31-.662.436-1.022.425l.193 1.621a4.638 4.638 0 0 1-1.326 3.827l-7.47 7.47 11.489 11.49 8.814-8.815a4.64 4.64 0 0 1 1.447-.98l3.785-1.63a19.484 19.484 0 0 0 4.798-3.336c.436-.78.342-1.876-.313-2.532z" fill="#FFF3DE"/>
        <path d="M8.348 33.843.376 41.814a1.285 1.285 0 0 0 0 1.818l10.69 10.689a1.285 1.285 0 0 0 1.817 0l7.971-7.971L8.348 33.843z" fill="#3675BB"/>
        <path d="m8.634 32.307-2.185 2.185c-.6.6-.6 1.573 0 2.173l11.885 11.886c.6.6 1.574.6 2.174 0l2.185-2.185c.6-.6.6-1.573 0-2.173L10.807 32.307c-.6-.6-1.573-.6-2.173 0z" fill="#2263AA"/>
        <g fill="#F5E0C3">
            <path d="m38.128 29.297-.914-.914a2.02 2.02 0 0 0-2.858 0l.916-.915a2.02 2.02 0 0 0 0-2.858l-.914-.914a2.02 2.02 0 0 0-2.857 0l.727-.728a2.02 2.02 0 0 0 0-2.857l-.913-.914a2.02 2.02 0 0 0-2.858 0l.498-.499a2.02 2.02 0 0 0 0-2.858l-.913-.913a2.02 2.02 0 0 0-2.858 0l-5.235 5.232h.002a2.02 2.02 0 0 1 2.858 0l.913.915c.536.536.707 1.297.514 1.979a.596.596 0 0 0 .147.586l.032.032a.618.618 0 0 0 .394.175c.464.035.918.23 1.273.584l.913.914c.569.568.726 1.39.475 2.1a.65.65 0 0 0 .152.679l.065.064a.662.662 0 0 0 .357.182c.396.068.776.254 1.081.56l.914.914a2.02 2.02 0 0 1 .25 2.55.408.408 0 0 0 .045.517.397.397 0 0 0 .27.117c.5.013.996.208 1.377.59l.914.913c.688.688.776 1.749.264 2.532.324-.284.64-.578.945-.883l4.024-4.024a2.021 2.021 0 0 0 0-2.858zM18.328 21.78c-.487.487-1.08.525-1.643.278a1.93 1.93 0 0 1-.764-.627l-1.396-1.879-.479.48a7.481 7.481 0 0 0-2.139 6.173l.147 1.233c.366.016.726-.11 1.04-.425l5.236-5.233h-.002z"/>
        </g>
    </g>
</svg>
