<svg width="216" height="26" viewBox="0 0 216 26" xmlns="http://www.w3.org/2000/svg">
    <path d="m33.692 0 .134.006c.707.067 1.25.657 1.25 1.375v22.924c0 .76-.619 1.381-1.384 1.381l-.134-.006a1.379 1.379 0 0 1-1.25-1.375V1.381c0-.759.62-1.381 1.384-1.381zm102.462 0c.765 0 1.384.622 1.384 1.381v22.924c0 .718-.544 1.308-1.25 1.375l-.134.006a1.385 1.385 0 0 1-1.385-1.38v-3.502c0 .717-.544 1.307-1.25 1.373l-.134.007a1.381 1.381 0 0 1-1.385-1.38V3.715c0-.717.544-1.307 1.25-1.374l.135-.006c.764 0 1.384.616 1.384 1.38V1.381c0-.718.545-1.308 1.25-1.375l.135-.006zM174 0l.134.006c.706.067 1.25.657 1.25 1.375v22.924c0 .76-.62 1.381-1.384 1.381l-.134-.006a1.379 1.379 0 0 1-1.25-1.375V1.381c0-.759.62-1.381 1.384-1.381zM89.077 1.168l.134.006c.706.067 1.25.661 1.25 1.384v20.57c0 .766-.62 1.39-1.384 1.39l-.134-.005a1.385 1.385 0 0 1-1.25-1.385V2.558c0-.766.62-1.39 1.384-1.39zm81.23 1.167.135.006c.706.067 1.25.656 1.25 1.373v18.258c0 .75-.62 1.38-1.384 1.38l-.134-.007a1.378 1.378 0 0 1-1.25-1.373V3.714c0-.75.619-1.379 1.384-1.379zM30 2.335l.134.006c.706.067 1.25.656 1.25 1.373v18.258c0 .75-.62 1.38-1.384 1.38l-.134-.007a1.378 1.378 0 0 1-1.25-1.373v-3.505c0 .762-.62 1.382-1.385 1.382l-.134-.007a1.38 1.38 0 0 1-1.25-1.375V7.22c0-.762.62-1.382 1.384-1.382l.134.006a1.38 1.38 0 0 1 1.25 1.376V3.714c0-.75.62-1.379 1.385-1.379zm136.615 0A1.39 1.39 0 0 1 168 3.715v18.257c0 .717-.544 1.306-1.25 1.373l-.135.006a1.39 1.39 0 0 1-1.384-1.379V3.714c0-.717.544-1.306 1.25-1.373l.134-.006zm-18.461 0c.765 0 1.384.616 1.384 1.38v17.089c0 .717-.544 1.307-1.25 1.373l-.134.007a1.381 1.381 0 0 1-1.385-1.38V3.715c0-.717.545-1.307 1.25-1.374l.135-.006zm-18.462 0c.765 0 1.385.616 1.385 1.38v17.089c0 .717-.544 1.307-1.25 1.373l-.135.007a1.381 1.381 0 0 1-1.384-1.38V3.715c0-.717.544-1.307 1.25-1.374l.134-.006zm-22.154 1.168c.765 0 1.385.623 1.385 1.389v14.735c0 .722-.544 1.316-1.25 1.383l-.135.006a1.388 1.388 0 0 1-1.384-1.389V4.892c0-.722.544-1.316 1.25-1.383l.134-.006zM162 4.67c.765 0 1.385.621 1.385 1.394v13.559c0 .724-.545 1.32-1.25 1.387l-.135.006c-.765 0-1.385-.62-1.385-1.393v-2.327c0 .72-.544 1.312-1.25 1.379l-.134.006a1.39 1.39 0 0 1-1.385-1.385V8.39c0-.72.545-1.312 1.25-1.38l.135-.006a1.39 1.39 0 0 1 1.384 1.386V6.064c0-.724.545-1.32 1.25-1.387L162 4.67zm-65.538 0 .134.007c.706.067 1.25.663 1.25 1.387v13.559c0 .772-.62 1.393-1.384 1.393l-.135-.006a1.387 1.387 0 0 1-1.25-1.387V14.96c0 .772-.62 1.386-1.385 1.386l-.134-.006a1.382 1.382 0 0 1-1.25-1.38v-5.4c0-.773.62-1.387 1.384-1.387l.134.006c.707.068 1.25.66 1.25 1.38V6.064c0-.773.62-1.394 1.386-1.394zm3.692 0c.765 0 1.384.621 1.384 1.394v13.559c0 .724-.544 1.32-1.25 1.387l-.134.006c-.765 0-1.385-.62-1.385-1.393V6.063c0-.723.545-1.319 1.25-1.386l.135-.007zM55.846 3.503l.134.006c.706.067 1.25.66 1.25 1.383v14.735c0 .766-.62 1.39-1.384 1.39l-.134-.007a1.384 1.384 0 0 1-1.25-1.383V4.892c0-.766.62-1.39 1.384-1.39zm85.846 0c.765 0 1.385.623 1.385 1.389V8.39c0-.72.544-1.312 1.25-1.38l.135-.006a1.39 1.39 0 0 1 1.384 1.386v8.905c0 .72-.544 1.312-1.25 1.379l-.134.006a1.39 1.39 0 0 1-1.385-1.385v2.331c0 .722-.544 1.316-1.25 1.383l-.135.006a1.388 1.388 0 0 1-1.384-1.389V4.892c0-.722.544-1.316 1.25-1.383l.134-.006zM41.077 5.838l.134.006a1.38 1.38 0 0 1 1.25 1.376v11.247c0 .762-.62 1.382-1.384 1.382l-.134-.007a1.38 1.38 0 0 1-1.25-1.375V7.22c0-.762.62-1.382 1.384-1.382zm143.077 0 .134.006a1.38 1.38 0 0 1 1.25 1.376v11.247c0 .762-.62 1.382-1.384 1.382l-.134-.007a1.38 1.38 0 0 1-1.25-1.375l-.007.133a1.385 1.385 0 0 1-1.378 1.249l-.135-.007a1.38 1.38 0 0 1-1.25-1.375V7.22c0-.762.62-1.382 1.385-1.382l.134.006a1.38 1.38 0 0 1 1.25 1.376l.007-.133c.067-.7.658-1.25 1.378-1.25zm-58.154 0c.765 0 1.385.62 1.385 1.382v11.247a1.38 1.38 0 0 1-1.25 1.375l-.135.007c-.765 0-1.385-.62-1.385-1.382V7.22a1.38 1.38 0 0 1 1.25-1.376l.135-.006zm-54.462 0 .135.006a1.38 1.38 0 0 1 1.25 1.376v1.172c0-.767.62-1.387 1.385-1.387l.134.007c.706.067 1.25.66 1.25 1.38v10.07c0 .767-.62 1.387-1.384 1.387l-.134-.007a1.382 1.382 0 0 1-1.25-1.38c0 .767-.62 1.387-1.386 1.387l-.134-.007a1.38 1.38 0 0 1-1.25-1.375V7.22c0-.762.62-1.382 1.384-1.382zm-48 1.167.135.007c.706.067 1.25.66 1.25 1.38v10.07c0 .767-.62 1.387-1.385 1.387l-.134-.007a1.382 1.382 0 0 1-1.25-1.38V8.392c0-.767.62-1.387 1.384-1.387zM44.77 5.838l.134.006a1.38 1.38 0 0 1 1.25 1.376v11.247c0 .762-.62 1.382-1.384 1.382l-.134-.007a1.38 1.38 0 0 1-1.25-1.375V7.22c0-.762.62-1.382 1.384-1.382zm40.616 1.167.134.007c.706.067 1.25.66 1.25 1.38v10.07c0 .767-.62 1.387-1.384 1.387l-.135-.007a1.382 1.382 0 0 1-1.25-1.38V8.392c0-.767.62-1.387 1.385-1.387zm25.846 0c.764 0 1.384.62 1.384 1.387V9.56c0-.72.545-1.312 1.25-1.38l.135-.006c.765 0 1.385.614 1.385 1.386v5.4c0 .721-.545 1.313-1.25 1.38l-.135.007a1.381 1.381 0 0 1-1.385-1.386v3.502c0 .72-.544 1.313-1.25 1.38l-.134.007c-.765 0-1.385-.62-1.385-1.387V8.392c0-.72.545-1.313 1.25-1.38l.135-.007zM59.538 5.838l.135.006a1.38 1.38 0 0 1 1.25 1.376v11.247c0 .762-.62 1.382-1.385 1.382l-.134-.007a1.38 1.38 0 0 1-1.25-1.375V7.22c0-.762.62-1.382 1.384-1.382zm96 0c.765 0 1.385.62 1.385 1.382v11.247a1.38 1.38 0 0 1-1.25 1.375l-.135.007c-.764 0-1.384-.62-1.384-1.382V7.22a1.38 1.38 0 0 1 1.25-1.376l.134-.006zm-3.692 0c.765 0 1.385.62 1.385 1.382v11.247a1.38 1.38 0 0 1-1.25 1.375l-.135.007c-.765 0-1.384-.62-1.384-1.382V7.22a1.38 1.38 0 0 1 1.25-1.376l.134-.006zm-29.538 1.167c.764 0 1.384.62 1.384 1.387v10.07c0 .72-.544 1.313-1.25 1.38l-.134.007c-.765 0-1.385-.62-1.385-1.387v-1.166c0 .72-.544 1.312-1.25 1.379l-.135.006a1.39 1.39 0 0 1-1.384-1.385V8.39c0-.72.544-1.312 1.25-1.38l.134-.006a1.39 1.39 0 0 1 1.385 1.386v.001c0-.72.544-1.313 1.25-1.38l.135-.007zM78 7.005l.134.007c.706.067 1.25.659 1.25 1.379v8.905A1.39 1.39 0 0 1 78 18.68l-.134-.006a1.381 1.381 0 0 1-1.25-1.38V8.392c0-.758.62-1.386 1.384-1.386zm99.692 0 .134.007c.707.067 1.25.659 1.25 1.379v8.905a1.39 1.39 0 0 1-1.384 1.385l-.134-.006a1.381 1.381 0 0 1-1.25-1.38V8.392c0-.758.62-1.386 1.384-1.386zm-125.538 0 .134.007c.706.067 1.25.659 1.25 1.379v8.905a1.39 1.39 0 0 1-1.384 1.385l-.134-.006a1.381 1.381 0 0 1-1.25-1.38l-.007.133a1.39 1.39 0 0 1-1.378 1.253l-.135-.006a1.381 1.381 0 0 1-1.25-1.38V8.392c0-.758.62-1.386 1.385-1.386l.134.007c.706.067 1.25.659 1.25 1.379l.007-.133a1.39 1.39 0 0 1 1.378-1.253zm-33.23 0 .133.007c.706.067 1.25.659 1.25 1.379v8.905a1.39 1.39 0 0 1-1.384 1.385l-.134-.006a1.381 1.381 0 0 1-1.25-1.38V8.392c0-.758.62-1.386 1.384-1.386zm18.46 0 .135.007c.706.067 1.25.659 1.25 1.379v8.905a1.39 1.39 0 0 1-1.384 1.385l-.135-.006a1.381 1.381 0 0 1-1.25-1.38V8.392c0-.758.62-1.386 1.385-1.386zm29.54 0 .133.007c.706.067 1.25.659 1.25 1.379v8.905a1.39 1.39 0 0 1-1.384 1.385l-.134-.006a1.381 1.381 0 0 1-1.25-1.38V8.392c0-.758.62-1.386 1.384-1.386zm121.845 0 .134.007c.706.067 1.25.659 1.25 1.379v8.905a1.39 1.39 0 0 1-1.384 1.385l-.134-.006a1.381 1.381 0 0 1-1.25-1.38V8.392c0-.758.62-1.386 1.384-1.386zM63.231 8.173l.134.006c.706.067 1.25.656 1.25 1.372v6.584c0 .766-.62 1.379-1.384 1.379l-.134-.007a1.377 1.377 0 0 1-1.25-1.372V9.551c0-.765.62-1.378 1.384-1.378zm132.923 2.335.134.006a1.38 1.38 0 0 1 1.25 1.378v4.237c0 .763-.62 1.385-1.384 1.385l-.134-.007a1.38 1.38 0 0 1-1.25-1.378v-4.237c0-.762.62-1.384 1.384-1.384zm-3.692-1.167.134.006c.706.067 1.25.66 1.25 1.38v5.4c0 .772-.62 1.387-1.384 1.387l-.135-.007a1.382 1.382 0 0 1-1.25-1.38v-5.4c0-.772.62-1.386 1.385-1.386zm7.384 2.335.134.006c.706.067 1.25.654 1.25 1.37v1.918c0 .765-.62 1.376-1.384 1.376l-.134-.006a1.376 1.376 0 0 1-1.25-1.37v-1.918c0-.766.62-1.376 1.384-1.376zM81.692 8.173l.134.006c.707.068 1.25.66 1.25 1.38v5.4c0 .773-.619 1.387-1.384 1.387l-.134-.006a1.382 1.382 0 0 1-1.25-1.38v-5.4c0-.773.62-1.387 1.384-1.387zm22.154 0c.765 0 1.385.614 1.385 1.386v5.4c0 .721-.545 1.313-1.25 1.38l-.135.007a1.381 1.381 0 0 1-1.384-1.386v-5.4c0-.721.544-1.313 1.25-1.38l.134-.007zM11.538 9.341l.135.006a1.38 1.38 0 0 1 1.25 1.378v4.237c0 .762-.62 1.384-1.385 1.384l-.134-.006a1.38 1.38 0 0 1-1.25-1.378v-4.237c0-.763.62-1.384 1.384-1.384zm3.693-1.168.134.006c.706.068 1.25.66 1.25 1.38v5.4c0 .773-.62 1.387-1.384 1.387l-.134-.006a1.382 1.382 0 0 1-1.25-1.38v-5.4c0-.773.62-1.387 1.384-1.387zm195.91 4.67a1.168 1.168 0 1 1 0 2.335h-.435a1.168 1.168 0 1 1 0-2.335zm-4.616 0a1.168 1.168 0 1 1 0 2.335h-.434a1.168 1.168 0 0 1 0-2.335zm-2.77 0a1.168 1.168 0 1 1 0 2.335h-.434a1.168 1.168 0 1 1 0-2.335zM7.847 10.508l.134.006c.706.067 1.25.655 1.25 1.37v1.918c0 .766-.62 1.376-1.384 1.376l-.134-.006a1.376 1.376 0 0 1-1.25-1.37v-1.918c0-.765.62-1.376 1.384-1.376zm206.986 2.335a1.168 1.168 0 1 1 0 2.335h-.434a1.168 1.168 0 1 1 0-2.335zM5.294 11.676a1.168 1.168 0 1 1 0 2.335H4.86a1.168 1.168 0 1 1 0-2.335zm-3.692 0a1.168 1.168 0 1 1 0 2.335h-.434a1.168 1.168 0 1 1 0-2.335z" fill="#951A1D" fill-rule="evenodd" fill-opacity=".15"/>
</svg>
