<?xml version="1.0" encoding="UTF-8"?>
<svg width="20px" height="20px" viewBox="0 0 20 20" version="1.1" xmlns="http://www.w3.org/2000/svg" xmlns:xlink="http://www.w3.org/1999/xlink">
    <title>traffic-right-turn@2x</title>
    <g id="Last-Update" stroke="none" stroke-width="1" fill="none" fill-rule="evenodd">
        <g id="New---4" transform="translate(-327.000000, -480.000000)" fill="#FFFFFF" fill-rule="nonzero">
            <g id="Group-4" transform="translate(16.000000, 45.000000)">
                <g id="Next-Copy-5" transform="translate(0.000000, 264.000000)">
                    <g id="Group-6" transform="translate(0.000000, 160.000000)">
                        <g id="traffic-right-turn" transform="translate(311.000000, 11.000000)">
                            <path d="M19.7935969,9.50216122 L10.4977411,0.206305404 C10.2226184,-0.0687684681 9.77699089,-0.0687684681 9.50186818,0.206305404 L0.206305404,9.50216122 C0.0741898459,9.63427678 0,9.8134753 0,10 C0,10.1865247 0.0741898459,10.3656744 0.206305404,10.4979853 L9.50186818,19.7934992 C9.63940511,19.9313292 9.81923857,20 9.99970695,20 C10.1796381,20 10.3601553,19.9313781 10.4976923,19.7934992 L19.7935481,10.4979853 C19.9255171,10.3656744 20.0000488,10.1865247 20.0000488,10 C20.0000488,9.8134753 19.9255659,9.63427678 19.7935969,9.50216122 Z M13.2745122,9.25228943 L11.4549806,11.0713815 C11.3176879,11.2092115 11.137659,11.2778822 10.9569953,11.2778822 C10.7772107,11.2778822 10.59684,11.2092603 10.459303,11.0713815 C10.1842292,10.7962588 10.1842292,10.3507778 10.459303,10.0756551 L11.08198,9.45346651 L7.92639625,9.45346651 L7.92639625,13.209358 C7.92639625,13.5982808 7.61127256,13.913844 7.22210555,13.913844 C6.83323158,13.913844 6.51796137,13.5982808 6.51796137,13.209358 L6.51796137,8.74912696 C6.51796137,8.3604972 6.83323158,8.04498278 7.22210555,8.04498278 L11.0717234,8.04498278 L10.3141957,7.2878947 C10.0392195,7.01277198 10.0392195,6.56699797 10.3141957,6.29187526 C10.5892696,6.01675255 11.0350924,6.01675255 11.3101663,6.29187526 L13.2743168,8.25626999 C13.5495861,8.53139271 13.5495861,8.97716672 13.2745122,9.25228943 Z" id="Shape"></path>
                        </g>
                    </g>
                </g>
            </g>
        </g>
    </g>
</svg>