<svg width="21" height="15" viewBox="0 0 21 15" xmlns="http://www.w3.org/2000/svg">
    <g fill="#212424" fill-rule="nonzero">
        <path d="M15.75 7.35a3.15 3.15 0 1 0 0-6.3 3.15 3.15 0 0 0 0 6.3zm1.575 1.05H17.2a4.42 4.42 0 0 1-1.45.262A4.42 4.42 0 0 1 14.3 8.4h-.125c-.67 0-1.286.194-1.828.505a4.802 4.802 0 0 1 1.303 3.275v1.26c0 .072-.016.141-.02.21h5.795c.87 0 1.575-.705 1.575-1.575A3.673 3.673 0 0 0 17.325 8.4z" fill-opacity=".4"/>
        <path d="M6.3 7.35A3.675 3.675 0 1 0 6.3 0a3.675 3.675 0 0 0 0 7.35zM8.82 8.4h-.272c-.7.342-1.469.522-2.248.525A5.18 5.18 0 0 1 4.052 8.4H3.78A3.781 3.781 0 0 0 0 12.18v.945c0 .87.705 1.575 1.575 1.575h9.45c.87 0 1.575-.705 1.575-1.575v-.945A3.781 3.781 0 0 0 8.82 8.4z" fill-opacity=".7"/>
    </g>
</svg>
