<svg width="18" height="21" viewBox="0 0 18 21" xmlns="http://www.w3.org/2000/svg">
    <path d="M8.997 8.572a.563.563 0 0 0-.547-.557.562.562 0 0 0-.56.544.56.56 0 0 0 .548.554.555.555 0 0 0 .56-.541m-2.815 3.017c-.076.226.094.41.34.57.234.153.472.297.721.424.102.052.163.05.22-.063.19-.372.388-.742.588-1.11.057-.104.027-.142-.08-.173a4.957 4.957 0 0 1-1.3-.567c-.217-.137-.369-.048-.41.215-.033.202-.047.407-.079.704m4.735-.006c-.012-.157-.017-.25-.026-.343-.011-.11-.022-.222-.04-.332-.044-.292-.201-.382-.444-.224a4.59 4.59 0 0 1-1.248.546c-.14.04-.155.09-.088.21.192.35.383.702.561 1.06.071.142.145.131.261.069.255-.137.501-.283.742-.443.227-.151.341-.333.282-.543M8.485 3.11a1.81 1.81 0 0 0-.739.12c-.453.186-.805.472-.876.996-.031.229.062.405.28.493.226.091.43.044.561-.168.207-.333.519-.403.872-.373.54.045.753.476.473.938-.135.22-.338.37-.531.53-.453.375-.643.859-.581 1.438.027.259.18.36.479.35.3-.012.461-.125.456-.376-.007-.405.189-.686.484-.928.158-.13.317-.263.45-.417.392-.454.537-.979.369-1.562-.196-.68-.787-1.04-1.697-1.041m-.85 15.868.071-.015c.177-1.978.352-3.956.532-5.933.024-.266-.09-.458-.288-.644l-.221.406c-.165.306-.2.318-.522.175a6.78 6.78 0 0 1-1.027-.597c.064 2.342.63 4.504 1.455 6.608m1.523-6.593a.812.812 0 0 0-.282.735c.132 1.355.245 2.712.366 4.068.054.596.112 1.192.168 1.788.888-2.102 1.457-4.263 1.52-6.608-.388.27-.742.469-1.114.636-.196.088-.315.048-.403-.145-.074-.16-.166-.31-.255-.474M8.53 20.99c-2.334.012-4.669.03-7.002-.064-.712-.03-.72-.029-.844-.725-.29-1.627-.587-3.252-.676-4.907-.036-.678.05-1.34.22-1.995.07-.275.264-.415.504-.52.714-.315 1.469-.488 2.229-.64.466-.094.936-.171 1.406-.245a.589.589 0 0 0 .415-.24c.281-.371.583-.728.879-1.09.143-.174.303-.332.516-.42.168-.07.19-.175.069-.298-.468-.474-.79-1.037-1.03-1.652-.033-.087-.08-.139-.18-.141a.588.588 0 0 1-.382-.159c-.57-.513-.843-1.152-.766-1.921a.811.811 0 0 1 .53-.703c.15-.06.185-.138.176-.292-.045-.768-.017-1.53.227-2.27C5.403.943 6.919-.099 8.755.007c1.896.107 3.274 1.31 3.666 3.196.122.59.133 1.187.09 1.784-.01.143.02.215.162.273.428.175.587.535.571.968a2.344 2.344 0 0 1-.607 1.502c-.138.155-.3.311-.513.31-.219 0-.3.098-.378.279a4.679 4.679 0 0 1-.816 1.265c-.22.246-.194.389.078.562.29.184.488.46.702.718.263.316.46.732.79.933.318.194.771.165 1.164.241.861.167 1.716.354 2.545.656.441.16.667.436.758.903.235 1.213.13 2.418-.022 3.624-.143 1.13-.356 2.249-.572 3.367-.04.21-.118.296-.337.31-.98.057-1.959.085-2.94.09-1.521.006-3.043.001-4.566.001" fill="#212424" fill-rule="evenodd" fill-opacity=".7"/>
</svg>
