<svg width="25" height="31" viewBox="0 0 25 31" xmlns="http://www.w3.org/2000/svg">
    <path d="M13.15 12.529a.823.823 0 0 0-.8-.814.822.822 0 0 0-.818.795.818.818 0 0 0 .8.809.811.811 0 0 0 .818-.79m-4.113 4.409c-.11.33.137.6.497.834.342.223.69.433 1.054.619.149.076.237.072.32-.092.28-.544.568-1.084.86-1.622.084-.153.04-.208-.116-.253a7.246 7.246 0 0 1-1.9-.829c-.317-.2-.54-.07-.6.315-.047.295-.068.594-.115 1.028m6.92-.008c-.017-.23-.025-.366-.038-.502-.016-.162-.032-.325-.057-.486-.066-.427-.295-.557-.65-.326-.567.368-1.183.612-1.824.797-.206.06-.226.132-.13.308a42.4 42.4 0 0 1 .822 1.549c.103.207.212.192.381.1.372-.2.732-.414 1.084-.648.332-.22.499-.486.412-.792M12.402 4.544a2.646 2.646 0 0 0-1.08.176c-.663.27-1.178.69-1.282 1.455-.045.335.091.592.41.72.33.134.628.065.82-.245.303-.487.758-.589 1.275-.545.789.066 1.1.695.69 1.37-.196.324-.493.542-.776.776-.661.547-.939 1.254-.849 2.102.04.377.263.526.7.51.44-.017.675-.182.668-.548-.011-.593.275-1.003.707-1.356a5.25 5.25 0 0 0 .657-.611c.573-.663.785-1.43.54-2.282-.287-.995-1.15-1.52-2.48-1.522m-1.243 23.193.104-.023c.258-2.89.515-5.781.777-8.672.035-.388-.131-.669-.42-.941l-.324.593c-.24.448-.291.466-.763.256-.505-.225-.974-.517-1.501-.872.095 3.423.921 6.583 2.127 9.659m2.227-9.637c-.333.306-.455.638-.413 1.074.193 1.98.358 3.964.535 5.946.078.871.164 1.742.245 2.613 1.298-3.072 2.13-6.23 2.22-9.658a9.802 9.802 0 0 1-1.627.93c-.285.128-.46.07-.589-.212-.107-.233-.242-.454-.371-.693m-.918 12.578c-3.412.018-6.824.044-10.234-.094-1.041-.042-1.054-.041-1.235-1.06-.423-2.376-.857-4.752-.987-7.17-.053-.992.072-1.96.32-2.917.105-.402.387-.606.738-.76 1.043-.46 2.147-.713 3.257-.936.682-.137 1.369-.25 2.056-.357a.86.86 0 0 0 .606-.35c.412-.544.852-1.065 1.285-1.593.209-.255.443-.486.753-.615.246-.103.28-.255.101-.435-.684-.693-1.154-1.516-1.504-2.415-.05-.127-.116-.203-.264-.206a.86.86 0 0 1-.558-.232c-.834-.75-1.232-1.685-1.12-2.809.05-.483.321-.844.774-1.026.22-.089.272-.202.259-.427-.066-1.123-.026-2.237.331-3.32.851-2.576 3.067-4.099 5.75-3.945 2.771.158 4.785 1.916 5.358 4.672.179.863.194 1.734.13 2.608-.014.208.031.314.238.399.626.255.858.782.835 1.415a3.425 3.425 0 0 1-.887 2.194c-.201.227-.438.455-.75.454-.32-.001-.438.143-.553.407a6.838 6.838 0 0 1-1.192 1.85c-.322.359-.284.567.114.82.422.27.713.673 1.026 1.05.384.461.671 1.07 1.153 1.364.467.283 1.128.24 1.702.352 1.26.245 2.51.517 3.72.958.645.236.975.638 1.108 1.32.344 1.773.191 3.535-.032 5.297-.21 1.652-.52 3.287-.836 4.921-.06.307-.172.433-.492.452a77.998 77.998 0 0 1-4.296.132c-2.225.01-4.45.002-6.674.002" fill="#CA6E59" fill-rule="evenodd"/>
</svg>
