<svg width="55" height="55" viewBox="0 0 55 55" xmlns="http://www.w3.org/2000/svg">
    <g fill-rule="nonzero" fill="none">
        <path d="M50.166 6.445h-1.719V1.611a1.611 1.611 0 0 0-2.75-1.139l-5.974 5.973h-9a4.84 4.84 0 0 0-4.834 4.834V13H4.834A4.84 4.84 0 0 0 0 17.831v25.889a4.84 4.84 0 0 0 4.834 4.834h1.611v4.834a1.612 1.612 0 0 0 2.751 1.139l5.973-5.973h21.999a4.84 4.84 0 0 0 4.834-4.834V29.11h8.164A4.84 4.84 0 0 0 55 24.277V11.28a4.84 4.84 0 0 0-4.834-4.834z" fill="#FFF3DE"/>
        <path d="M51.777 24.277c0 .889-.722 1.612-1.611 1.612h-8.164v-8.057a4.84 4.84 0 0 0-4.834-4.834h-8.057V11.28c0-.888.723-1.611 1.612-1.611h9.668c.427 0 .837-.17 1.139-.472l3.695-3.695v2.556c0 .89.721 1.611 1.611 1.611h3.33c.889 0 1.611.723 1.611 1.611v12.998z" fill="#CA6E59"/>
        <path d="M34.887 22.97a1.612 1.612 0 0 0-1.451-.221l-7.547 2.515v-.987c0-.89-.722-1.611-1.612-1.611H8.057c-.89 0-1.612.721-1.612 1.611v12.891c0 .89.722 1.611 1.612 1.611h16.22c.89 0 1.612-.721 1.612-1.611v-.987l7.547 2.516a1.612 1.612 0 0 0 2.12-1.529v-12.89c0-.519-.248-1.005-.669-1.308z" fill="#883F2E"/>
        <path fill="#FFF" d="M22.666 35.557H9.668v-9.668h12.998zM32.334 34.932l-6.445-2.148V28.66l6.445-2.148z"/>
    </g>
</svg>
