<svg width="79" height="24" viewBox="0 0 79 24" xmlns="http://www.w3.org/2000/svg">
    <g fill-rule="nonzero" fill="none">
        <path d="M28.088 23.56 32.021.482h6.29L34.377 23.56h-6.288zM57.101.98C55.855.512 53.902.01 51.464.01c-6.216 0-10.594 3.13-10.631 7.616-.035 3.317 3.125 5.166 5.511 6.27 2.449 1.131 3.272 1.853 3.26 2.863-.015 1.547-1.955 2.253-3.763 2.253-2.518 0-3.855-.35-5.921-1.21l-.81-.368-.883 5.167c1.469.644 4.186 1.202 7.006 1.23 6.613 0 10.905-3.093 10.954-7.884.023-2.625-1.652-4.623-5.281-6.27-2.199-1.067-3.546-1.78-3.531-2.86 0-.96 1.14-1.986 3.602-1.986a11.609 11.609 0 0 1 4.708.884l.564.267L57.1.98M73.288.482h-4.86c-1.506 0-2.633.411-3.294 1.914l-9.342 21.149h6.605s1.08-2.844 1.324-3.468c.722 0 7.139.01 8.056.01.189.807.765 3.458.765 3.458h5.837L73.29.48v.001zm-7.712 14.902c.52-1.33 2.507-6.451 2.507-6.451-.038.062.516-1.336.834-2.203l.424 1.99 1.457 6.664h-5.222zM22.748.482 16.59 16.22l-.656-3.198c-1.147-3.687-4.719-7.681-8.712-9.68l5.631 20.181 6.656-.007L29.41.482h-6.663" fill="#FFF"/>
        <path d="M10.844.481H.701l-.08.48c7.89 1.91 13.112 6.527 15.28 12.073L13.695 2.43C13.315.968 12.21.532 10.845.481" fill="#F2AE14"/>
    </g>
</svg>
