<svg width="12" height="10" viewBox="0 0 12 10" xmlns="http://www.w3.org/2000/svg">
    <path d="M9.856.921a.6.6 0 1 0-.643 1.014A3.383 3.383 0 0 1 10.8 4.8a3.382 3.382 0 0 1-1.587 2.865.6.6 0 0 0 .643 1.014A4.576 4.576 0 0 0 12 4.8 4.576 4.576 0 0 0 9.856.921zm-1.4 1.957a.6.6 0 0 0-.579 1.051.997.997 0 0 1 .523.871c0 .36-.2.693-.523.87a.6.6 0 0 0 .579 1.052A2.198 2.198 0 0 0 9.6 4.8c0-.797-.438-1.533-1.144-1.922zM5.796 0a.586.586 0 0 0-.42.176L3.15 2.4H.6A.6.6 0 0 0 0 3v3.6a.6.6 0 0 0 .6.6h2.551l2.225 2.224A.599.599 0 0 0 6.4 9V.6c0-.362-.297-.6-.605-.6zM5.2 7.551 3.648 6H1.2V3.6h2.449L5.2 2.049V7.55z" fill="#212424" fill-rule="nonzero" fill-opacity=".6"/>
</svg>
