<svg width="101" height="97" viewBox="0 0 101 97" xmlns="http://www.w3.org/2000/svg">
    <g transform="translate(3)" fill="none" fill-rule="evenodd">
        <path d="M76.23 1c4.162 4.218 8.32 8.441 12.477 12.666.188.19.477.413.486.63.097 2.515 2.247 2.904 3.816 3.98 3.13 2.148 4.837 5.159 4.832 9.085-.012 9.838.032 19.676-.013 29.513-.03 6.29-4.583 10.926-10.779 10.974-7.485.058-14.972.013-22.458.013v.035c-7.42 0-14.839.051-22.258-.015C35.366 67.82 30.995 63.245 31 56.197c.007-9.498 0-18.997 0-28.496 0-6.459 4.407-11.414 10.747-11.08 4.06.213 6.067-1.321 7.576-4.802 1.26-2.907 2.967-5.616 4.518-8.388 1.065-1.904 2.026-2.204 3.964-1.268 2.052.99 4.164 1.893 6.09 3.097 1.72 1.074 2.943 1.019 4.313-.553 1.188-1.362 2.676-2.45 3.988-3.707 1.37-1.312 2.696-1.354 4.033 0zM64.322 21.464v.034c-7.484 0-14.967-.015-22.45.006-3.657.01-6.101 2.15-6.138 5.777-.103 9.9-.107 19.804.011 29.704.044 3.717 2.438 5.888 6.053 5.895 15.035.026 30.07.013 45.104.035 1.928.004 3.528-.658 4.791-2.121 1.17-1.355 1.446-3.005 1.465-4.742.034-2.893.046-3.141-2.259-3.155H90.157c-3.074.01-6.148.015-9.221-.015-6.049-.059-10.65-4.76-10.639-10.843.01-5.976 4.57-10.5 10.659-10.541 3.474-.024 6.949 0 10.423-.014.715-.002 1.454.118 1.744-.911 1.354-4.81-1.685-9.088-6.551-9.103-7.416-.023-14.833-.006-22.25-.006zM80.605 36.32c-3.313.159-5.684 2.863-5.618 5.994.067 3.155 2.518 5.492 5.944 5.603 1.667.053 3.338.009 5.007.008l3.739-.004c.623 0 1.246.003 1.869.009 1.06.01 1.613-.423 1.603-1.563a771.421 771.421 0 0 1-.007-8.742c.003-.918-.388-1.373-1.321-1.369-3.74.018-7.485-.115-11.216.064zm1.374 1.595c2.136-.041 4.09 1.96 4.02 4.117-.068 2.086-1.963 3.89-4.076 3.882-1.998-.008-3.95-2.023-3.923-4.046.03-2.11 1.844-3.913 3.979-3.953zM56.586 8.449c-1.17 2.202-2.345 4.402-3.601 6.552-.846 1.448-.123 1.582.989 1.468.897.092 1.609-.163 2.236-.764 1.018-.974 2.097-1.881 3.112-2.857 3.409-3.278 3.379-3.333-.976-5.052-.884-.349-1.337-.144-1.76.653zM73.17 6.666c-3.388 3.148-6.798 6.269-10.661 9.824H75.22c2.269 0 4.508-.001 6.748-.004.603 0 1.273-.008 1.556-.673.278-.652-.337-.97-.69-1.328-2.598-2.631-5.23-5.228-7.814-7.874-.703-.72-1.21-.542-1.851.055z" fill="#07B055"/>
        <circle stroke="#FFF" stroke-width="5" fill="#07B055" cx="24" cy="69.915" r="24"/>
        <path d="M19.612 79.915c-.81-.043-1.649-.266-2.191-.99-2.271-3.036-4.252-6.242-5.303-9.96-.128-.454-.245-.907.182-1.278.411-.357.838-.21 1.281-.059.913.31 1.66.88 2.387 1.497 1.123.951 2.283 1.858 3.374 2.845.484.437.765.447 1.281.019 4.028-3.336 8.082-6.641 12.368-9.631 1.016-.708 2.076-1.35 3.123-2.01.218-.138.463-.236.706-.324.346-.126.733-.193 1.013.085.302.3.129.679-.008 1.016-.353.868-.895 1.62-1.511 2.297-4.677 5.142-9.236 10.397-14.133 15.327-.742.747-1.655 1.152-2.569 1.166" fill="#FFF"/>
    </g>
</svg>
